<?xml version="1.0" encoding="UTF-8" standalone="no"?>
<!-- Created with Inkscape (http://www.inkscape.org/) -->

<svg
   xmlns:dc="http://purl.org/dc/elements/1.1/"
   xmlns:cc="http://creativecommons.org/ns#"
   xmlns:rdf="http://www.w3.org/1999/02/22-rdf-syntax-ns#"
   xmlns:svg="http://www.w3.org/2000/svg"
   xmlns="http://www.w3.org/2000/svg"
   xmlns:sodipodi="http://sodipodi.sourceforge.net/DTD/sodipodi-0.dtd"
   xmlns:inkscape="http://www.inkscape.org/namespaces/inkscape"
   width="36.811192mm"
   height="41.742149mm"
   viewBox="0 0 36.811192 41.74215"
   version="1.1"
   id="svg2761"
   inkscape:version="0.92.4 (5da689c313, 2019-01-14)"
   sodipodi:docname="0.svg">
  <defs
     id="defs2755" />
  <sodipodi:namedview
     id="base"
     pagecolor="#ffffff"
     bordercolor="#666666"
     borderopacity="1.0"
     inkscape:pageopacity="0.0"
     inkscape:pageshadow="2"
     inkscape:zoom="1.4"
     inkscape:cx="53.975902"
     inkscape:cy="-9.3772139"
     inkscape:document-units="mm"
     inkscape:current-layer="layer1"
     showgrid="false"
     fit-margin-top="0"
     fit-margin-left="0"
     fit-margin-right="0"
     fit-margin-bottom="0"
     inkscape:window-width="1600"
     inkscape:window-height="847"
     inkscape:window-x="-8"
     inkscape:window-y="22"
     inkscape:window-maximized="1" />
  <metadata
     id="metadata2758">
    <rdf:RDF>
      <cc:Work
         rdf:about="">
        <dc:format>image/svg+xml</dc:format>
        <dc:type
           rdf:resource="http://purl.org/dc/dcmitype/StillImage" />
        <dc:title></dc:title>
      </cc:Work>
    </rdf:RDF>
  </metadata>
  <g
     inkscape:label="Layer 1"
     inkscape:groupmode="layer"
     id="layer1"
     transform="translate(-121.08009,263.48272)">
    <path
       style="opacity:1;fill:#000000;stroke:none;stroke-width:8.75513363;stroke-miterlimit:4;stroke-dasharray:none"
       d="m 139.48568,-263.48272 c -10.16514,-1.7e-4 -18.40568,9.34431 -18.40559,20.87129 1.2e-4,11.52683 8.24059,20.87103 18.40559,20.87086 10.165,1.7e-4 18.40547,-9.34403 18.4056,-20.87086 9e-5,-11.52698 -8.24045,-20.87146 -18.4056,-20.87129 z m 0,8.58293 c 4.99552,-4e-5 9.04526,5.5267 9.04544,12.34444 -0.004,0.59539 -0.0389,1.18964 -0.10542,1.77808 l -12.77493,-6.93769 c -1.46147,-0.97276 -1.65825,-3.378 -1.56321,-4.72943 0.26915,-2.07551 3.45206,-2.45075 5.39812,-2.4554 z m -9.04389,12.38031 12.51293,6.79556 c 1.07446,0.71506 2.51128,1.47132 1.67432,3.30732 -1.51028,1.4318 -3.30445,2.20139 -5.14336,2.20614 -4.9848,-0.002 -9.02941,-5.50595 -9.04389,-12.30902 z"
       id="path3256-3"
       inkscape:connector-curvature="0"
       sodipodi:nodetypes="cccccccccccccccc"
       inkscape:export-filename="D:\fonnn\path3256-3.png"
       inkscape:export-xdpi="96"
       inkscape:export-ydpi="96" />
  </g>
</svg>
