<?xml version="1.0" encoding="UTF-8" standalone="no"?>
<!-- Created with Inkscape (http://www.inkscape.org/) -->

<svg
   xmlns:dc="http://purl.org/dc/elements/1.1/"
   xmlns:cc="http://creativecommons.org/ns#"
   xmlns:rdf="http://www.w3.org/1999/02/22-rdf-syntax-ns#"
   xmlns:svg="http://www.w3.org/2000/svg"
   xmlns="http://www.w3.org/2000/svg"
   xmlns:sodipodi="http://sodipodi.sourceforge.net/DTD/sodipodi-0.dtd"
   xmlns:inkscape="http://www.inkscape.org/namespaces/inkscape"
   width="20.123531mm"
   height="41.742611mm"
   viewBox="0 0 20.123532 41.742612"
   version="1.1"
   id="svg2761"
   inkscape:version="0.92.4 (5da689c313, 2019-01-14)"
   sodipodi:docname="1.svg">
  <defs
     id="defs2755" />
  <sodipodi:namedview
     id="base"
     pagecolor="#ffffff"
     bordercolor="#666666"
     borderopacity="1.0"
     inkscape:pageopacity="0.0"
     inkscape:pageshadow="2"
     inkscape:zoom="1.4"
     inkscape:cx="119.36684"
     inkscape:cy="-100.80571"
     inkscape:document-units="mm"
     inkscape:current-layer="layer1"
     showgrid="false"
     fit-margin-top="0"
     fit-margin-left="0"
     fit-margin-right="0"
     fit-margin-bottom="0"
     inkscape:window-width="1600"
     inkscape:window-height="847"
     inkscape:window-x="-8"
     inkscape:window-y="22"
     inkscape:window-maximized="1" />
  <metadata
     id="metadata2758">
    <rdf:RDF>
      <cc:Work
         rdf:about="">
        <dc:format>image/svg+xml</dc:format>
        <dc:type
           rdf:resource="http://purl.org/dc/dcmitype/StillImage" />
        <dc:title></dc:title>
      </cc:Work>
    </rdf:RDF>
  </metadata>
  <g
     inkscape:label="Layer 1"
     inkscape:groupmode="layer"
     id="layer1"
     transform="translate(-103.77874,333.03078)">
    <path
       inkscape:connector-curvature="0"
       style="opacity:1;fill:#000000;stroke:none;stroke-width:8.68271542;stroke-miterlimit:4;stroke-dasharray:none"
       d="m 115.4464,-333.03078 c -0.14179,0 -0.28202,0.007 -0.42013,0.0212 -0.006,5.3e-4 -0.0114,0.002 -0.0169,0.003 -0.0249,0.003 -0.0487,0.008 -0.0734,0.0109 -0.11943,0.0146 -0.23746,0.0329 -0.35345,0.0574 -0.0241,0.005 -0.0474,0.012 -0.0713,0.0176 -0.11509,0.0265 -0.22839,0.0572 -0.33954,0.093 -0.0222,0.007 -0.044,0.0152 -0.0662,0.0227 -0.11295,0.0385 -0.22344,0.0814 -0.33176,0.12919 -0.008,0.004 -0.0167,0.006 -0.0249,0.01 l -0.004,-0.008 -0.10284,0.0579 c -0.0713,0.0345 -0.14089,0.0717 -0.20982,0.11007 -0.0214,0.0118 -0.0424,0.024 -0.0635,0.0362 -0.059,0.0342 -0.11809,0.0684 -0.17518,0.10541 l -8.34626,4.68292 c -1.0093,0.56638 -1.36575,1.83494 -0.79944,2.84427 l 0.13539,0.24082 c 0.5664,1.00934 1.83486,1.36583 2.84427,0.79943 l 3.56672,-2.00143 a 0.55541945,0.55541945 0 0 1 0.18499,-0.0331 0.55541945,0.55541945 0 0 1 0.53071,0.39274 v 21.61367 h -0.0169 v 1.21181 a 1.3202201,3.2815255 0 0 1 0,0.0331 10.772322,10.772322 0 0 1 -3.75221,8.14627 c 0.44246,1.80903 2.06407,3.14554 4.01317,3.14554 h 3.87366 0.0169 0.003 0.54467 0.003 0.0151 3.87882 c 1.9491,0 3.57068,-1.33651 4.0132,-3.14554 a 10.772322,10.772322 0 0 1 -3.75225,-8.14627 1.3202201,3.2815255 0 0 1 0,-0.0331 v -1.21181 h -0.018 v -25.06876 c 0,-0.14117 -0.007,-0.2806 -0.0212,-0.41806 -0.003,-0.0239 -0.007,-0.047 -0.0103,-0.0708 -0.013,-0.11067 -0.0281,-0.22038 -0.0496,-0.32815 -0.007,-0.0376 -0.0185,-0.0739 -0.0269,-0.1111 -0.0214,-0.0944 -0.044,-0.18829 -0.0718,-0.28009 -0.0119,-0.0392 -0.0262,-0.0771 -0.0393,-0.11575 -0.0285,-0.0849 -0.0577,-0.16941 -0.0915,-0.25167 -0.0188,-0.0456 -0.0402,-0.0896 -0.0605,-0.13436 -0.0331,-0.0732 -0.0667,-0.14573 -0.10385,-0.21652 -0.0246,-0.0466 -0.0508,-0.0919 -0.077,-0.13746 -0.0382,-0.0663 -0.0771,-0.13191 -0.11885,-0.19585 -0.0304,-0.0467 -0.0623,-0.0921 -0.0946,-0.13746 -0.0416,-0.0585 -0.0842,-0.11595 -0.12867,-0.17209 -0.0363,-0.0459 -0.0739,-0.0906 -0.11215,-0.13487 -0.0452,-0.0523 -0.0913,-0.10353 -0.13899,-0.15348 -0.0417,-0.0437 -0.0841,-0.0864 -0.12766,-0.12816 -0.0505,-0.0484 -0.10263,-0.0947 -0.15555,-0.14056 -0.042,-0.0364 -0.0837,-0.0728 -0.1271,-0.10748 -0.0591,-0.0472 -0.1202,-0.0915 -0.1819,-0.1354 -0.0443,-0.0315 -0.0883,-0.0632 -0.13386,-0.093 -0.0604,-0.0395 -0.12245,-0.0763 -0.18499,-0.11265 -0.05,-0.0291 -0.0996,-0.0588 -0.1509,-0.0858 -0.0623,-0.0328 -0.12657,-0.0618 -0.19068,-0.0915 -0.055,-0.0254 -0.10909,-0.0519 -0.16537,-0.0749 -0.0666,-0.0273 -0.13533,-0.05 -0.20359,-0.0739 -0.0547,-0.0191 -0.10861,-0.04 -0.16434,-0.0568 -0.0772,-0.0233 -0.1566,-0.0416 -0.23566,-0.0605 -0.0499,-0.0119 -0.0987,-0.0266 -0.14933,-0.0367 -0.0898,-0.0179 -0.18156,-0.0298 -0.27337,-0.0419 -0.0427,-0.006 -0.0841,-0.0143 -0.12713,-0.0186 -0.13941,-0.0141 -0.28054,-0.0212 -0.42376,-0.0212 z"
       id="rect826-90-3-4-0-7" />
  </g>
</svg>
