<?xml version="1.0" encoding="UTF-8" standalone="no"?>
<!-- Created with Inkscape (http://www.inkscape.org/) -->

<svg
   xmlns:dc="http://purl.org/dc/elements/1.1/"
   xmlns:cc="http://creativecommons.org/ns#"
   xmlns:rdf="http://www.w3.org/1999/02/22-rdf-syntax-ns#"
   xmlns:svg="http://www.w3.org/2000/svg"
   xmlns="http://www.w3.org/2000/svg"
   xmlns:sodipodi="http://sodipodi.sourceforge.net/DTD/sodipodi-0.dtd"
   xmlns:inkscape="http://www.inkscape.org/namespaces/inkscape"
   width="30.381552mm"
   height="41.73748mm"
   viewBox="0 0 30.381553 41.737481"
   version="1.1"
   id="svg2761"
   inkscape:version="0.92.4 (5da689c313, 2019-01-14)"
   sodipodi:docname="2.svg">
  <defs
     id="defs2755" />
  <sodipodi:namedview
     id="base"
     pagecolor="#ffffff"
     bordercolor="#666666"
     borderopacity="1.0"
     inkscape:pageopacity="0.0"
     inkscape:pageshadow="2"
     inkscape:zoom="1.4"
     inkscape:cx="177.49507"
     inkscape:cy="-152.64601"
     inkscape:document-units="mm"
     inkscape:current-layer="layer1"
     showgrid="false"
     fit-margin-top="0"
     fit-margin-left="0"
     fit-margin-right="0"
     fit-margin-bottom="0"
     inkscape:window-width="1600"
     inkscape:window-height="847"
     inkscape:window-x="-8"
     inkscape:window-y="22"
     inkscape:window-maximized="1" />
  <metadata
     id="metadata2758">
    <rdf:RDF>
      <cc:Work
         rdf:about="">
        <dc:format>image/svg+xml</dc:format>
        <dc:type
           rdf:resource="http://purl.org/dc/dcmitype/StillImage" />
        <dc:title></dc:title>
      </cc:Work>
    </rdf:RDF>
  </metadata>
  <g
     inkscape:label="Layer 1"
     inkscape:groupmode="layer"
     id="layer1"
     transform="translate(-88.398978,346.74173)">
    <path
       inkscape:connector-curvature="0"
       style="opacity:1;fill:#000000;stroke:none;stroke-width:8.22238445;stroke-miterlimit:4;stroke-dasharray:none"
       d="m 102.93273,-346.74173 -2.41329,0.002 c -0.44241,0.0406 -0.882735,0.10561 -1.319825,0.19482 -0.37151,0.0829 -0.74007,0.18348 -1.10535,0.30127 -0.52182,0.16828 -1.03622,0.37136 -1.54102,0.60926 -0.50487,0.23771 -0.99967,0.50994 -1.48259,0.81494 -0.4826,0.3052 -0.953,0.64297 -1.40869,1.01234 -0.45601,0.36922 -0.89686,0.76917 -1.32136,1.1989 -0.4245,0.42985 -0.8318,0.88901 -1.2206,1.37511 -0.3887,0.48618 -0.75843,0.99882 -1.10744,1.53634 -0.099,0.1317 -0.19294,0.26931 -0.28162,0.41289 l -0.0212,0.031 c -0.18259,0.29972 -0.34414,0.62002 -0.47593,0.96376 -0.12531,0.32753 -0.22228,0.66223 -0.29197,0.99839 -0.041,0.19632 -0.0529,0.39333 -0.0749,0.59015 v 0.29404 c -0.0241,0.3213 -0.023,0.63994 0,0.95394 v 0.31419 c 0.035,0.27379 0.0782,0.54572 0.14777,0.80564 0.067,0.25132 0.16007,0.48809 0.25789,0.7214 0.022,0.0404 0.0478,0.0777 0.0708,0.11679 0.38251,0.86272 0.97407,1.57781 1.74305,2.01125 1.66942,0.93787 3.69086,0.27012 4.89686,-1.61799 v 0.0129 c 0.0111,-0.0188 0.10877,-0.18043 0.11887,-0.19947 0.097,-0.15467 0.21493,-0.36187 0.31833,-0.86816 0.12578,-0.8698 0.27527,-1.5879 0.44285,-2.1854 0.063,-0.19704 0.13023,-0.3859 0.21344,-0.56792 0.4517,-2.50539 3.309845,-4.37575 6.690555,-4.37855 3.73269,5e-5 6.75854,2.26266 6.75822,5.05396 0,1.43571 -0.78716,2.87908 -2.21845,3.83594 0,-0.007 2.1e-4,-0.0136 0,-0.002 l -18.311545,14.52832 c -1.1525,0.91439 -1.71395,2.46725 -1.57613,3.98735 v 3.91707 c 0,0.0498 -0.0103,0.0985 -0.0103,0.14883 v 0.56328 c 0,0.0505 0,0.0993 0.0103,0.14934 v 0.30851 h 0.0156 c 0.1882,2.09252 1.64878,3.71975 3.45559,3.79305 0.042,-0.002 0.0831,-0.007 0.1261,-0.007 h 4.6731 v -0.003 h 7.781955 4.14806 6.99233 c 0.099,-0.0139 0.19712,-0.0287 0.29303,-0.0517 0.235,-0.0565 0.46177,-0.14055 0.67746,-0.24804 0.21561,-0.10746 0.42027,-0.23893 0.61185,-0.39171 0.19172,-0.15276 0.36989,-0.3269 0.53279,-0.51935 0.1628,-0.19245 0.30996,-0.40343 0.43924,-0.62994 0.12922,-0.22652 0.24087,-0.46853 0.33178,-0.72346 0.091,-0.25495 0.16148,-0.52222 0.20929,-0.79996 0.048,-0.27774 0.0729,-0.56548 0.0729,-0.86041 v -0.0181 -0.54518 -0.0181 -3.99356 c 0,-2.00673 -1.16409,-3.67645 -2.7399,-4.13204 -1.77771,2.4456 -4.36779,3.856 -7.0957,3.86333 -0.0101,0 -0.0191,0.003 -0.0289,0.004 h -0.31059 -4.14703 -4.02249 a 0.55541945,0.55541945 0 0 1 -0.458895,-0.54674 0.55541945,0.55541945 0 0 1 0.115235,-0.33693 l 14.4689,-11.47992 c 0,-0.005 -0.0101,-0.0111 -0.014,-0.0165 0.029,-0.0248 0.0593,-0.0502 0.0884,-0.0754 0.088,-0.0722 0.17465,-0.14599 0.26045,-0.2217 0.033,-0.0342 0.0657,-0.0687 0.0987,-0.10335 0.12409,-0.12307 0.24561,-0.24983 0.3643,-0.38034 0.083,-0.0834 0.16413,-0.16849 0.24443,-0.25528 0.031,-0.0394 0.062,-0.0794 0.093,-0.11937 0.1119,-0.1359 0.22112,-0.27506 0.32711,-0.41755 0.075,-0.0929 0.14877,-0.18732 0.22119,-0.28318 0.027,-0.0413 0.053,-0.0823 0.0791,-0.12403 0.1026,-0.15207 0.20185,-0.30736 0.29765,-0.4656 0.066,-0.0992 0.12944,-0.19994 0.19225,-0.30179 0.023,-0.0445 0.0462,-0.0889 0.0692,-0.13384 0.087,-0.16075 0.17169,-0.32455 0.25218,-0.49042 0.058,-0.10911 0.11522,-0.21926 0.17052,-0.33072 0.0201,-0.0488 0.0399,-0.0976 0.0599,-0.14676 0.071,-0.1645 0.13857,-0.33123 0.20257,-0.49971 0.051,-0.11972 0.10009,-0.24044 0.14729,-0.36226 0.0159,-0.0525 0.032,-0.10531 0.048,-0.15813 0.056,-0.17027 0.10893,-0.34186 0.15814,-0.51521 0.041,-0.12544 0.0791,-0.25172 0.11626,-0.37879 0.0119,-0.0527 0.023,-0.1057 0.0341,-0.15865 0.043,-0.18144 0.0819,-0.36447 0.11782,-0.54828 0.029,-0.12589 0.0561,-0.25231 0.0811,-0.37931 0.0101,-0.0519 0.014,-0.10352 0.0201,-0.15554 0.029,-0.19112 0.0529,-0.38306 0.0729,-0.57568 0.018,-0.12506 0.0341,-0.25052 0.0481,-0.3762 0,-0.0521 -1.8e-4,-0.10442 0.01,-0.15658 0.0249,-0.31998 0.0388,-0.64087 0.0408,-0.96222 -1.1e-4,-0.2645 -0.01,-0.5289 -0.0238,-0.79271 0,-0.0559 -0.0111,-0.11213 -0.0169,-0.16795 -0.014,-0.17589 -0.0317,-0.35119 -0.0537,-0.52607 -0.0119,-0.13969 -0.0265,-0.279 -0.0434,-0.41806 0,-0.0104 1.8e-4,-0.0206 -0.01,-0.031 l -0.0109,-0.0196 c -0.74192,-4.96192 -4.17489,-8.72425 -8.3902,-9.19479 -0.15018,-0.0288 -0.30248,-0.0504 -0.45837,-0.0568 h -0.0103 c -0.04,0.003 -0.0791,0.007 -0.11887,0.007 h -0.10748 c -0.054,-0.003 -0.10713,-0.005 -0.16071,-0.007 h -0.013 z"
       id="path1199" />
  </g>
</svg>
