<?xml version="1.0" encoding="UTF-8" standalone="no"?>
<!-- Created with Inkscape (http://www.inkscape.org/) -->

<svg
   xmlns:dc="http://purl.org/dc/elements/1.1/"
   xmlns:cc="http://creativecommons.org/ns#"
   xmlns:rdf="http://www.w3.org/1999/02/22-rdf-syntax-ns#"
   xmlns:svg="http://www.w3.org/2000/svg"
   xmlns="http://www.w3.org/2000/svg"
   xmlns:sodipodi="http://sodipodi.sourceforge.net/DTD/sodipodi-0.dtd"
   xmlns:inkscape="http://www.inkscape.org/namespaces/inkscape"
   width="35.10392mm"
   height="41.741749mm"
   viewBox="0 0 35.103921 41.74175"
   version="1.1"
   id="svg2761"
   inkscape:version="0.92.4 (5da689c313, 2019-01-14)"
   sodipodi:docname="3.svg">
  <defs
     id="defs2755" />
  <sodipodi:namedview
     id="base"
     pagecolor="#ffffff"
     bordercolor="#666666"
     borderopacity="1.0"
     inkscape:pageopacity="0.0"
     inkscape:pageshadow="2"
     inkscape:zoom="1.4"
     inkscape:cx="66.338137"
     inkscape:cy="78.88206"
     inkscape:document-units="mm"
     inkscape:current-layer="layer1"
     showgrid="false"
     fit-margin-top="0"
     fit-margin-left="0"
     fit-margin-right="0"
     fit-margin-bottom="0"
     inkscape:window-width="1600"
     inkscape:window-height="847"
     inkscape:window-x="-8"
     inkscape:window-y="22"
     inkscape:window-maximized="1" />
  <metadata
     id="metadata2758">
    <rdf:RDF>
      <cc:Work
         rdf:about="">
        <dc:format>image/svg+xml</dc:format>
        <dc:type
           rdf:resource="http://purl.org/dc/dcmitype/StillImage" />
        <dc:title></dc:title>
      </cc:Work>
    </rdf:RDF>
  </metadata>
  <g
     inkscape:label="Layer 1"
     inkscape:groupmode="layer"
     id="layer1"
     transform="translate(-117.80925,285.48753)">
    <path
       style="opacity:1;fill:#000000;stroke:none;stroke-width:9.24415588;stroke-miterlimit:4;stroke-dasharray:none"
       d="m 134.13674,-285.48727 c -2.98978,9.5e-4 -5.87148,0.24139 -8.08531,0.67411 -0.38721,0.0619 -0.72409,0.1382 -1.02889,0.22733 -1.14224,0.28376 -1.98523,0.61718 -2.47065,0.97787 -0.0356,0.0141 -0.0661,0.0277 -0.10282,0.0419 -1.09302,0.42887 -1.99186,1.23781 -2.59209,1.8542 -0.54697,0.83123 -0.78034,1.17667 -1.04852,1.9242 -0.26802,0.74705 -0.47755,1.4496 -0.62682,2.23588 -0.0629,0.34673 -6.4e-4,0.60596 -0.0243,0.75548 l -0.007,0.033 h 0.003 c -0.047,0.31078 -0.0635,0.6272 -0.0398,0.94535 0.17182,2.27225 3.36949,4.9873 5.6787,5.07186 v -9.6e-4 c 0.15396,0.006 0.30974,0.004 0.46665,-0.006 2.09219,-0.13025 3.80788,-1.62213 4.15634,-3.61466 l 5.2e-4,0.0118 c 0.002,-0.0192 0.0264,-0.18696 0.0284,-0.20613 0.0266,-0.16219 0.0503,-0.37423 -0.076,-0.79987 -0.12025,-0.31591 -0.26495,-0.47227 -0.34985,-0.74957 -0.20336,-0.59072 -0.23966,-0.88827 0.0589,-1.30434 1.35821,-1.53364 3.68501,-2.58998 6.34791,-2.88185 0.30213,-0.002 0.60137,-0.008 0.90022,-0.0148 0.0452,0.008 0.0897,0.0165 0.14004,0.0197 4.06895,0.48224 7.29951,3.09334 7.30239,5.79679 1.9e-4,2.61906 -2.02998,5.15067 -5.55987,5.97577 -0.42415,0.04 -0.85712,0.0616 -1.2981,0.0616 -1.61438,-0.003 -3.19849,-0.28819 -4.58888,-0.8275 -2.20797,0.0905 -3.94671,1.72432 -3.94806,3.70985 8.8e-4,0.0568 0.003,0.11347 0.007,0.17013 h 0.016 c 0.10356,2.09107 1.85513,3.78317 4.0685,3.87949 1.43642,-0.59177 3.07351,-0.90518 4.74131,-0.90785 0.2146,0 0.42669,0.007 0.6377,0.0168 4.27603,0.4499 6.5201,3.53644 6.51999,6.45362 -0.003,3.00565 -2.31238,6.03922 -7.0073,6.5636 -0.55624,-0.0216 -1.11673,-0.038 -1.68466,-0.0414 -2.75087,-0.32033 -5.15456,-1.47949 -6.55775,-3.16244 -0.30845,-0.45662 -0.27104,-0.78331 -0.061,-1.43159 0.0877,-0.30429 0.23699,-0.47586 0.36121,-0.82255 0.13047,-0.46709 0.10641,-0.69976 0.0791,-0.87776 -0.002,-0.021 -0.027,-0.20529 -0.0294,-0.22635 l -5.2e-4,0.0133 c -0.35997,-2.18669 -2.13236,-3.8243 -4.2938,-3.96726 -0.16207,-0.0106 -0.32307,-0.0132 -0.48211,-0.007 -2.38565,0.0928 -5.68932,3.07231 -5.86686,5.56599 -0.0245,0.34916 -0.007,0.6965 0.0414,1.03756 h -0.003 l 0.007,0.036 c 0.0245,0.16404 0.0574,0.32611 0.0982,0.48621 0.15341,0.85821 0.2322,1.63192 0.5111,2.38085 0.28209,0.7575 0.76565,1.48965 1.16374,2.25905 0.28186,0.55399 1.53219,1.83279 2.66134,2.30341 0.0379,0.0156 0.0691,0.0303 0.10594,0.0459 0.50146,0.39587 1.37273,0.76213 2.55284,1.07355 0.31482,0.0978 0.66294,0.18163 1.06295,0.24952 2.28709,0.4749 5.26379,0.73855 8.35248,0.7397 4.76607,-0.003 9.11105,-0.62471 11.19208,-1.60564 0.78589,-0.32132 1.53826,-0.7211 2.24274,-1.1988 l -1.14824,-0.88715 c 1.9e-4,-1.5e-4 2.7e-4,-2.6e-4 5.3e-4,-5.3e-4 l 1.14773,0.88667 c 3.19842,-2.1619 5.1008,-5.66876 5.10408,-9.409 -0.006,-3.97201 -2.15196,-7.662 -5.68079,-9.76846 0.0304,-0.0229 -0.0199,-0.0481 -0.0961,-0.074 3.09221,-1.96496 4.93517,-5.15234 4.94647,-8.55487 -0.003,-3.40811 -1.84441,-6.6036 -4.94028,-8.57361 l -1.0573,0.76827 1.0573,-0.76927 c -0.68195,-0.43525 -1.41075,-0.79946 -2.17145,-1.09224 -2.01438,-0.89382 -6.22006,-1.46026 -10.83344,-1.46312 z m -6.2844,4.8105 c 3e-4,6e-5 7.7e-4,-5e-5 0.001,0 -0.005,0.005 -0.011,0.008 -0.016,0.0114 -0.29134,0.21855 -0.56613,0.45422 -0.82373,0.70618 -0.0722,0.0888 -0.13539,0.17393 -0.18965,0.2574 0.0543,-0.0836 0.11726,-0.16944 0.18965,-0.2584 0.2576,-0.25197 0.53239,-0.48762 0.82373,-0.70617 0.005,-0.004 0.01,-0.007 0.015,-0.0104 z m 11.28771,0.68645 c 6.6e-4,1.6e-4 0.001,3e-4 0.002,4.8e-4 0.27284,0.19256 0.54068,0.39511 0.80201,0.60853 l -5e-4,4.8e-4 c -0.262,-0.21391 -0.53005,-0.41661 -0.80358,-0.60949 z m -12.31605,0.28898 c -0.0543,0.0837 -0.10011,0.16537 -0.1385,0.24458 -0.0386,0.0792 -0.0698,0.15611 -0.0946,0.23178 0.0249,-0.0759 0.056,-0.15313 0.0946,-0.23277 0.0384,-0.079 0.0843,-0.16 0.1385,-0.24359 z m -0.24599,29.08251 c 0.0256,0.083 0.0579,0.16752 0.0977,0.25446 0.0795,0.17386 0.18944,0.35653 0.33897,0.55182 0.26613,0.27652 0.55015,0.53489 0.85112,0.77473 0.005,0.004 0.0111,0.008 0.0165,0.0123 -2.6e-4,4e-5 -8e-4,-5e-5 -0.001,0 -0.005,-0.004 -0.0104,-0.008 -0.0155,-0.0113 -0.30096,-0.23984 -0.58499,-0.4982 -0.85111,-0.77473 -0.14954,-0.19529 -0.25953,-0.37797 -0.33898,-0.55179 -0.0399,-0.0873 -0.072,-0.1722 -0.0977,-0.25548 z m 13.86789,0.0163 0.47181,0.36441 c -2.2e-4,1e-4 -3.2e-4,5.3e-4 -5e-4,5.3e-4 l -0.47078,-0.36393 c -0.36126,0.31339 -0.73467,0.6046 -1.11673,0.87681 -0.001,2.3e-4 -0.002,2.3e-4 -0.003,5.3e-4 0.38293,-0.27268 0.75729,-0.56422 1.11932,-0.87826 z m 1.16583,0.90046 0.001,0.001 c -1.4e-4,8e-5 -4.3e-4,-8e-5 -5.3e-4,0 l -0.001,-5.3e-4 c 1.9e-4,-1.2e-4 3.2e-4,-2.5e-4 5.3e-4,-5.3e-4 z"
       id="path2356"
       inkscape:connector-curvature="0"
       inkscape:export-filename="D:\fonnn\path2356.png"
       inkscape:export-xdpi="96"
       inkscape:export-ydpi="96" />
  </g>
</svg>
