<?xml version="1.0" encoding="UTF-8" standalone="no"?>
<!-- Created with Inkscape (http://www.inkscape.org/) -->

<svg
   xmlns:dc="http://purl.org/dc/elements/1.1/"
   xmlns:cc="http://creativecommons.org/ns#"
   xmlns:rdf="http://www.w3.org/1999/02/22-rdf-syntax-ns#"
   xmlns:svg="http://www.w3.org/2000/svg"
   xmlns="http://www.w3.org/2000/svg"
   xmlns:sodipodi="http://sodipodi.sourceforge.net/DTD/sodipodi-0.dtd"
   xmlns:inkscape="http://www.inkscape.org/namespaces/inkscape"
   width="36.506649mm"
   height="41.742229mm"
   viewBox="0 0 36.506651 41.74223"
   version="1.1"
   id="svg2761"
   inkscape:version="0.92.4 (5da689c313, 2019-01-14)"
   sodipodi:docname="4.svg">
  <defs
     id="defs2755" />
  <sodipodi:namedview
     id="base"
     pagecolor="#ffffff"
     bordercolor="#666666"
     borderopacity="1.0"
     inkscape:pageopacity="0.0"
     inkscape:pageshadow="2"
     inkscape:zoom="1.4"
     inkscape:cx="31.484583"
     inkscape:cy="-29.477335"
     inkscape:document-units="mm"
     inkscape:current-layer="layer1"
     showgrid="false"
     fit-margin-top="0"
     fit-margin-left="0"
     fit-margin-right="0"
     fit-margin-bottom="0"
     inkscape:window-width="1600"
     inkscape:window-height="847"
     inkscape:window-x="-8"
     inkscape:window-y="22"
     inkscape:window-maximized="1" />
  <metadata
     id="metadata2758">
    <rdf:RDF>
      <cc:Work
         rdf:about="">
        <dc:format>image/svg+xml</dc:format>
        <dc:type
           rdf:resource="http://purl.org/dc/dcmitype/StillImage" />
        <dc:title></dc:title>
      </cc:Work>
    </rdf:RDF>
  </metadata>
  <g
     inkscape:label="Layer 1"
     inkscape:groupmode="layer"
     id="layer1"
     transform="translate(-127.03092,314.1581)">
    <path
       inkscape:connector-curvature="0"
       style="opacity:1;fill:#000000;stroke:none;stroke-width:8.68271542;stroke-miterlimit:4;stroke-dasharray:none"
       d="m 150.31802,-314.1581 c -0.009,0 -0.0175,0.002 -0.0265,0.002 -0.0143,9e-5 -0.0284,-0.001 -0.0429,-0.001 -0.0289,5.3e-4 -0.0588,0.006 -0.0878,0.007 -0.088,0.003 -0.17659,0.005 -0.26305,0.0134 -1.19512,0.11947 -2.23576,0.74468 -2.90989,1.6583 -0.004,0.004 -0.008,0.008 -0.0119,0.0124 l -5.30926,6.02702 -8.04394,9.13174 -5.30871,6.02754 c -0.26432,0.30005 -0.48617,0.61755 -0.66974,0.94258 -0.38674,0.46275 -0.61341,1.00656 -0.61341,1.59163 v 0.40153 c 0,0.0246 0.005,0.0484 0.005,0.0729 -0.0228,0.83572 0.24472,1.59386 0.82476,2.10479 l 0.30126,0.26561 c 0.59211,0.52157 1.39874,0.68718 2.2438,0.54364 0.24709,0.0336 0.50098,0.0532 0.7617,0.0532 h 8.03207 5.38985 a 1.5904367,1.5904371 0 0 1 0.11266,0.004 1.5904367,1.5904371 0 0 1 0.15762,0.0191 1.5904367,1.5904371 0 0 1 0.15555,0.0346 1.5904367,1.5904371 0 0 1 0.15089,0.0501 1.5904367,1.5904371 0 0 1 0.1447,0.0651 1.5904367,1.5904371 0 0 1 0.13798,0.0791 1.5904367,1.5904371 0 0 1 0.12919,0.0925 1.5904367,1.5904371 0 0 1 0.11989,0.1049 1.5904367,1.5904371 0 0 1 0.108,0.11628 1.5904367,1.5904371 0 0 1 0.0961,0.1266 1.5904367,1.5904371 0 0 1 0.0832,0.13539 1.5904367,1.5904371 0 0 1 0.0687,0.14315 1.5904367,1.5904371 0 0 1 0.0543,0.14934 1.5904367,1.5904371 0 0 1 0.0387,0.154 1.5904367,1.5904371 0 0 1 0.0161,0.10387 v 0.185 a 1.32022,3.2815255 0 0 1 0,0.0331 10.77232,10.77232 0 0 1 -3.75224,8.14628 c 0.44251,1.80903 2.06401,3.14554 4.0132,3.14554 h 3.87262 0.018 0.54674 0.0175 3.87885 c 1.94918,0 3.57068,-1.3365 4.01317,-3.14554 a 10.77232,10.77232 0 0 1 -3.75222,-8.14628 1.32022,3.2815255 0 0 1 0,-0.0331 v -0.19327 a 1.5904367,1.5904371 0 0 1 0.0146,-0.0956 1.5904367,1.5904371 0 0 1 0.0393,-0.154 1.5904367,1.5904371 0 0 1 0.0543,-0.14934 1.5904367,1.5904371 0 0 1 0.0692,-0.14315 1.5904367,1.5904371 0 0 1 0.0832,-0.13539 1.5904367,1.5904371 0 0 1 0.0961,-0.1266 1.5904367,1.5904371 0 0 1 0.10853,-0.11628 1.5904367,1.5904371 0 0 1 0.11938,-0.1049 1.5904367,1.5904371 0 0 1 0.12919,-0.0925 1.5904367,1.5904371 0 0 1 0.13796,-0.0791 1.5904367,1.5904371 0 0 1 0.14523,-0.0651 1.5904367,1.5904371 0 0 1 0.15089,-0.0501 1.5904367,1.5904371 0 0 1 0.15502,-0.0346 1.5904367,1.5904371 0 0 1 0.15761,-0.0191 1.5904367,1.5904371 0 0 1 0.11266,-0.004 h 2.80914 c 2.29163,0 4.1367,-1.35606 4.1367,-3.04012 v -0.40153 c 0,-1.68406 -1.84507,-3.04012 -4.1367,-3.04012 h -2.80914 a 1.5904367,1.5904371 0 0 1 -0.11266,-0.004 1.5904367,1.5904371 0 0 1 -0.15761,-0.0191 1.5904367,1.5904371 0 0 1 -0.15502,-0.0346 1.5904367,1.5904371 0 0 1 -0.15089,-0.0501 1.5904367,1.5904371 0 0 1 -0.14523,-0.0651 1.5904367,1.5904371 0 0 1 -0.13796,-0.0791 1.5904367,1.5904371 0 0 1 -0.12919,-0.0925 1.5904367,1.5904371 0 0 1 -0.11938,-0.1049 1.5904367,1.5904371 0 0 1 -0.10853,-0.11627 1.5904367,1.5904371 0 0 1 -0.0961,-0.12661 1.5904367,1.5904371 0 0 1 -0.0832,-0.13539 1.5904367,1.5904371 0 0 1 -0.0692,-0.14314 1.5904367,1.5904371 0 0 1 -0.0543,-0.14935 1.5904367,1.5904371 0 0 1 -0.0393,-0.15399 1.5904367,1.5904371 0 0 1 -0.0238,-0.1571 1.5904367,1.5904371 0 0 1 -0.008,-0.15916 v -16.64498 c 0,-2.14984 -1.62367,-3.90629 -3.71657,-4.11551 -0.13941,-0.0142 -0.28044,-0.0212 -0.42376,-0.0212 z m -5.23637,14.15676 a 1.122532,1.122532 0 0 1 0.0164,0 1.122532,1.122532 0 0 1 1.08313,0.83199 v 5.79293 a 1.5904367,1.5904371 0 0 1 -0.01,0.15916 1.5904367,1.5904371 0 0 1 -0.0243,0.1571 1.5904367,1.5904371 0 0 1 -0.0387,0.15399 1.5904367,1.5904371 0 0 1 -0.0543,0.14935 1.5904367,1.5904371 0 0 1 -0.0687,0.14314 1.5904367,1.5904371 0 0 1 -0.0832,0.13539 1.5904367,1.5904371 0 0 1 -0.0961,0.12661 1.5904367,1.5904371 0 0 1 -0.10801,0.11627 1.5904367,1.5904371 0 0 1 -0.11988,0.1049 1.5904367,1.5904371 0 0 1 -0.12919,0.0925 1.5904367,1.5904371 0 0 1 -0.13798,0.0791 1.5904367,1.5904371 0 0 1 -0.14471,0.0651 1.5904367,1.5904371 0 0 1 -0.15089,0.0501 1.5904367,1.5904371 0 0 1 -0.15555,0.0346 1.5904367,1.5904371 0 0 1 -0.15761,0.0191 1.5904367,1.5904371 0 0 1 -0.11266,0.004 h -3.96306 a 1.5709701,1.5709701 0 0 1 -1.37356,-1.55701 1.5709701,1.5709701 0 0 1 0.22686,-0.8077 l 4.97334,-5.64565 a 1.122532,1.122532 0 0 1 0.62839,-0.20516 z"
       id="rect826-90-3-4-0-0" />
  </g>
</svg>
