<?xml version="1.0" encoding="UTF-8" standalone="no"?>
<!-- Created with Inkscape (http://www.inkscape.org/) -->

<svg
   xmlns:dc="http://purl.org/dc/elements/1.1/"
   xmlns:cc="http://creativecommons.org/ns#"
   xmlns:rdf="http://www.w3.org/1999/02/22-rdf-syntax-ns#"
   xmlns:svg="http://www.w3.org/2000/svg"
   xmlns="http://www.w3.org/2000/svg"
   xmlns:sodipodi="http://sodipodi.sourceforge.net/DTD/sodipodi-0.dtd"
   xmlns:inkscape="http://www.inkscape.org/namespaces/inkscape"
   width="34.32962mm"
   height="41.742702mm"
   viewBox="0 0 34.329622 41.742703"
   version="1.1"
   id="svg2761"
   inkscape:version="0.92.4 (5da689c313, 2019-01-14)"
   sodipodi:docname="5.svg">
  <defs
     id="defs2755" />
  <sodipodi:namedview
     id="base"
     pagecolor="#ffffff"
     bordercolor="#666666"
     borderopacity="1.0"
     inkscape:pageopacity="0.0"
     inkscape:pageshadow="2"
     inkscape:zoom="1.4"
     inkscape:cx="189.57386"
     inkscape:cy="-135.83799"
     inkscape:document-units="mm"
     inkscape:current-layer="layer1"
     showgrid="false"
     fit-margin-top="0"
     fit-margin-left="0"
     fit-margin-right="0"
     fit-margin-bottom="0"
     inkscape:window-width="1600"
     inkscape:window-height="847"
     inkscape:window-x="-8"
     inkscape:window-y="22"
     inkscape:window-maximized="1" />
  <metadata
     id="metadata2758">
    <rdf:RDF>
      <cc:Work
         rdf:about="">
        <dc:format>image/svg+xml</dc:format>
        <dc:type
           rdf:resource="http://purl.org/dc/dcmitype/StillImage" />
        <dc:title></dc:title>
      </cc:Work>
    </rdf:RDF>
  </metadata>
  <g
     inkscape:label="Layer 1"
     inkscape:groupmode="layer"
     id="layer1"
     transform="translate(-85.203131,380.09745)">
    <path
       inkscape:connector-curvature="0"
       style="opacity:1;fill:#000000;stroke:none;stroke-width:8.28523636;stroke-miterlimit:4;stroke-dasharray:none"
       d="m 104.3874,-380.09707 -11.298027,0.002 c -2.174373,0 -3.924803,1.77054 -3.924803,3.96978 v 0.52503 0.30851 5.20537 3.30109 1.90428 1.03301 c 0,0.14798 0.01032,0.29349 0.02487,0.43718 -0.01005,0.11307 -0.01614,0.22688 -0.01614,0.34261 v 0.52452 c 0,2.11205 1.615573,3.82461 3.669533,3.95738 a 12.457854,11.203777 0 0 0 -0.0341,0.15451 9.5955022,7.5966352 0 0 1 6.847126,-2.28461 9.5955022,7.5966352 0 0 1 9.595271,7.59643 9.5955022,7.5966352 0 0 1 -9.595271,7.59696 9.5955022,7.5966352 0 0 1 -3.84265,-0.64441 c -0.102076,-0.0472 -0.202803,-0.0889 -0.300778,-0.11576 -0.847408,-0.45325 -1.07868,-0.86816 -1.340485,-1.44332 -0.219842,-0.54464 -0.426191,-1.20214 -0.614415,-2.00298 -0.143193,-0.46409 -0.28665,-0.64914 -0.403093,-0.78651 -0.01217,-0.017 -0.12999,-0.16114 -0.14314,-0.17777 l 0.0066,0.0124 c -0.851297,-0.98423 -1.993186,-1.55193 -3.157432,-1.65778 -0.0335,-0.003 -0.06673,-0.007 -0.10025,-0.009 -0.0409,-0.003 -0.082,-0.01 -0.122979,-0.0114 -0.399547,-0.0157 -0.799571,0.0258 -1.189593,0.12298 -0.01217,0.003 -0.02461,0.006 -0.0367,0.009 -0.08779,0.0226 -0.174387,0.0489 -0.260958,0.0775 -0.02781,0.009 -0.05601,0.0187 -0.08371,0.0284 -0.0725,0.0257 -0.144092,0.0538 -0.215503,0.0837 -0.03119,0.0129 -0.06252,0.025 -0.09353,0.0388 -0.09761,0.0437 -0.194257,0.0903 -0.289401,0.14211 -2.170483,1.18497 -2.909914,4.05797 -1.650524,6.41718 0.08279,0.15473 0.174123,0.30364 0.271807,0.447 0.09771,0.14338 0.201718,0.28128 0.311599,0.41393 h -0.0032 a 18.058545,20.251952 6.0694566 0 0 0.0254,0.0269 c 0.106707,0.1269 0.218811,0.24754 0.336418,0.36277 a 18.058545,20.251952 6.0694566 0 0 0.0077,0.008 c 0.400553,0.45326 0.821055,0.87997 1.256268,1.28468 a 18.058545,20.251952 6.0694566 0 0 0.12454,0.1142 c 0.416269,0.37988 0.84664,0.7375 1.290875,1.07177 a 18.058545,20.251952 6.0694566 0 0 0.121444,0.092 c 0.462545,0.34185 0.939271,0.65876 1.428327,0.94982 a 18.058545,20.251952 6.0694566 0 0 0.165867,0.0951 c 0.45802,0.26559 0.926677,0.50873 1.404567,0.72864 a 18.058545,20.251952 6.0694566 0 0 0.214974,0.0982 c 0.499983,0.22146 1.009385,0.41943 1.527572,0.58962 a 18.058545,20.251952 6.0694566 0 0 0.157612,0.0501 c 0.505301,0.16032 1.018911,0.2944 1.538394,0.40463 a 18.058545,20.251952 6.0694566 0 0 0.326601,0.0661 c 0.302684,0.0577 0.606584,0.10843 0.91313,0.14883 a 18.058545,20.251952 6.0694566 0 0 0.129699,0.0217 h 0.0032 a 18.058545,20.251952 6.0694566 0 0 19.786918,-15.32052 h -0.004 a 12.457854,11.203777 0 0 0 0.22944,-2.11459 12.457854,11.203777 0 0 0 -11.03294,-11.11612 v -0.0227 h -0.20772 a 12.457854,11.203777 0 0 0 -1.21751,-0.0651 12.457854,11.203777 0 0 0 -1.30947,0.0651 h -3.36982 a 2.7111007,2.7111013 0 0 1 -0.19171,-0.007 2.7111007,2.7111013 0 0 1 -0.269244,-0.0326 2.7111007,2.7111013 0 0 1 -0.26408,-0.0594 2.7111007,2.7111013 0 0 1 -0.257334,-0.0858 2.7111007,2.7111013 0 0 1 -0.247544,-0.11059 2.7111007,2.7111013 0 0 1 -0.235109,-0.13487 2.7111007,2.7111013 0 0 1 -0.22016,-0.15762 2.7111007,2.7111013 0 0 1 -0.203597,-0.1788 2.7111007,2.7111013 0 0 1 -0.184494,-0.19843 2.7111007,2.7111013 0 0 1 -0.164332,-0.21549 2.7111007,2.7111013 0 0 1 -0.141579,-0.231 2.7111007,2.7111013 0 0 1 -0.117819,-0.24391 2.7111007,2.7111013 0 0 1 -0.09303,-0.25476 2.7111007,2.7111013 0 0 1 -0.06718,-0.26252 2.7111007,2.7111013 0 0 1 -0.01852,-0.12402 2.7111007,2.7111013 0 0 1 0.01852,-0.12351 2.7111007,2.7111013 0 0 1 0.06718,-0.26304 2.7111007,2.7111013 0 0 1 0.09303,-0.25424 2.7111007,2.7111013 0 0 1 0.117819,-0.24392 2.7111007,2.7111013 0 0 1 0.141579,-0.23099 2.7111007,2.7111013 0 0 1 0.164332,-0.21601 2.7111007,2.7111013 0 0 1 0.184494,-0.19843 2.7111007,2.7111013 0 0 1 0.203597,-0.17881 2.7111007,2.7111013 0 0 1 0.22016,-0.15761 2.7111007,2.7111013 0 0 1 0.235109,-0.13487 2.7111007,2.7111013 0 0 1 0.247544,-0.11059 2.7111007,2.7111013 0 0 1 0.257334,-0.0853 2.7111007,2.7111013 0 0 1 0.26408,-0.0594 2.7111007,2.7111013 0 0 1 0.269244,-0.0325 2.7111007,2.7111013 0 0 1 0.19171,-0.007 h 11.32179 a 7.5939576,7.6807772 0 0 0 0.37206,0.0134 7.5939576,7.6807772 0 0 0 0.26561,-0.0134 h 0.0538 c 0.14478,0 0.28723,-0.009 0.42788,-0.0248 a 7.5939576,7.6807772 0 0 0 6.8466,-7.64295 7.5939576,7.6807772 0 0 0 -0.0491,-0.79685 h -7.2254 z"
       id="rect826-0-6-8" />
  </g>
</svg>
