<?xml version="1.0" encoding="UTF-8" standalone="no"?>
<!-- Created with Inkscape (http://www.inkscape.org/) -->

<svg
   xmlns:dc="http://purl.org/dc/elements/1.1/"
   xmlns:cc="http://creativecommons.org/ns#"
   xmlns:rdf="http://www.w3.org/1999/02/22-rdf-syntax-ns#"
   xmlns:svg="http://www.w3.org/2000/svg"
   xmlns="http://www.w3.org/2000/svg"
   xmlns:sodipodi="http://sodipodi.sourceforge.net/DTD/sodipodi-0.dtd"
   xmlns:inkscape="http://www.inkscape.org/namespaces/inkscape"
   width="35.974022mm"
   height="41.742149mm"
   viewBox="0 0 35.974024 41.74215"
   version="1.1"
   id="svg2761"
   inkscape:version="0.92.4 (5da689c313, 2019-01-14)"
   sodipodi:docname="6.svg">
  <defs
     id="defs2755" />
  <sodipodi:namedview
     id="base"
     pagecolor="#ffffff"
     bordercolor="#666666"
     borderopacity="1.0"
     inkscape:pageopacity="0.0"
     inkscape:pageshadow="2"
     inkscape:zoom="1.4"
     inkscape:cx="216.84185"
     inkscape:cy="-175.43611"
     inkscape:document-units="mm"
     inkscape:current-layer="layer1"
     showgrid="false"
     fit-margin-top="0"
     fit-margin-left="0"
     fit-margin-right="0"
     fit-margin-bottom="0"
     inkscape:window-width="1600"
     inkscape:window-height="847"
     inkscape:window-x="-8"
     inkscape:window-y="22"
     inkscape:window-maximized="1" />
  <metadata
     id="metadata2758">
    <rdf:RDF>
      <cc:Work
         rdf:about="">
        <dc:format>image/svg+xml</dc:format>
        <dc:type
           rdf:resource="http://purl.org/dc/dcmitype/StillImage" />
        <dc:title></dc:title>
      </cc:Work>
    </rdf:RDF>
  </metadata>
  <g
     inkscape:label="Layer 1"
     inkscape:groupmode="layer"
     id="layer1"
     transform="translate(-77.988477,352.77628)">
    <path
       inkscape:connector-curvature="0"
       style="opacity:1;fill:#000000;stroke:none;stroke-width:8.35705376;stroke-miterlimit:4;stroke-dasharray:none"
       d="m 96.895837,-352.77628 a 18.907196,20.71716 0 0 0 -18.90736,20.71708 18.907196,20.71716 0 0 0 17.71777,20.67109 14.918125,13.439782 0 0 0 3.3383,0.35398 14.918125,13.439782 0 0 0 14.917953,-13.44 14.918125,13.439782 0 0 0 -14.917953,-13.43949 14.918125,13.439782 0 0 0 -8.85166,2.6541 v -0.0139 a 1.1575521,1.1575521 0 0 1 -0.65318,0.20361 1.1575521,1.1575521 0 0 1 -1.15755,-1.15755 1.1575521,1.1575521 0 0 1 0.007,-0.12351 c 1.36925,-5.09812 5.38256,-8.79016 10.12291,-8.79016 0.38952,0.006 0.77814,0.0368 1.16478,0.0935 0.973643,0.25516 1.325033,0.73942 1.667083,1.29192 0.29475,0.52652 0.58912,1.16946 0.88212,1.96008 0.20521,0.45407 0.37693,0.62496 0.5147,0.75034 0.0151,0.0158 0.1543,0.14746 0.17002,0.16278 l -0.008,-0.0114 c 1.71032,1.52608 4.15153,1.74082 5.91437,0.52038 2.11333,-1.4669 2.53344,-4.47483 0.93739,-6.71845 -0.20981,-0.29431 -0.45035,-0.56075 -0.71107,-0.80357 l 0.003,-0.001 a 18.907196,20.71716 0 0 0 -0.0289,-0.0243 c -0.12641,-0.11604 -0.25738,-0.22584 -0.39375,-0.32866 a 18.907196,20.71716 0 0 0 -11.725913,-4.52686 z m 0.37415,21.6147 a 8.6748562,6.7523545 0 0 1 8.674923,6.75256 8.6748562,6.7523545 0 0 1 -8.674923,6.75256 8.6748562,6.7523545 0 0 1 -8.67492,-6.75256 8.6748562,6.7523545 0 0 1 8.67492,-6.75256 z"
       id="path1814-8" />
  </g>
</svg>
