<?xml version="1.0" encoding="UTF-8" standalone="no"?>
<!-- Created with Inkscape (http://www.inkscape.org/) -->

<svg
   xmlns:dc="http://purl.org/dc/elements/1.1/"
   xmlns:cc="http://creativecommons.org/ns#"
   xmlns:rdf="http://www.w3.org/1999/02/22-rdf-syntax-ns#"
   xmlns:svg="http://www.w3.org/2000/svg"
   xmlns="http://www.w3.org/2000/svg"
   xmlns:sodipodi="http://sodipodi.sourceforge.net/DTD/sodipodi-0.dtd"
   xmlns:inkscape="http://www.inkscape.org/namespaces/inkscape"
   width="35.274559mm"
   height="42.0392mm"
   viewBox="0 0 35.274561 42.0392"
   version="1.1"
   id="svg2761"
   inkscape:version="0.92.4 (5da689c313, 2019-01-14)"
   sodipodi:docname="7.svg">
  <defs
     id="defs2755" />
  <sodipodi:namedview
     id="base"
     pagecolor="#ffffff"
     bordercolor="#666666"
     borderopacity="1.0"
     inkscape:pageopacity="0.0"
     inkscape:pageshadow="2"
     inkscape:zoom="1.4"
     inkscape:cx="82.430876"
     inkscape:cy="-139.31891"
     inkscape:document-units="mm"
     inkscape:current-layer="layer1"
     showgrid="false"
     fit-margin-top="0"
     fit-margin-left="0"
     fit-margin-right="0"
     fit-margin-bottom="0"
     inkscape:window-width="1600"
     inkscape:window-height="847"
     inkscape:window-x="-8"
     inkscape:window-y="22"
     inkscape:window-maximized="1" />
  <metadata
     id="metadata2758">
    <rdf:RDF>
      <cc:Work
         rdf:about="">
        <dc:format>image/svg+xml</dc:format>
        <dc:type
           rdf:resource="http://purl.org/dc/dcmitype/StillImage" />
        <dc:title></dc:title>
      </cc:Work>
    </rdf:RDF>
  </metadata>
  <g
     inkscape:label="Layer 1"
     inkscape:groupmode="layer"
     id="layer1"
     transform="translate(-113.55138,343.51732)">
    <path
       inkscape:connector-curvature="0"
       style="opacity:1;fill:#000000;stroke:none;stroke-width:5.54200029;stroke-miterlimit:4;stroke-dasharray:none"
       d="m 121.25737,-343.51722 c -3.77624,0.001 -6.99511,2.17237 -7.60262,5.12837 -0.0659,0.23314 -0.10337,0.47516 -0.10337,0.7245 v 0.2589 0.70797 2.15852 0.003 c 0,1.18332 1.20084,2.13527 2.69288,2.13527 1.15675,0 2.1364,-0.5735 2.51923,-1.38235 1.39062,-1.71324 3.72768,-2.73551 6.35359,-2.73885 0.30867,0.002 0.69544,0 1.02217,0 h 0.0672 0.99218 1.70276 2.66443 3.52899 a 1.7960065,1.7960065 0 0 1 1.45984,1.76372 1.7960065,1.7960065 0 0 1 -0.14211,0.69453 l -4.86172,9.09609 a 1.0335287,1.0335287 0 0 1 0,0.001 l -0.0832,0.15607 a 1.0335287,1.0335287 0 0 1 -0.68678,0.45888 h -7.31893 c -1.5103,0 -2.72592,1.21616 -2.72592,2.72645 0,1.51029 1.21562,2.72593 2.72592,2.72593 h 3.80598 a 0.80201823,0.80201823 0 0 1 0.5426,0.7581 0.80201823,0.80201823 0 0 1 -0.0398,0.24649 l -5.15422,9.64334 c -1.20152,2.24792 -0.35914,5.02445 1.88879,6.22598 2.24792,1.20153 5.02496,0.35915 6.22649,-1.88877 l 7.81605,-14.62237 a 1.0335287,1.0335287 0 0 1 0.55965,-0.36277 h 6.41149 c 1.51029,0 2.72645,-1.21564 2.72645,-2.72593 0,-1.51029 -1.21616,-2.72645 -2.72645,-2.72645 h -2.73418 a 0.80201823,0.80201823 0 0 1 -0.62838,-0.78238 0.80201823,0.80201823 0 0 1 0.0284,-0.20774 l 6.09471,-11.40189 c 1.06399,-1.99057 0.52258,-4.39364 -1.17563,-5.75262 -0.3135,-0.26174 -0.6799,-0.48238 -1.08778,-0.6506 -0.0744,-0.0317 -0.14965,-0.0583 -0.22481,-0.0858 -0.0348,-0.0123 -0.0691,-0.0251 -0.10438,-0.0367 -0.5034,-0.17061 -1.02016,-0.25309 -1.53168,-0.24599 -0.0169,-1.5e-4 -0.0332,-0.002 -0.0501,-0.002 h -8.30699 -8.59896 -0.99219 z"
       id="rect826-2-2" />
  </g>
</svg>
