<?xml version="1.0" encoding="UTF-8" standalone="no"?>
<!-- Created with Inkscape (http://www.inkscape.org/) -->

<svg
   xmlns:dc="http://purl.org/dc/elements/1.1/"
   xmlns:cc="http://creativecommons.org/ns#"
   xmlns:rdf="http://www.w3.org/1999/02/22-rdf-syntax-ns#"
   xmlns:svg="http://www.w3.org/2000/svg"
   xmlns="http://www.w3.org/2000/svg"
   xmlns:sodipodi="http://sodipodi.sourceforge.net/DTD/sodipodi-0.dtd"
   xmlns:inkscape="http://www.inkscape.org/namespaces/inkscape"
   width="34.260979mm"
   height="41.742149mm"
   viewBox="0 0 34.260979 41.74215"
   version="1.1"
   id="svg2761"
   inkscape:version="0.92.4 (5da689c313, 2019-01-14)"
   sodipodi:docname="8.svg">
  <defs
     id="defs2755" />
  <sodipodi:namedview
     id="base"
     pagecolor="#ffffff"
     bordercolor="#666666"
     borderopacity="1.0"
     inkscape:pageopacity="0.0"
     inkscape:pageshadow="2"
     inkscape:zoom="1.4"
     inkscape:cx="-7.8809042"
     inkscape:cy="13.326926"
     inkscape:document-units="mm"
     inkscape:current-layer="layer1"
     showgrid="false"
     fit-margin-top="0"
     fit-margin-left="0"
     fit-margin-right="0"
     fit-margin-bottom="0"
     inkscape:window-width="1600"
     inkscape:window-height="847"
     inkscape:window-x="-8"
     inkscape:window-y="22"
     inkscape:window-maximized="1" />
  <metadata
     id="metadata2758">
    <rdf:RDF>
      <cc:Work
         rdf:about="">
        <dc:format>image/svg+xml</dc:format>
        <dc:type
           rdf:resource="http://purl.org/dc/dcmitype/StillImage" />
        <dc:title></dc:title>
      </cc:Work>
    </rdf:RDF>
  </metadata>
  <g
     inkscape:label="Layer 1"
     inkscape:groupmode="layer"
     id="layer1"
     transform="translate(-137.44637,257.47558)">
    <path
       inkscape:connector-curvature="0"
       style="opacity:1;fill:#000000;stroke:none;stroke-width:17.63989639;stroke-miterlimit:4;stroke-dasharray:none"
       d="m 154.57711,-257.47558 a 14.164688,10.23005 0 0 0 -14.16503,10.22987 14.164688,10.23005 0 0 0 5.92265,8.30957 17.130741,12.372201 0 0 0 -8.88836,10.83086 17.130741,12.372201 0 0 0 17.13074,12.37185 17.130741,12.372201 0 0 0 17.13024,-12.37185 17.130741,12.372201 0 0 0 -8.87905,-10.8412 14.164688,10.23005 0 0 0 5.91333,-8.29923 14.164688,10.23005 0 0 0 -14.16452,-10.22987 z m 0,6.20117 a 7.1264603,5.1468872 0 0 1 7.12618,5.14697 7.1264603,5.1468872 0 0 1 -0.84749,2.43035 7.808713,5.639625 0 0 1 -6.27869,2.29805 7.808713,5.639625 0 0 1 -6.26266,-2.281 7.1264603,5.1468872 0 0 1 -0.86403,-2.4474 7.1264603,5.1468872 0 0 1 7.12669,-5.14697 z m 0,16.91731 a 8.6561695,6.2516774 0 0 1 5.55419,1.4578 7.8998741,5.7054644 0 0 1 2.34558,4.05143 7.8998741,5.7054644 0 0 1 -7.89977,5.70508 7.8998741,5.7054644 0 0 1 -7.9003,-5.70508 7.8998741,5.7054644 0 0 1 2.27893,-4.00234 8.6561695,6.2516774 0 0 1 5.62137,-1.50689 z"
       id="path1809-6"
       inkscape:export-filename="D:\fonnn\path1809-6.png"
       inkscape:export-xdpi="96"
       inkscape:export-ydpi="96" />
  </g>
</svg>
