<?xml version="1.0" encoding="UTF-8" standalone="no"?>
<!-- Created with Inkscape (http://www.inkscape.org/) -->

<svg
   xmlns:dc="http://purl.org/dc/elements/1.1/"
   xmlns:cc="http://creativecommons.org/ns#"
   xmlns:rdf="http://www.w3.org/1999/02/22-rdf-syntax-ns#"
   xmlns:svg="http://www.w3.org/2000/svg"
   xmlns="http://www.w3.org/2000/svg"
   xmlns:sodipodi="http://sodipodi.sourceforge.net/DTD/sodipodi-0.dtd"
   xmlns:inkscape="http://www.inkscape.org/namespaces/inkscape"
   width="39.98288mm"
   height="41.781082mm"
   viewBox="0 0 39.982879 41.781082"
   version="1.1"
   id="svg2761"
   inkscape:version="0.92.4 (5da689c313, 2019-01-14)"
   sodipodi:docname="A.svg">
  <defs
     id="defs2755" />
  <sodipodi:namedview
     id="base"
     pagecolor="#ffffff"
     bordercolor="#666666"
     borderopacity="1.0"
     inkscape:pageopacity="0.0"
     inkscape:pageshadow="2"
     inkscape:zoom="0.35"
     inkscape:cx="-844.40766"
     inkscape:cy="-269.94321"
     inkscape:document-units="mm"
     inkscape:current-layer="layer1"
     showgrid="false"
     fit-margin-top="0"
     fit-margin-left="0"
     fit-margin-right="0"
     fit-margin-bottom="0"
     inkscape:window-width="1600"
     inkscape:window-height="847"
     inkscape:window-x="-8"
     inkscape:window-y="22"
     inkscape:window-maximized="1" />
  <metadata
     id="metadata2758">
    <rdf:RDF>
      <cc:Work
         rdf:about="">
        <dc:format>image/svg+xml</dc:format>
        <dc:type
           rdf:resource="http://purl.org/dc/dcmitype/StillImage" />
        <dc:title></dc:title>
      </cc:Work>
    </rdf:RDF>
  </metadata>
  <g
     inkscape:label="Layer 1"
     inkscape:groupmode="layer"
     id="layer1"
     transform="translate(-193.1781,145.79879)">
    <path
       inkscape:connector-curvature="0"
       style="opacity:1;fill:#000000;stroke:none;stroke-width:8.96500015;stroke-miterlimit:4;stroke-dasharray:none"
       d="m 211.31289,-145.79842 c -1.71884,0.006 -3.34204,1.02361 -4.04782,2.71456 l -13.74335,32.92771 c -0.94103,2.2546 0.11631,4.82709 2.37092,5.76812 2.2546,0.94103 4.82709,-0.11631 5.76812,-2.37091 l 3.45767,-8.28425 h 12.44834 l 0.30902,0.74104 0.0326,0.0775 0.63872,1.53014 c 0.002,-7.9e-4 0.003,-0.001 0.005,-0.002 l 0.76585,1.82005 -0.0171,0.007 1.81695,4.31705 c 0.11111,0.26403 0.24577,0.51007 0.40101,0.73742 0.15524,0.22735 0.33173,0.43548 0.52399,0.62322 0.19227,0.18774 0.40112,0.35501 0.62322,0.50023 0.22211,0.14521 0.45696,0.26815 0.70177,0.36793 0.2448,0.0998 0.4993,0.17647 0.75964,0.2279 0.26034,0.0514 0.52658,0.0779 0.7953,0.078 0.26873,1.8e-4 0.53982,-0.0256 0.80977,-0.0796 0.26994,-0.054 0.53851,-0.13591 0.80254,-0.24702 l 0.016,-0.007 0.48783,-0.20567 0.0165,-0.007 3.57497,-1.5043 c 1.79656,-0.75607 2.77277,-2.61702 2.47892,-4.45606 a 10.772321,10.772321 0 0 1 -6.6182,-6.05281 3.2815255,1.32022 67.176552 0 1 -0.016,-0.0294 l -0.41906,-0.99581 -10.63346,-25.47803 c -0.5924,-1.41932 -1.83208,-2.36133 -3.23133,-2.63188 -0.0119,-0.002 -0.0238,-0.004 -0.0357,-0.007 -0.10975,-0.0203 -0.22033,-0.0367 -0.33176,-0.0486 -0.0388,-0.004 -0.0775,-0.01 -0.11627,-0.0129 -0.0575,-0.005 -0.11534,-0.006 -0.17312,-0.008 -0.0737,-0.003 -0.14776,-0.0101 -0.22117,-0.01 z m 0.0289,16.24655 a 0.25631511,0.25631511 0 0 1 0.22479,0.13384 l 1.97197,4.72478 a 0.57893992,0.60343449 0 0 1 0.0429,0.22634 0.57893992,0.60343449 0 0 1 -0.57929,0.60307 0.57893992,0.60343449 0 0 1 -0.0264,-0.001 v 0.002 h -3.37653 a 0.57893992,0.60343449 0 0 1 -0.50437,-0.59738 0.57893992,0.60343449 0 0 1 0.0233,-0.16485 l 2.00246,-4.79867 a 0.25631511,0.25631511 0 0 1 0.22117,-0.12764 z"
       id="rect826-5-2" />
  </g>
</svg>
