<?xml version="1.0" encoding="UTF-8" standalone="no"?>
<!-- Created with Inkscape (http://www.inkscape.org/) -->

<svg
   xmlns:dc="http://purl.org/dc/elements/1.1/"
   xmlns:cc="http://creativecommons.org/ns#"
   xmlns:rdf="http://www.w3.org/1999/02/22-rdf-syntax-ns#"
   xmlns:svg="http://www.w3.org/2000/svg"
   xmlns="http://www.w3.org/2000/svg"
   xmlns:sodipodi="http://sodipodi.sourceforge.net/DTD/sodipodi-0.dtd"
   xmlns:inkscape="http://www.inkscape.org/namespaces/inkscape"
   width="37.789322mm"
   height="41.74218mm"
   viewBox="0 0 37.789321 41.74218"
   version="1.1"
   id="svg2761"
   inkscape:version="0.92.4 (5da689c313, 2019-01-14)"
   sodipodi:docname="a1.svg">
  <defs
     id="defs2755" />
  <sodipodi:namedview
     id="base"
     pagecolor="#ffffff"
     bordercolor="#666666"
     borderopacity="1.0"
     inkscape:pageopacity="0.0"
     inkscape:pageshadow="2"
     inkscape:zoom="2.8"
     inkscape:cx="-43.446295"
     inkscape:cy="23.827842"
     inkscape:document-units="mm"
     inkscape:current-layer="layer1"
     showgrid="false"
     fit-margin-top="0"
     fit-margin-left="0"
     fit-margin-right="0"
     fit-margin-bottom="0"
     inkscape:window-width="1600"
     inkscape:window-height="847"
     inkscape:window-x="-8"
     inkscape:window-y="22"
     inkscape:window-maximized="1"
     inkscape:snap-global="false" />
  <metadata
     id="metadata2758">
    <rdf:RDF>
      <cc:Work
         rdf:about="">
        <dc:format>image/svg+xml</dc:format>
        <dc:type
           rdf:resource="http://purl.org/dc/dcmitype/StillImage" />
        <dc:title></dc:title>
      </cc:Work>
    </rdf:RDF>
  </metadata>
  <g
     inkscape:label="Layer 1"
     inkscape:groupmode="layer"
     id="layer1"
     transform="translate(-117.9609,157.19874)">
    <path
       style="font-style:italic;font-variant:normal;font-weight:normal;font-stretch:normal;font-size:583.0602417px;line-height:1.25;font-family:Georgia;-inkscape-font-specification:'Georgia Italic';letter-spacing:0px;word-spacing:0px;opacity:0.98999999;fill:#000000;fill-opacity:1;stroke:none;stroke-width:0.57039511"
       d="m 137.97687,-141.62851 c -1.81793,0 -3.56492,0.55188 -5.28544,1.40253 -1.72053,0.83518 -3.20562,1.94117 -4.45546,3.31768 -1.31474,1.43837 -2.34549,3.06214 -3.09214,4.87171 -0.74664,1.80957 -1.11982,3.67347 -1.11982,5.59131 0,2.78395 0.66547,4.98005 1.99645,6.58856 1.34721,1.6085 3.19761,2.41288 5.55115,2.41288 0.48059,0 1.93839,-0.0358 2.2365,-0.0358 0.87651,0 1.70392,-0.20654 2.45055,-0.50041 0.74665,-0.27839 1.43634,-0.61088 2.06937,-0.99755 0.185,-0.10749 0.36075,-0.21656 0.53141,-0.32654 -0.002,0.11437 0.004,0.22646 0.0213,0.3334 0.023,0.14291 0.0619,0.27863 0.11611,0.40558 0.0541,0.12697 0.12338,0.24491 0.20624,0.3528 0.0829,0.10786 0.17973,0.20543 0.28888,0.29106 0.10916,0.0856 0.23065,0.15955 0.36367,0.21979 0.13304,0.0602 0.27743,0.10697 0.4319,0.13867 0.15447,0.0317 0.31881,0.0483 0.49231,0.0483 h 0.0105 0.0159 0.31518 0.0159 2.33352 c 1.18047,0 3.19276,-1.11375 3.75433,-2.15772 -1.05155,-1.12054 -2.2314,-2.38757 -1.82581,-4.10398 l -0.009,-0.002 4.4395,-15.8217 c 0.004,-0.0327 0.01,-0.0658 0.0119,-0.0978 0.0104,-0.15568 0.004,-0.30592 -0.0197,-0.44882 -0.023,-0.1429 -0.062,-0.27862 -0.11613,-0.40558 -0.0541,-0.12696 -0.12336,-0.24491 -0.20624,-0.35279 -0.0829,-0.10787 -0.17971,-0.20543 -0.28887,-0.29106 -0.10917,-0.0856 -0.23066,-0.15955 -0.36368,-0.21979 -0.13302,-0.0602 -0.27743,-0.10697 -0.43189,-0.13867 -0.15449,-0.0317 -0.31883,-0.0483 -0.49229,-0.0483 h -0.0106 -0.0159 -0.30452 -0.0266 l -2.33351,-5.8e-4 c -0.55971,0 -1.12278,0.17487 -1.62087,0.4685 -0.0248,-0.007 -0.0472,-0.0145 -0.0723,-0.0215 -1.03881,-0.29386 -2.13439,-0.44078 -3.28682,-0.44078 -0.78179,0 -2.05567,-0.0313 -2.27468,-0.0313 z m 1.3245,1.95602 c 0.44783,0.0556 0.88802,0.0262 1.22996,0.16581 0.56811,0.23199 1.01427,0.54109 1.33889,0.92776 0.3571,0.40213 0.59276,0.83535 0.70638,1.29934 0.11361,0.46399 0.17026,0.95118 0.17026,1.46157 l -3.09215,12.48136 c -1.24982,1.22185 -2.37779,2.0802 -3.38416,2.57513 -0.52108,0.25233 -1.0149,0.36209 -1.51351,0.48162 -0.48822,-0.0759 -0.93146,-0.1409 -1.29823,-0.34474 -0.58431,-0.3248 -1.03078,-0.78111 -1.33917,-1.36883 -0.32463,-0.60318 -0.54394,-1.26846 -0.65756,-1.99538 -0.11361,-0.72692 -0.17025,-1.5619 -0.17025,-2.50534 0,-1.71677 0.26776,-3.41039 0.8034,-5.08076 0.53562,-1.67038 1.22563,-3.09326 2.06967,-4.26871 0.89274,-1.25277 1.89895,-2.25053 3.01891,-2.99292 0.70762,-0.46905 1.38402,-0.66322 2.11756,-0.83591 z"
       id="path5910-5"
       inkscape:connector-curvature="0"
       sodipodi:nodetypes="ccccscsscccccccccsccccscccccccccccscccccccscccccccccccccscccc" />
  </g>
</svg>
