<?xml version="1.0" encoding="UTF-8" standalone="no"?>
<!-- Created with Inkscape (http://www.inkscape.org/) -->

<svg
   xmlns:dc="http://purl.org/dc/elements/1.1/"
   xmlns:cc="http://creativecommons.org/ns#"
   xmlns:rdf="http://www.w3.org/1999/02/22-rdf-syntax-ns#"
   xmlns:svg="http://www.w3.org/2000/svg"
   xmlns="http://www.w3.org/2000/svg"
   xmlns:sodipodi="http://sodipodi.sourceforge.net/DTD/sodipodi-0.dtd"
   xmlns:inkscape="http://www.inkscape.org/namespaces/inkscape"
   width="35.103302mm"
   height="41.742153mm"
   viewBox="0 0 35.103302 41.742153"
   version="1.1"
   id="svg2761"
   inkscape:version="0.92.4 (5da689c313, 2019-01-14)"
   sodipodi:docname="B.svg">
  <defs
     id="defs2755" />
  <sodipodi:namedview
     id="base"
     pagecolor="#ffffff"
     bordercolor="#666666"
     borderopacity="1.0"
     inkscape:pageopacity="0.0"
     inkscape:pageshadow="2"
     inkscape:zoom="0.35"
     inkscape:cx="-407.94879"
     inkscape:cy="-358.26005"
     inkscape:document-units="mm"
     inkscape:current-layer="layer1"
     showgrid="false"
     fit-margin-top="0"
     fit-margin-left="0"
     fit-margin-right="0"
     fit-margin-bottom="0"
     inkscape:window-width="1600"
     inkscape:window-height="847"
     inkscape:window-x="-8"
     inkscape:window-y="22"
     inkscape:window-maximized="1" />
  <metadata
     id="metadata2758">
    <rdf:RDF>
      <cc:Work
         rdf:about="">
        <dc:format>image/svg+xml</dc:format>
        <dc:type
           rdf:resource="http://purl.org/dc/dcmitype/StillImage" />
        <dc:title></dc:title>
      </cc:Work>
    </rdf:RDF>
  </metadata>
  <g
     inkscape:label="Layer 1"
     inkscape:groupmode="layer"
     id="layer1"
     transform="translate(-77.698356,-12.301542)">
    <path
       inkscape:connector-curvature="0"
       style="opacity:1;fill:#000000;stroke:none;stroke-width:9.46305561;stroke-miterlimit:4;stroke-dasharray:none"
       d="m 81.111976,12.301542 c -1.376442,0 -2.585746,0.708192 -3.30782,1.791105 a 10.772321,10.772321 0 0 1 4.366154,8.52506 1.2655219,1.7518586 0 0 1 0.01191,0.179835 v 20.44733 a 10.772321,10.772321 0 0 1 0.0037,0.10232 10.772321,10.772321 0 0 1 -0.0037,0.07235 v 0.128159 a 1.2902274,1.7540196 0 0 1 -0.01746,0.221687 10.772321,10.772321 0 0 1 -4.466404,8.310086 c 0.705352,1.1791 1.965933,1.964222 3.41376,1.964222 h 5.20692 0.546206 13.841018 a 12.095236,12.095236 0 0 0 12.0954,-12.095385 12.095236,12.095236 0 0 0 -5.68079,-10.236586 10.772319,10.772319 0 0 0 4.35787,-8.637715 10.772319,10.772319 0 0 0 -10.77248,-10.772468 H 86.865235 86.319029 Z m 12.312941,8.75502 h 5.069972 c 1.704021,0 3.075781,1.363753 3.075781,3.057694 v 0.404109 c 0,1.693942 -1.37176,3.057697 -3.075781,3.057695 h -5.069972 a 2.4160046,2.416005 0 0 1 -0.240824,-0.01188 2.4160046,2.416005 0 0 1 -0.239262,-0.03617 2.4160046,2.416005 0 0 1 -0.233575,-0.05994 2.4160046,2.416005 0 0 1 -0.226853,-0.08268 2.4160046,2.416005 0 0 1 -0.217567,-0.104902 2.4160046,2.416005 0 0 1 -0.20619,-0.126609 2.4160046,2.416005 0 0 1 -0.19222,-0.145727 2.4160046,2.416005 0 0 1 -0.176741,-0.164849 2.4160046,2.416005 0 0 1 -0.159174,-0.181382 2.4160046,2.416005 0 0 1 -0.140546,-0.196371 2.4160046,2.416005 0 0 1 -0.119883,-0.209807 2.4160046,2.416005 0 0 1 -0.09872,-0.220141 2.4160046,2.416005 0 0 1 -0.07646,-0.229444 2.4160046,2.416005 0 0 1 -0.05273,-0.235643 2.4160046,2.416005 0 0 1 -0.02892,-0.239263 2.4160046,2.416005 0 0 1 -0.0064,-0.171048 v -1.687753 a 2.4160046,2.416005 0 0 1 0.0064,-0.171048 2.4160046,2.416005 0 0 1 0.02892,-0.239263 2.4160046,2.416005 0 0 1 0.05273,-0.235646 2.4160046,2.416005 0 0 1 0.07646,-0.229441 2.4160046,2.416005 0 0 1 0.09872,-0.220144 2.4160046,2.416005 0 0 1 0.119883,-0.209804 2.4160046,2.416005 0 0 1 0.140546,-0.196371 2.4160046,2.416005 0 0 1 0.159703,-0.181385 2.4160046,2.416005 0 0 1 0.176212,-0.164849 2.4160046,2.416005 0 0 1 0.19222,-0.145727 2.4160046,2.416005 0 0 1 0.20619,-0.126606 2.4160046,2.416005 0 0 1 0.217567,-0.104904 2.4160046,2.416005 0 0 1 0.226853,-0.08268 2.4160046,2.416005 0 0 1 0.233575,-0.05994 2.4160046,2.416005 0 0 1 0.239262,-0.03617 2.4160046,2.416005 0 0 1 0.240824,-0.01188 z m 0,15.06523 h 6.662633 c 2.06655,0 3.73002,1.887569 3.73002,4.232301 v 0.559655 c 0,2.344732 -1.66347,4.232301 -3.73002,4.232301 h -7.264666 a 2.4160046,2.416005 0 0 1 -0.11213,-0.02842 2.4160046,2.416005 0 0 1 -0.226854,-0.08268 2.4160046,2.416005 0 0 1 -0.217064,-0.105418 2.4160046,2.416005 0 0 1 -0.20619,-0.126093 2.4160046,2.416005 0 0 1 -0.19222,-0.146243 2.4160046,2.416005 0 0 1 -0.176741,-0.164333 2.4160046,2.416005 0 0 1 -0.159174,-0.181382 2.4160046,2.416005 0 0 1 -0.140546,-0.196887 2.4160046,2.416005 0 0 1 -0.120412,-0.209291 2.4160046,2.416005 0 0 1 -0.09819,-0.220657 2.4160046,2.416005 0 0 1 -0.07646,-0.228928 2.4160046,2.416005 0 0 1 -0.05273,-0.235643 2.4160046,2.416005 0 0 1 -0.02945,-0.239779 2.4160046,2.416005 0 0 1 -0.0058,-0.17105 v -4.271574 a 2.4160046,2.416005 0 0 1 0.0064,-0.171048 2.4160046,2.416005 0 0 1 0.02892,-0.239263 2.4160046,2.416005 0 0 1 0.05273,-0.235643 2.4160046,2.416005 0 0 1 0.07646,-0.229444 2.4160046,2.416005 0 0 1 0.09872,-0.220141 2.4160046,2.416005 0 0 1 0.119883,-0.209807 2.4160046,2.416005 0 0 1 0.140546,-0.196371 2.4160046,2.416005 0 0 1 0.159174,-0.181385 2.4160046,2.416005 0 0 1 0.176741,-0.164846 2.4160046,2.416005 0 0 1 0.19222,-0.145727 2.4160046,2.416005 0 0 1 0.20619,-0.126609 2.4160046,2.416005 0 0 1 0.217567,-0.104902 2.4160046,2.416005 0 0 1 0.226853,-0.08268 2.4160046,2.416005 0 0 1 0.233575,-0.05995 2.4160046,2.416005 0 0 1 0.239262,-0.03617 2.4160046,2.416005 0 0 1 0.240824,-0.01188 z"
       id="path901" />
  </g>
</svg>
