<?xml version="1.0" encoding="UTF-8" standalone="no"?>
<!-- Created with Inkscape (http://www.inkscape.org/) -->

<svg
   xmlns:dc="http://purl.org/dc/elements/1.1/"
   xmlns:cc="http://creativecommons.org/ns#"
   xmlns:rdf="http://www.w3.org/1999/02/22-rdf-syntax-ns#"
   xmlns:svg="http://www.w3.org/2000/svg"
   xmlns="http://www.w3.org/2000/svg"
   xmlns:sodipodi="http://sodipodi.sourceforge.net/DTD/sodipodi-0.dtd"
   xmlns:inkscape="http://www.inkscape.org/namespaces/inkscape"
   width="33.440479mm"
   height="42.212452mm"
   viewBox="0 0 33.440479 42.212452"
   version="1.1"
   id="svg2761"
   inkscape:version="0.92.4 (5da689c313, 2019-01-14)"
   sodipodi:docname="C.svg">
  <defs
     id="defs2755" />
  <sodipodi:namedview
     id="base"
     pagecolor="#ffffff"
     bordercolor="#666666"
     borderopacity="1.0"
     inkscape:pageopacity="0.0"
     inkscape:pageshadow="2"
     inkscape:zoom="0.35"
     inkscape:cx="-421.89705"
     inkscape:cy="-307.05991"
     inkscape:document-units="mm"
     inkscape:current-layer="layer1"
     showgrid="false"
     fit-margin-top="0"
     fit-margin-left="0"
     fit-margin-right="0"
     fit-margin-bottom="0"
     inkscape:window-width="1600"
     inkscape:window-height="847"
     inkscape:window-x="-8"
     inkscape:window-y="22"
     inkscape:window-maximized="1" />
  <metadata
     id="metadata2758">
    <rdf:RDF>
      <cc:Work
         rdf:about="">
        <dc:format>image/svg+xml</dc:format>
        <dc:type
           rdf:resource="http://purl.org/dc/dcmitype/StillImage" />
        <dc:title></dc:title>
      </cc:Work>
    </rdf:RDF>
  </metadata>
  <g
     inkscape:label="Layer 1"
     inkscape:groupmode="layer"
     id="layer1"
     transform="translate(-81.388832,-25.377946)">
    <path
       inkscape:connector-curvature="0"
       style="opacity:1;fill:#000000;stroke:none;stroke-width:8.46253586;stroke-miterlimit:4;stroke-dasharray:none"
       d="m 100.41917,25.377986 a 19.030108,21.106237 0 0 0 -19.030338,21.106207 19.030108,21.106237 0 0 0 19.030338,21.106204 19.030108,21.106237 0 0 0 12.55946,-5.338175 c 0.32613,-0.283448 0.62175,-0.606735 0.8754,-0.966867 1.60645,-2.285759 1.18446,-5.3506 -0.94258,-6.845059 -1.77429,-1.24336 -4.23166,-1.024015 -5.95312,0.530717 l 0.008,-0.01188 c -0.0159,0.01561 -0.15658,0.150296 -0.17158,0.166396 -0.12004,0.110623 -0.24157,0.303567 -0.43614,0.630455 l -0.047,-0.03101 c -0.5906,1.358411 -1.53215,2.927361 -3.69229,3.155363 -0.19097,0.01805 -0.38211,0.02998 -0.57361,0.03565 -5.908071,3e-6 -10.697479,-5.766525 -10.697532,-12.879832 -1.59e-4,-7.113489 4.789302,-12.879834 10.697532,-12.879834 0.39206,0.006 0.7834,0.03784 1.17255,0.0956 0.97997,0.259969 1.33366,0.753341 1.67794,1.316199 0.29668,0.536432 0.5929,1.191311 0.88778,1.996776 0.20656,0.462598 0.37915,0.636546 0.51782,0.764294 0.0151,0.01611 0.15576,0.150284 0.17155,0.165883 l -0.008,-0.01138 c 1.72146,1.554729 4.17883,1.773561 5.95313,0.530199 2.12706,-1.494454 2.54955,-4.558782 0.9431,-6.844543 -0.21116,-0.299805 -0.45331,-0.571678 -0.71572,-0.819071 l 0.003,-0.0011 a 19.030108,21.106237 0 0 0 -0.0294,-0.02482 c -0.12722,-0.118235 -0.25911,-0.230103 -0.39638,-0.334862 a 19.030108,21.106237 0 0 0 -11.80282,-4.61155 z"
       id="path1814"
       inkscape:export-filename="C:\Users\Alec\path1814.png"
       inkscape:export-xdpi="96"
       inkscape:export-ydpi="96" />
  </g>
</svg>
