<?xml version="1.0" encoding="UTF-8" standalone="no"?>
<!-- Created with Inkscape (http://www.inkscape.org/) -->

<svg
   xmlns:dc="http://purl.org/dc/elements/1.1/"
   xmlns:cc="http://creativecommons.org/ns#"
   xmlns:rdf="http://www.w3.org/1999/02/22-rdf-syntax-ns#"
   xmlns:svg="http://www.w3.org/2000/svg"
   xmlns="http://www.w3.org/2000/svg"
   xmlns:sodipodi="http://sodipodi.sourceforge.net/DTD/sodipodi-0.dtd"
   xmlns:inkscape="http://www.inkscape.org/namespaces/inkscape"
   width="42.416069mm"
   height="41.742157mm"
   viewBox="0 0 42.416069 41.742157"
   version="1.1"
   id="svg2761"
   inkscape:version="0.92.4 (5da689c313, 2019-01-14)"
   sodipodi:docname="D.svg">
  <defs
     id="defs2755" />
  <sodipodi:namedview
     id="base"
     pagecolor="#ffffff"
     bordercolor="#666666"
     borderopacity="1.0"
     inkscape:pageopacity="0.0"
     inkscape:pageshadow="2"
     inkscape:zoom="0.35"
     inkscape:cx="-727.45499"
     inkscape:cy="-219.60567"
     inkscape:document-units="mm"
     inkscape:current-layer="layer1"
     showgrid="false"
     fit-margin-top="0"
     fit-margin-left="0"
     fit-margin-right="0"
     fit-margin-bottom="0"
     inkscape:window-width="1600"
     inkscape:window-height="847"
     inkscape:window-x="-8"
     inkscape:window-y="22"
     inkscape:window-maximized="1" />
  <metadata
     id="metadata2758">
    <rdf:RDF>
      <cc:Work
         rdf:about="">
        <dc:format>image/svg+xml</dc:format>
        <dc:type
           rdf:resource="http://purl.org/dc/dcmitype/StillImage" />
        <dc:title></dc:title>
      </cc:Work>
    </rdf:RDF>
  </metadata>
  <g
     inkscape:label="Layer 1"
     inkscape:groupmode="layer"
     id="layer1"
     transform="translate(-162.23437,-48.987177)">
    <path
       inkscape:connector-curvature="0"
       style="opacity:1;fill:#000000;stroke:none;stroke-width:8.68272591;stroke-miterlimit:4;stroke-dasharray:none"
       d="m 165.83932,48.987177 c -1.63111,0 -3.02109,1.05196 -3.60495,2.553332 a 10.772322,10.772322 0 0 1 5.15731,9.177219 10.772322,10.772322 0 0 1 -0.0201,0.404109 1.8260742,4.1203383 0 0 1 0.0336,0.626834 v 24.297228 0.546735 c 0,2.291688 1.32503,4.136699 2.9709,4.136699 h 1.16581 0.54673 12.79613 A 19.765873,20.871092 0 0 0 204.65044,69.858256 19.765873,20.871092 0 0 0 184.88472,48.987177 h -12.79613 -0.54673 z M 179.7997,57.7422 h 1.70326 a 12.057139,12.044733 0 0 1 12.05714,12.044741 12.057139,12.044733 0 0 1 -12.05714,12.044743 h -1.70326 a 3.5852791,3.5852798 0 0 1 -0.35812,-0.0181 3.5852791,3.5852798 0 0 1 -0.35398,-0.05323 3.5852791,3.5852798 0 0 1 -0.34727,-0.08888 3.5852791,3.5852798 0 0 1 -0.33693,-0.122989 3.5852791,3.5852798 0 0 1 -0.32246,-0.155545 3.5852791,3.5852798 0 0 1 -0.30541,-0.187587 3.5852791,3.5852798 0 0 1 -0.28526,-0.217041 3.5852791,3.5852798 0 0 1 -0.26252,-0.243911 3.5852791,3.5852798 0 0 1 -0.23667,-0.269235 3.5852791,3.5852798 0 0 1 -0.20825,-0.291454 3.5852791,3.5852798 0 0 1 -0.17828,-0.311095 3.5852791,3.5852798 0 0 1 -0.14626,-0.327109 3.5852791,3.5852798 0 0 1 -0.11316,-0.340032 3.5852791,3.5852798 0 0 1 -0.0786,-0.349851 3.5852791,3.5852798 0 0 1 -0.0434,-0.355534 3.5852791,3.5852798 0 0 1 -0.009,-0.25373 V 61.3275 a 3.5852791,3.5852798 0 0 1 0.009,-0.253733 3.5852791,3.5852798 0 0 1 0.0434,-0.355534 3.5852791,3.5852798 0 0 1 0.0786,-0.349848 3.5852791,3.5852798 0 0 1 0.11316,-0.340032 3.5852791,3.5852798 0 0 1 0.14626,-0.327112 3.5852791,3.5852798 0 0 1 0.17828,-0.311092 3.5852791,3.5852798 0 0 1 0.20825,-0.291454 3.5852791,3.5852798 0 0 1 0.23667,-0.269235 3.5852791,3.5852798 0 0 1 0.26252,-0.243911 3.5852791,3.5852798 0 0 1 0.28526,-0.217043 3.5852791,3.5852798 0 0 1 0.30541,-0.187585 3.5852791,3.5852798 0 0 1 0.32246,-0.155546 3.5852791,3.5852798 0 0 1 0.33693,-0.122988 3.5852791,3.5852798 0 0 1 0.34727,-0.08889 3.5852791,3.5852798 0 0 1 0.35398,-0.05323 3.5852791,3.5852798 0 0 1 0.35812,-0.0181 z"
       id="rect826-4" />
  </g>
</svg>
