<?xml version="1.0" encoding="UTF-8" standalone="no"?>
<!-- Created with Inkscape (http://www.inkscape.org/) -->

<svg
   xmlns:dc="http://purl.org/dc/elements/1.1/"
   xmlns:cc="http://creativecommons.org/ns#"
   xmlns:rdf="http://www.w3.org/1999/02/22-rdf-syntax-ns#"
   xmlns:svg="http://www.w3.org/2000/svg"
   xmlns="http://www.w3.org/2000/svg"
   xmlns:sodipodi="http://sodipodi.sourceforge.net/DTD/sodipodi-0.dtd"
   xmlns:inkscape="http://www.inkscape.org/namespaces/inkscape"
   width="37.789322mm"
   height="41.74218mm"
   viewBox="0 0 37.789321 41.74218"
   version="1.1"
   id="svg2761"
   inkscape:version="0.92.4 (5da689c313, 2019-01-14)"
   sodipodi:docname="del.svg">
  <defs
     id="defs2755" />
  <sodipodi:namedview
     id="base"
     pagecolor="#ffffff"
     bordercolor="#666666"
     borderopacity="1.0"
     inkscape:pageopacity="0.0"
     inkscape:pageshadow="2"
     inkscape:zoom="1.4"
     inkscape:cx="-108.96046"
     inkscape:cy="42.379906"
     inkscape:document-units="mm"
     inkscape:current-layer="layer1"
     showgrid="false"
     fit-margin-top="0"
     fit-margin-left="0"
     fit-margin-right="0"
     fit-margin-bottom="0"
     inkscape:window-width="1600"
     inkscape:window-height="847"
     inkscape:window-x="-8"
     inkscape:window-y="22"
     inkscape:window-maximized="1"
     inkscape:snap-global="false" />
  <metadata
     id="metadata2758">
    <rdf:RDF>
      <cc:Work
         rdf:about="">
        <dc:format>image/svg+xml</dc:format>
        <dc:type
           rdf:resource="http://purl.org/dc/dcmitype/StillImage" />
        <dc:title></dc:title>
      </cc:Work>
    </rdf:RDF>
  </metadata>
  <g
     inkscape:label="Layer 1"
     inkscape:groupmode="layer"
     id="layer1"
     transform="translate(-117.9609,157.19874)">
    <path
       inkscape:connector-curvature="0"
       id="path2713-8-4-8"
       d="m 141.98439,-147.39911 c -1.29592,-0.37412 -2.88712,0.27202 -3.8757,1.48291 a 6.9896585,9.1301833 48.81537 0 1 -0.54169,6.3752 l -10.38867,19.3855 c -0.0342,0.0838 -0.0684,0.16705 -0.0952,0.25037 -0.0672,0.20376 -0.11378,0.40592 -0.13855,0.60332 -0.0256,0.1974 -0.0311,0.39035 -0.0171,0.57642 0.0141,0.18608 0.0482,0.36492 0.10072,0.53472 0.0525,0.16977 0.12388,0.33019 0.21315,0.47871 0.0893,0.14852 0.19652,0.2854 0.32105,0.4077 0.12459,0.12229 0.26625,0.23017 0.42449,0.32129 0.15834,0.0911 0.33306,0.16537 0.52351,0.22034 l 0.0115,0.004 0.0171,0.005 0.33442,0.0965 0.0291,0.008 2.5615,0.73942 c 1.29587,0.37411 2.88703,-0.27204 3.87566,-1.48293 a 6.9896585,9.1301833 48.81537 0 1 0.53832,-6.36804 l 10.39238,-19.39255 c 0.0342,-0.0838 0.0684,-0.16704 0.0952,-0.25036 0.0672,-0.20377 0.11378,-0.40592 0.13855,-0.60333 0.0256,-0.19742 0.0311,-0.39035 0.0171,-0.57641 -0.0141,-0.18608 -0.0482,-0.36494 -0.10067,-0.53473 -0.0525,-0.16978 -0.12383,-0.33019 -0.21315,-0.4787 -0.0894,-0.14853 -0.19657,-0.28542 -0.32116,-0.40771 -0.12448,-0.1223 -0.26624,-0.2302 -0.42449,-0.3213 -0.15829,-0.0911 -0.33301,-0.16536 -0.52345,-0.22033 l -0.0121,-0.004 -0.0171,-0.005 -0.34592,-0.0999 -0.0171,-0.005 z"
       style="opacity:1;fill:#000000;stroke:none;stroke-width:6.43894243;stroke-miterlimit:4;stroke-dasharray:none" />
  </g>
</svg>
