<?xml version="1.0" encoding="UTF-8" standalone="no"?>
<!-- Created with Inkscape (http://www.inkscape.org/) -->

<svg
   xmlns:dc="http://purl.org/dc/elements/1.1/"
   xmlns:cc="http://creativecommons.org/ns#"
   xmlns:rdf="http://www.w3.org/1999/02/22-rdf-syntax-ns#"
   xmlns:svg="http://www.w3.org/2000/svg"
   xmlns="http://www.w3.org/2000/svg"
   xmlns:sodipodi="http://sodipodi.sourceforge.net/DTD/sodipodi-0.dtd"
   xmlns:inkscape="http://www.inkscape.org/namespaces/inkscape"
   width="32.045059mm"
   height="41.742153mm"
   viewBox="0 0 32.045059 41.742153"
   version="1.1"
   id="svg2761"
   inkscape:version="0.92.4 (5da689c313, 2019-01-14)"
   sodipodi:docname="E.svg">
  <defs
     id="defs2755" />
  <sodipodi:namedview
     id="base"
     pagecolor="#ffffff"
     bordercolor="#666666"
     borderopacity="1.0"
     inkscape:pageopacity="0.0"
     inkscape:pageshadow="2"
     inkscape:zoom="0.35"
     inkscape:cx="-701.18311"
     inkscape:cy="-177.86572"
     inkscape:document-units="mm"
     inkscape:current-layer="layer1"
     showgrid="false"
     fit-margin-top="0"
     fit-margin-left="0"
     fit-margin-right="0"
     fit-margin-bottom="0"
     inkscape:window-width="1600"
     inkscape:window-height="847"
     inkscape:window-x="-8"
     inkscape:window-y="22"
     inkscape:window-maximized="1" />
  <metadata
     id="metadata2758">
    <rdf:RDF>
      <cc:Work
         rdf:about="">
        <dc:format>image/svg+xml</dc:format>
        <dc:type
           rdf:resource="http://purl.org/dc/dcmitype/StillImage" />
        <dc:title></dc:title>
      </cc:Work>
    </rdf:RDF>
  </metadata>
  <g
     inkscape:label="Layer 1"
     inkscape:groupmode="layer"
     id="layer1"
     transform="translate(-155.28327,-60.030878)">
    <path
       inkscape:connector-curvature="0"
       style="opacity:1;fill:#000000;stroke:none;stroke-width:8.68272591;stroke-miterlimit:4;stroke-dasharray:none"
       d="m 159.42089,60.030878 c -1.94917,0 -3.57067,1.336511 -4.01319,3.145544 a 10.77232,10.77232 0 0 1 3.63079,6.606315 v 20.665406 a 1.32022,3.2815255 0 0 1 -0.003,0.03307 10.772321,10.772321 0 0 1 -3.75222,8.146272 c 0.44252,1.809035 2.06402,3.145545 4.01319,3.145545 h 3.87883 0.12402 0.42272 0.12402 15.65227 c 3.77627,-0.002 6.99512,-2.739193 7.60264,-6.466273 0.0659,-0.293957 0.10335,-0.598744 0.10335,-0.913122 v -0.326596 -0.892969 -2.721282 -0.0036 c 0,-1.491994 -1.20086,-2.692858 -2.69285,-2.692858 -1.15681,0 -2.1364,0.723207 -2.51923,1.743046 -1.3906,2.160148 -3.72772,3.449336 -6.35362,3.453535 -0.30868,-0.0032 -0.69543,5e-6 -1.02216,0 h -2.42569 a 4.2087448,4.2087456 0 0 1 -0.29766,-0.01035 4.2087448,4.2087456 0 0 1 -0.41754,-0.05064 4.2087448,4.2087456 0 0 1 -0.41031,-0.0925 4.2087448,4.2087456 0 0 1 -0.39946,-0.132292 4.2087448,4.2087456 0 0 1 -0.38396,-0.172082 4.2087448,4.2087456 0 0 1 -0.36483,-0.209291 4.2087448,4.2087456 0 0 1 -0.3421,-0.244946 4.2087448,4.2087456 0 0 1 -0.31626,-0.277503 4.2087448,4.2087456 0 0 1 -0.2868,-0.30799 4.2087448,4.2087456 0 0 1 -0.25477,-0.334865 4.2087448,4.2087456 0 0 1 -0.21962,-0.358635 4.2087448,4.2087456 0 0 1 -0.18294,-0.378788 4.2087448,4.2087456 0 0 1 -0.14418,-0.395324 4.2087448,4.2087456 0 0 1 -0.10438,-0.40721 4.2087448,4.2087456 0 0 1 -0.0625,-0.415996 4.2087448,4.2087456 0 0 1 -0.003,-0.04806 4.2087448,4.2087456 0 0 1 0.003,-0.04806 4.2087448,4.2087456 0 0 1 0.0625,-0.415994 4.2087448,4.2087456 0 0 1 0.10438,-0.40721 4.2087448,4.2087456 0 0 1 0.14418,-0.395327 4.2087448,4.2087456 0 0 1 0.18294,-0.378788 4.2087448,4.2087456 0 0 1 0.21962,-0.358635 4.2087448,4.2087456 0 0 1 0.25477,-0.334862 4.2087448,4.2087456 0 0 1 0.2868,-0.307991 4.2087448,4.2087456 0 0 1 0.31626,-0.277503 4.2087448,4.2087456 0 0 1 0.3421,-0.244945 4.2087448,4.2087456 0 0 1 0.36483,-0.209291 4.2087448,4.2087456 0 0 1 0.38396,-0.172083 4.2087448,4.2087456 0 0 1 0.39946,-0.132291 4.2087448,4.2087456 0 0 1 0.41031,-0.0925 4.2087448,4.2087456 0 0 1 0.41754,-0.05064 4.2087448,4.2087456 0 0 1 0.29766,-0.01035 h 4.19974 c 1.89434,0 3.41943,-1.610095 3.41943,-3.610115 v -0.477491 c 0,-2.000012 -1.52509,-3.610115 -3.41943,-3.610115 h -4.19974 a 4.2087448,4.2087456 0 0 1 -0.29766,-0.01035 4.2087448,4.2087456 0 0 1 -0.41754,-0.05064 4.2087448,4.2087456 0 0 1 -0.41031,-0.0925 4.2087448,4.2087456 0 0 1 -0.39946,-0.132292 4.2087448,4.2087456 0 0 1 -0.38396,-0.172085 4.2087448,4.2087456 0 0 1 -0.36483,-0.209288 4.2087448,4.2087456 0 0 1 -0.3421,-0.244946 4.2087448,4.2087456 0 0 1 -0.31626,-0.277503 4.2087448,4.2087456 0 0 1 -0.2868,-0.307991 4.2087448,4.2087456 0 0 1 -0.25477,-0.334865 4.2087448,4.2087456 0 0 1 -0.21962,-0.358634 4.2087448,4.2087456 0 0 1 -0.18294,-0.378788 4.2087448,4.2087456 0 0 1 -0.14418,-0.395325 4.2087448,4.2087456 0 0 1 -0.10439,-0.407173 4.2087448,4.2087456 0 0 1 -0.0625,-0.415996 4.2087448,4.2087456 0 0 1 -0.0212,-0.420129 V 73.05955 a 4.2087448,4.2087456 0 0 1 0.0212,-0.420129 4.2087448,4.2087456 0 0 1 0.0625,-0.415994 4.2087448,4.2087456 0 0 1 0.10439,-0.407212 4.2087448,4.2087456 0 0 1 0.14418,-0.395325 4.2087448,4.2087456 0 0 1 0.18293,-0.378788 4.2087448,4.2087456 0 0 1 0.21963,-0.358632 4.2087448,4.2087456 0 0 1 0.25476,-0.334865 4.2087448,4.2087456 0 0 1 0.2868,-0.30799 4.2087448,4.2087456 0 0 1 0.31626,-0.277503 4.2087448,4.2087456 0 0 1 0.3421,-0.244946 4.2087448,4.2087456 0 0 1 0.36484,-0.209291 4.2087448,4.2087456 0 0 1 0.38395,-0.172082 4.2087448,4.2087456 0 0 1 0.39946,-0.132292 4.2087448,4.2087456 0 0 1 0.41031,-0.0925 4.2087448,4.2087456 0 0 1 0.41755,-0.05064 4.2087448,4.2087456 0 0 1 0.29765,-0.01035 h 2.54972 c 0.32674,-3e-6 0.71349,0.0032 1.02216,0 2.62591,0.0042 4.96301,1.293389 6.35362,3.453537 0.38282,1.019839 1.36242,1.743046 2.51922,1.743046 1.49199,0 2.69286,-1.200867 2.69286,-2.69286 v -0.0036 -2.72128 -0.892968 -0.326597 c 0,-0.31438 -0.0375,-0.619164 -0.10335,-0.913122 -0.60752,-3.727079 -3.82637,-6.464813 -7.60264,-6.466271 h -15.7763 -0.12402 -0.42271 -0.12403 z"
       id="rect826-9"
       inkscape:export-filename="C:\Users\Alec\rect826-9.png"
       inkscape:export-xdpi="96"
       inkscape:export-ydpi="96" />
  </g>
</svg>
