<?xml version="1.0" encoding="UTF-8" standalone="no"?>
<!-- Created with Inkscape (http://www.inkscape.org/) -->

<svg
   xmlns:dc="http://purl.org/dc/elements/1.1/"
   xmlns:cc="http://creativecommons.org/ns#"
   xmlns:rdf="http://www.w3.org/1999/02/22-rdf-syntax-ns#"
   xmlns:svg="http://www.w3.org/2000/svg"
   xmlns="http://www.w3.org/2000/svg"
   xmlns:sodipodi="http://sodipodi.sourceforge.net/DTD/sodipodi-0.dtd"
   xmlns:inkscape="http://www.inkscape.org/namespaces/inkscape"
   width="31.92103mm"
   height="41.742596mm"
   viewBox="0 0 31.92103 41.742596"
   version="1.1"
   id="svg2761"
   inkscape:version="0.92.4 (5da689c313, 2019-01-14)"
   sodipodi:docname="F.svg">
  <defs
     id="defs2755" />
  <sodipodi:namedview
     id="base"
     pagecolor="#ffffff"
     bordercolor="#666666"
     borderopacity="1.0"
     inkscape:pageopacity="0.0"
     inkscape:pageshadow="2"
     inkscape:zoom="0.35"
     inkscape:cx="-235.14562"
     inkscape:cy="-56.125514"
     inkscape:document-units="mm"
     inkscape:current-layer="layer1"
     showgrid="false"
     fit-margin-top="0"
     fit-margin-left="0"
     fit-margin-right="0"
     fit-margin-bottom="0"
     inkscape:window-width="1600"
     inkscape:window-height="847"
     inkscape:window-x="-8"
     inkscape:window-y="22"
     inkscape:window-maximized="1" />
  <metadata
     id="metadata2758">
    <rdf:RDF>
      <cc:Work
         rdf:about="">
        <dc:format>image/svg+xml</dc:format>
        <dc:type
           rdf:resource="http://purl.org/dc/dcmitype/StillImage" />
        <dc:title></dc:title>
      </cc:Work>
    </rdf:RDF>
  </metadata>
  <g
     inkscape:label="Layer 1"
     inkscape:groupmode="layer"
     id="layer1"
     transform="translate(-31.977517,-92.240865)">
    <path
       inkscape:connector-curvature="0"
       style="opacity:1;fill:#000000;stroke:none;stroke-width:8.68272591;stroke-miterlimit:4;stroke-dasharray:none"
       d="m 35.990707,92.241256 c -1.94917,0 -3.57068,1.336511 -4.01319,3.145544 a 10.772321,10.772321 0 0 1 3.75223,8.14627 1.32022,3.2815255 0 0 1 0.003,0.0331 v 19.09238 a 1.32022,3.2815255 0 0 1 -0.003,0.0331 10.772321,10.772321 0 0 1 -3.75223,8.14627 c 0.44251,1.80903 2.06402,3.14554 4.01319,3.14554 h 3.87884 0.51572 0.031 c 2.29168,0 4.13618,-1.84501 4.13618,-4.13669 v -8.10855 a 4.2087448,4.2087456 0 0 1 0.0212,-0.42013 4.2087448,4.2087456 0 0 1 0.0625,-0.416 4.2087448,4.2087456 0 0 1 0.10439,-0.40721 4.2087448,4.2087456 0 0 1 0.14418,-0.39532 4.2087448,4.2087456 0 0 1 0.18293,-0.37879 4.2087448,4.2087456 0 0 1 0.21963,-0.35864 4.2087448,4.2087456 0 0 1 0.25476,-0.33486 4.2087448,4.2087456 0 0 1 0.28681,-0.30799 4.2087448,4.2087456 0 0 1 0.31626,-0.2775 4.2087448,4.2087456 0 0 1 0.34209,-0.24495 4.2087448,4.2087456 0 0 1 0.36484,-0.20929 4.2087448,4.2087456 0 0 1 0.38395,-0.17208 4.2087448,4.2087456 0 0 1 0.39946,-0.13229 4.2087448,4.2087456 0 0 1 0.41032,-0.0925 4.2087448,4.2087456 0 0 1 0.41754,-0.0506 4.2087448,4.2087456 0 0 1 0.29766,-0.0104 h 4.2292 c 1.89434,0 3.41943,-1.6101 3.41943,-3.61012 v -0.47749 c 0,-2.00002 -1.52509,-3.61011 -3.41943,-3.61011 h -4.2292 a 4.2087448,4.2087456 0 0 1 -0.29766,-0.0104 4.2087448,4.2087456 0 0 1 -0.41754,-0.0506 4.2087448,4.2087456 0 0 1 -0.41032,-0.0925 4.2087448,4.2087456 0 0 1 -0.39946,-0.1323 4.2087448,4.2087456 0 0 1 -0.38395,-0.17208 4.2087448,4.2087456 0 0 1 -0.36484,-0.20929 4.2087448,4.2087456 0 0 1 -0.34209,-0.24494 4.2087448,4.2087456 0 0 1 -0.31626,-0.2775 4.2087448,4.2087456 0 0 1 -0.28681,-0.308 4.2087448,4.2087456 0 0 1 -0.25476,-0.33486 4.2087448,4.2087456 0 0 1 -0.21963,-0.35864 4.2087448,4.2087456 0 0 1 -0.18293,-0.37878 4.2087448,4.2087456 0 0 1 -0.14418,-0.39533 4.2087448,4.2087456 0 0 1 -0.10439,-0.40721 4.2087448,4.2087456 0 0 1 -0.0625,-0.41599 4.2087448,4.2087456 0 0 1 -0.0212,-0.42013 v -0.35347 a 4.2087448,4.2087456 0 0 1 0.0212,-0.42013 4.2087448,4.2087456 0 0 1 0.0625,-0.41599 4.2087448,4.2087456 0 0 1 0.10439,-0.40722 4.2087448,4.2087456 0 0 1 0.14418,-0.39532 4.2087448,4.2087456 0 0 1 0.18293,-0.37879 4.2087448,4.2087456 0 0 1 0.21963,-0.35863 4.2087448,4.2087456 0 0 1 0.25476,-0.33487 4.2087448,4.2087456 0 0 1 0.28681,-0.30799 4.2087448,4.2087456 0 0 1 0.31626,-0.2775 4.2087448,4.2087456 0 0 1 0.34209,-0.24494 4.2087448,4.2087456 0 0 1 0.36484,-0.2093 4.2087448,4.2087456 0 0 1 0.38395,-0.17208 4.2087448,4.2087456 0 0 1 0.39946,-0.13229 4.2087448,4.2087456 0 0 1 0.41032,-0.0925 4.2087448,4.2087456 0 0 1 0.41754,-0.0506 4.2087448,4.2087456 0 0 1 0.29766,-0.0104 h 2.54971 c 0.32674,0 0.71349,0.003 1.02216,0 2.6259,0.004 4.96301,1.29339 6.35362,3.45354 0.38283,1.01984 1.36242,1.74304 2.51923,1.74304 1.492,0 2.69286,-1.20086 2.69286,-2.69286 v -0.004 -2.72128 -0.892965 -0.326597 c 0,-0.31438 -0.0375,-0.619165 -0.10336,-0.913122 -0.60752,-3.727079 -3.82637,-6.464813 -7.60263,-6.466271 h -15.7763 -0.54674 z"
       id="rect826-9-4-1"
       inkscape:export-filename="C:\Users\Alec\rect826-9-4-1.png"
       inkscape:export-xdpi="96"
       inkscape:export-ydpi="96" />
  </g>
</svg>
