<?xml version="1.0" encoding="UTF-8" standalone="no"?>
<!-- Created with Inkscape (http://www.inkscape.org/) -->

<svg
   xmlns:dc="http://purl.org/dc/elements/1.1/"
   xmlns:cc="http://creativecommons.org/ns#"
   xmlns:rdf="http://www.w3.org/1999/02/22-rdf-syntax-ns#"
   xmlns:svg="http://www.w3.org/2000/svg"
   xmlns="http://www.w3.org/2000/svg"
   xmlns:sodipodi="http://sodipodi.sourceforge.net/DTD/sodipodi-0.dtd"
   xmlns:inkscape="http://www.inkscape.org/namespaces/inkscape"
   width="33.74316mm"
   height="42.21241mm"
   viewBox="0 0 33.74316 42.21241"
   version="1.1"
   id="svg2761"
   inkscape:version="0.92.4 (5da689c313, 2019-01-14)"
   sodipodi:docname="G.svg">
  <defs
     id="defs2755" />
  <sodipodi:namedview
     id="base"
     pagecolor="#ffffff"
     bordercolor="#666666"
     borderopacity="1.0"
     inkscape:pageopacity="0.0"
     inkscape:pageshadow="2"
     inkscape:zoom="0.35"
     inkscape:cx="-248.52189"
     inkscape:cy="612.21749"
     inkscape:document-units="mm"
     inkscape:current-layer="layer1"
     showgrid="false"
     fit-margin-top="0"
     fit-margin-left="0"
     fit-margin-right="0"
     fit-margin-bottom="0"
     inkscape:window-width="1600"
     inkscape:window-height="847"
     inkscape:window-x="-8"
     inkscape:window-y="22"
     inkscape:window-maximized="1" />
  <metadata
     id="metadata2758">
    <rdf:RDF>
      <cc:Work
         rdf:about="">
        <dc:format>image/svg+xml</dc:format>
        <dc:type
           rdf:resource="http://purl.org/dc/dcmitype/StillImage" />
        <dc:title></dc:title>
      </cc:Work>
    </rdf:RDF>
  </metadata>
  <g
     inkscape:label="Layer 1"
     inkscape:groupmode="layer"
     id="layer1"
     transform="translate(-35.516655,-87.174901)">
    <path
       style="opacity:1;fill:#000000;stroke:none;stroke-width:8.46253586;stroke-miterlimit:4;stroke-dasharray:none"
       d="m 54.547015,87.174901 c -10.51013,-1.6e-4 -19.03035,9.44945 -19.03036,21.106209 1e-5,11.65675 8.52023,21.10636 19.03036,21.1062 4.63278,-0.0245 9.09839,-1.92254 12.55944,-5.33817 0.32613,-0.28345 0.62174,-0.60674 0.8754,-0.96687 0.59999,-0.85372 0.76808,-1.35223 1.15722,-2.34711 0.0596,-0.348 0.12074,-0.69362 0.12074,-0.84753 v -2.36574 -2.80087 -1.43867 c -0.002,-3.77626 -2.7392,-6.99512 -6.46627,-7.60263 -0.29396,-0.0659 -0.59875,-0.10336 -0.91313,-0.10336 h -0.32659 -0.89349 -2.72076 -0.004 c -1.492,0 -3.81539,1.08394 -3.81539,2.57593 0,1.15679 2.05621,1.87915 3.07605,2.26198 2.16015,1.3906 3.49611,3.21321 3.50031,5.83912 -0.10374,0.62809 -0.26525,1.17885 -0.25725,1.2685 h 0.0656 c -0.007,0.0123 0.10539,-0.47286 -0.0191,0.031 l -0.0465,-0.031 c -0.59061,1.35841 -1.53266,2.92736 -3.69281,3.15536 -0.19097,0.018 -0.38209,0.03 -0.5736,0.0356 -5.90806,1e-5 -10.69698,-5.76652 -10.69703,-12.87983 -1.5e-4,-7.11349 4.78881,-12.879829 10.69703,-12.879829 0.39206,0.006 0.7839,0.0378 1.17305,0.0956 0.97996,0.25997 1.33366,0.75334 1.67793,1.3162 0.29668,0.53643 0.59242,1.19131 0.88729,1.99677 0.20656,0.4626 0.37964,0.63655 0.51831,0.7643 0.0151,0.0161 0.15525,0.15028 0.17105,0.16588 l -0.008,-0.0114 c 1.72146,1.554729 4.17884,1.773569 5.95313,0.5302 2.12707,-1.49445 2.54954,-4.55878 0.94309,-6.84455 -0.21119,-0.2998 -0.4533,-0.57167 -0.71572,-0.81907 l 0.003,-0.001 -0.0295,-0.0248 c -0.12719,-0.11811 -0.25906,-0.22998 -0.39633,-0.33474 -3.35279,-2.96872 -7.51168,-4.59382 -11.80186,-4.61161 z"
       id="path1814-2"
       inkscape:connector-curvature="0"
       sodipodi:nodetypes="ccccccsccccscccsscccccccccccccccccccccccc"
       inkscape:export-filename="C:\Users\Alec\path1814-2.png"
       inkscape:export-xdpi="96"
       inkscape:export-ydpi="96" />
  </g>
</svg>
