<?xml version="1.0" encoding="UTF-8" standalone="no"?>
<!-- Created with Inkscape (http://www.inkscape.org/) -->

<svg
   xmlns:dc="http://purl.org/dc/elements/1.1/"
   xmlns:cc="http://creativecommons.org/ns#"
   xmlns:rdf="http://www.w3.org/1999/02/22-rdf-syntax-ns#"
   xmlns:svg="http://www.w3.org/2000/svg"
   xmlns="http://www.w3.org/2000/svg"
   xmlns:sodipodi="http://sodipodi.sourceforge.net/DTD/sodipodi-0.dtd"
   xmlns:inkscape="http://www.inkscape.org/namespaces/inkscape"
   width="37.789848mm"
   height="41.74218mm"
   viewBox="0 0 37.789848 41.74218"
   version="1.1"
   id="svg2761"
   inkscape:version="0.92.4 (5da689c313, 2019-01-14)"
   sodipodi:docname="H.svg">
  <defs
     id="defs2755" />
  <sodipodi:namedview
     id="base"
     pagecolor="#ffffff"
     bordercolor="#666666"
     borderopacity="1.0"
     inkscape:pageopacity="0.0"
     inkscape:pageshadow="2"
     inkscape:zoom="0.35"
     inkscape:cx="-514.25157"
     inkscape:cy="-394.61388"
     inkscape:document-units="mm"
     inkscape:current-layer="layer1"
     showgrid="false"
     fit-margin-top="0"
     fit-margin-left="0"
     fit-margin-right="0"
     fit-margin-bottom="0"
     inkscape:window-width="1600"
     inkscape:window-height="847"
     inkscape:window-x="-8"
     inkscape:window-y="22"
     inkscape:window-maximized="1" />
  <metadata
     id="metadata2758">
    <rdf:RDF>
      <cc:Work
         rdf:about="">
        <dc:format>image/svg+xml</dc:format>
        <dc:type
           rdf:resource="http://purl.org/dc/dcmitype/StillImage" />
        <dc:title></dc:title>
      </cc:Work>
    </rdf:RDF>
  </metadata>
  <g
     inkscape:label="Layer 1"
     inkscape:groupmode="layer"
     id="layer1"
     transform="translate(-105.8243,178.74567)">
    <path
       inkscape:connector-curvature="0"
       style="opacity:1;fill:#000000;stroke:none;stroke-width:8.68272591;stroke-miterlimit:4;stroke-dasharray:none"
       d="m 109.8375,-178.74567 c -1.94917,0 -3.57069,1.33652 -4.0132,3.14555 a 10.77232,10.77232 0 0 1 3.75223,8.14627 1.32022,3.2815255 0 0 1 0.003,0.0331 v 26.28057 c 0,2.29169 1.84501,4.13669 4.1367,4.13669 h 0.54674 c 2.29168,0 4.13618,-1.845 4.13618,-4.13669 v -8.739 a 3.5852791,3.5852798 0 0 1 0.009,-0.25374 3.5852791,3.5852798 0 0 1 0.0434,-0.35553 3.5852791,3.5852798 0 0 1 0.0786,-0.34985 3.5852791,3.5852798 0 0 1 0.11317,-0.34003 3.5852791,3.5852798 0 0 1 0.14624,-0.32711 3.5852791,3.5852798 0 0 1 0.17829,-0.3111 3.5852791,3.5852798 0 0 1 0.20825,-0.29145 3.5852791,3.5852798 0 0 1 0.23668,-0.26923 3.5852791,3.5852798 0 0 1 0.26252,-0.24392 3.5852791,3.5852798 0 0 1 0.28525,-0.21704 3.5852791,3.5852798 0 0 1 0.30541,-0.18758 3.5852791,3.5852798 0 0 1 0.32246,-0.15555 3.5852791,3.5852798 0 0 1 0.33693,-0.12299 3.5852791,3.5852798 0 0 1 0.34727,-0.0889 3.5852791,3.5852798 0 0 1 0.35398,-0.0532 3.5852791,3.5852798 0 0 1 0.35812,-0.0181 h 5.59862 a 3.5852791,3.5852798 0 0 1 0.35812,0.0181 3.5852791,3.5852798 0 0 1 0.35398,0.0532 3.5852791,3.5852798 0 0 1 0.34727,0.0889 3.5852791,3.5852798 0 0 1 0.33693,0.12299 3.5852791,3.5852798 0 0 1 0.32246,0.15555 3.5852791,3.5852798 0 0 1 0.30541,0.18758 3.5852791,3.5852798 0 0 1 0.28525,0.21704 3.5852791,3.5852798 0 0 1 0.26252,0.24392 3.5852791,3.5852798 0 0 1 0.23667,0.26923 3.5852791,3.5852798 0 0 1 0.20826,0.29145 3.5852791,3.5852798 0 0 1 0.17829,0.3111 3.5852791,3.5852798 0 0 1 0.14624,0.32711 3.5852791,3.5852798 0 0 1 0.11317,0.34003 3.5852791,3.5852798 0 0 1 0.0786,0.34985 3.5852791,3.5852798 0 0 1 0.0434,0.35553 3.5852791,3.5852798 0 0 1 0.009,0.25374 v 8.739 c 0,2.29168 1.845,4.13669 4.1367,4.13669 h 0.39894 0.1478 3.7486 c 1.94918,0 3.57069,-1.33651 4.0132,-3.14554 -2.16517,-1.86207 -3.41398,-4.50499 -3.62562,-7.34322 v -6.91534 -15.51792 h 0.0181 v -4.68343 c 0,-0.28646 -0.0288,-0.56584 -0.0837,-0.83561 -0.0549,-0.26977 -0.13642,-0.53011 -0.24081,-0.77773 -0.10439,-0.24762 -0.23195,-0.4828 -0.38034,-0.7028 -0.14839,-0.22 -0.31743,-0.42441 -0.50436,-0.61133 -0.18693,-0.18693 -0.39184,-0.35598 -0.61185,-0.50437 -0.22,-0.14838 -0.45518,-0.27646 -0.7028,-0.38085 -0.24762,-0.10439 -0.50744,-0.18537 -0.77722,-0.2403 -0.26976,-0.0549 -0.54914,-0.0837 -0.8356,-0.0837 h -0.0176 -0.52917 -0.0176 -3.87883 c -1.94917,0 -3.57068,1.33652 -4.01319,3.14555 a 10.772321,10.772321 0 0 1 3.75222,8.14627 1.32022,3.2815255 0 0 1 0.003,0.0331 v 1.55081 a 3.5852791,3.5852798 0 0 1 -0.009,0.25373 3.5852791,3.5852798 0 0 1 -0.0434,0.35553 3.5852791,3.5852798 0 0 1 -0.0786,0.34985 3.5852791,3.5852798 0 0 1 -0.11317,0.34004 3.5852791,3.5852798 0 0 1 -0.14624,0.32711 3.5852791,3.5852798 0 0 1 -0.17829,0.31109 3.5852791,3.5852798 0 0 1 -0.20825,0.29146 3.5852791,3.5852798 0 0 1 -0.23668,0.26923 3.5852791,3.5852798 0 0 1 -0.26252,0.24391 3.5852791,3.5852798 0 0 1 -0.28525,0.21704 3.5852791,3.5852798 0 0 1 -0.30541,0.18759 3.5852791,3.5852798 0 0 1 -0.32246,0.15554 3.5852791,3.5852798 0 0 1 -0.33693,0.12299 3.5852791,3.5852798 0 0 1 -0.34727,0.0889 3.5852791,3.5852798 0 0 1 -0.35398,0.0532 3.5852791,3.5852798 0 0 1 -0.35812,0.0181 h -5.59865 a 3.5852791,3.5852798 0 0 1 -0.35812,-0.0181 3.5852791,3.5852798 0 0 1 -0.35398,-0.0532 3.5852791,3.5852798 0 0 1 -0.34727,-0.0889 3.5852791,3.5852798 0 0 1 -0.33693,-0.12299 3.5852791,3.5852798 0 0 1 -0.32246,-0.15554 3.5852791,3.5852798 0 0 1 -0.30592,-0.18759 3.5852791,3.5852798 0 0 1 -0.28526,-0.21704 3.5852791,3.5852798 0 0 1 -0.262,-0.24391 3.5852791,3.5852798 0 0 1 -0.23667,-0.26923 3.5852791,3.5852798 0 0 1 -0.20826,-0.29146 3.5852791,3.5852798 0 0 1 -0.17828,-0.31109 3.5852791,3.5852798 0 0 1 -0.14677,-0.32711 3.5852791,3.5852798 0 0 1 -0.11265,-0.34004 3.5852791,3.5852798 0 0 1 -0.0785,-0.34985 3.5852791,3.5852798 0 0 1 -0.0434,-0.35553 3.5852791,3.5852798 0 0 1 -0.009,-0.25373 v -4.05557 h 0.0181 v -4.68343 c 0,-0.28646 -0.0288,-0.56584 -0.0837,-0.83561 -0.0549,-0.26977 -0.13642,-0.53011 -0.24081,-0.77773 -0.10439,-0.24762 -0.23195,-0.4828 -0.38034,-0.7028 -0.14839,-0.22 -0.31743,-0.4244 -0.50436,-0.61133 -0.18693,-0.18693 -0.39184,-0.35598 -0.61185,-0.50436 -0.22,-0.1484 -0.45518,-0.27647 -0.7028,-0.38086 -0.24762,-0.10439 -0.50744,-0.18538 -0.77721,-0.2403 -0.26977,-0.0549 -0.54915,-0.0837 -0.83561,-0.0837 h -0.0176 -0.52917 -0.0176 z"
       id="path2713" />
  </g>
</svg>
