<?xml version="1.0" encoding="UTF-8" standalone="no"?>
<!-- Created with Inkscape (http://www.inkscape.org/) -->

<svg
   xmlns:dc="http://purl.org/dc/elements/1.1/"
   xmlns:cc="http://creativecommons.org/ns#"
   xmlns:rdf="http://www.w3.org/1999/02/22-rdf-syntax-ns#"
   xmlns:svg="http://www.w3.org/2000/svg"
   xmlns="http://www.w3.org/2000/svg"
   xmlns:sodipodi="http://sodipodi.sourceforge.net/DTD/sodipodi-0.dtd"
   xmlns:inkscape="http://www.inkscape.org/namespaces/inkscape"
   width="37.789322mm"
   height="41.74218mm"
   viewBox="0 0 37.789321 41.74218"
   version="1.1"
   id="svg2761"
   inkscape:version="0.92.4 (5da689c313, 2019-01-14)"
   sodipodi:docname="h1.svg">
  <defs
     id="defs2755" />
  <sodipodi:namedview
     id="base"
     pagecolor="#ffffff"
     bordercolor="#666666"
     borderopacity="1.0"
     inkscape:pageopacity="0.0"
     inkscape:pageshadow="2"
     inkscape:zoom="2.8"
     inkscape:cx="20.839419"
     inkscape:cy="80.9707"
     inkscape:document-units="mm"
     inkscape:current-layer="layer1"
     showgrid="false"
     fit-margin-top="0"
     fit-margin-left="0"
     fit-margin-right="0"
     fit-margin-bottom="0"
     inkscape:window-width="1600"
     inkscape:window-height="847"
     inkscape:window-x="-8"
     inkscape:window-y="22"
     inkscape:window-maximized="1"
     inkscape:snap-global="false" />
  <metadata
     id="metadata2758">
    <rdf:RDF>
      <cc:Work
         rdf:about="">
        <dc:format>image/svg+xml</dc:format>
        <dc:type
           rdf:resource="http://purl.org/dc/dcmitype/StillImage" />
        <dc:title></dc:title>
      </cc:Work>
    </rdf:RDF>
  </metadata>
  <g
     inkscape:label="Layer 1"
     inkscape:groupmode="layer"
     id="layer1"
     transform="translate(-117.9609,157.19874)">
    <path
       style="opacity:1;fill:#000000;stroke:none;stroke-width:4.95201492;stroke-miterlimit:4;stroke-dasharray:none"
       d="m 134.14253,-153.25199 c -1.11166,0 -2.2407,0.76226 -2.76953,1.794 a 5.3755562,7.0217754 48.81537 0 1 0.89509,4.64606 0.72306723,1.9489249 17.482421 0 1 -0.003,0.0189 l -0.18519,0.69113 h 0.01 l -3.83097,14.29745 c -0.002,0.006 -0.002,0.0118 -0.004,0.0177 l -3.3382,12.45835 c -0.01,0.0646 -0.0187,0.12877 -0.0228,0.19158 -0.01,0.15386 -0.003,0.30234 0.0185,0.44357 0.0217,0.14122 0.0585,0.27535 0.10951,0.40082 0.051,0.12548 0.1162,0.24205 0.19424,0.34866 0.078,0.10662 0.16908,0.20303 0.27187,0.28765 0.1028,0.0846 0.21735,0.15768 0.34263,0.21721 0.12529,0.0596 0.26108,0.10573 0.40654,0.13705 0.14547,0.0313 0.30041,0.0477 0.46379,0.0477 h 0.01 0.0153 0.29678 0.0151 2.19747 c 1.11167,0 2.24071,-0.76226 2.76955,-1.794 a 5.3755555,7.0217743 48.81537 0 1 -0.92882,-4.50371 l 2.20338,-8.22315 c 0.003,-0.01 0.007,-0.0195 0.009,-0.0295 l 0.2009,-0.74979 a 1.5987926,2.0884093 48.81537 0 1 0.97151,-1.32685 1.5987926,2.0884093 48.81537 0 1 0.002,-0.001 7.2720474,9.4990512 48.81537 0 1 6.0371,-2.07753 7.2720474,9.4990512 48.81537 0 1 1.75056,0.21162 1.5177078,1.9824931 48.81537 0 1 0.11141,0.0451 1.5177078,1.9824931 48.81537 0 1 0.13598,0.0754 1.5177078,1.9824931 48.81537 0 1 0.12371,0.0905 1.5177078,1.9824931 48.81537 0 1 0.10982,0.10492 1.5177078,1.9824931 48.81537 0 1 0.0951,0.11819 1.5177078,1.9824931 48.81537 0 1 0.0797,0.13027 1.5177078,1.9824931 48.81537 0 1 0.063,0.14117 1.5177078,1.9824931 48.81537 0 1 0.0461,0.15031 1.5177078,1.9824931 48.81537 0 1 0.0283,0.15827 1.5177078,1.9824931 48.81537 0 1 0.0104,0.16446 1.5177078,1.9824931 48.81537 0 1 -0.007,0.16917 1.5177078,1.9824931 48.81537 0 1 -0.0252,0.17212 1.5177078,1.9824931 48.81537 0 1 -0.0114,0.0492 l -3.97921,14.85065 c -0.01,0.0645 -0.0184,0.12875 -0.0225,0.19157 -0.01,0.15386 -0.003,0.30235 0.0182,0.44356 0.0217,0.14123 0.0585,0.27536 0.10951,0.40083 0.0511,0.12547 0.11589,0.24205 0.19394,0.34866 0.078,0.10662 0.16937,0.20303 0.27218,0.28765 0.1028,0.0846 0.21736,0.15768 0.34262,0.21722 0.12527,0.0595 0.26108,0.10572 0.40654,0.13704 0.14547,0.0313 0.30042,0.0477 0.46378,0.0477 h 0.01 0.3018 0.01 2.2125 c 1.11168,0 2.24073,-0.76225 2.76955,-1.794 a 5.3755555,7.0217743 48.81537 0 1 -0.8951,-4.64606 0.72306717,1.9489249 17.48242 0 1 0.003,-0.0189 l 2.41882,-9.02715 a 7.2720474,9.4990512 48.81537 0 0 0.002,-0.009 7.2720474,9.4990512 48.81537 0 0 -6.08428,-8.3113 7.2720474,9.4990512 48.81537 0 0 -6.43007,2.36606 l 2.55269,-9.52672 0.71571,-2.6711 c 0.0438,-0.16338 0.07,-0.32272 0.0799,-0.47657 0.005,-0.0769 0.006,-0.15265 0.003,-0.22665 -0.006,-0.14786 -0.0283,-0.28941 -0.0649,-0.42315 -0.0183,-0.0669 -0.0403,-0.13179 -0.0658,-0.19452 -0.051,-0.12548 -0.11618,-0.24205 -0.19423,-0.34866 -0.15609,-0.21329 -0.36361,-0.38577 -0.61421,-0.50487 0,0 -3e-4,0 -3e-4,0 -0.0626,-0.0297 -0.12775,-0.0561 -0.19546,-0.079 0,0 -3e-4,0 -3e-4,0 -0.0678,-0.0229 -0.13806,-0.0424 -0.21078,-0.0581 -0.0726,-0.0156 -0.1478,-0.0277 -0.22505,-0.0357 0,0 -2.8e-4,0 -2.8e-4,0 -0.0774,-0.008 -0.15676,-0.0121 -0.23845,-0.0121 h -0.31182 -0.01 z"
       id="path5026"
       inkscape:connector-curvature="0" />
  </g>
</svg>
