<?xml version="1.0" encoding="UTF-8" standalone="no"?>
<!-- Created with Inkscape (http://www.inkscape.org/) -->

<svg
   xmlns:dc="http://purl.org/dc/elements/1.1/"
   xmlns:cc="http://creativecommons.org/ns#"
   xmlns:rdf="http://www.w3.org/1999/02/22-rdf-syntax-ns#"
   xmlns:svg="http://www.w3.org/2000/svg"
   xmlns="http://www.w3.org/2000/svg"
   xmlns:sodipodi="http://sodipodi.sourceforge.net/DTD/sodipodi-0.dtd"
   xmlns:inkscape="http://www.inkscape.org/namespaces/inkscape"
   width="12.59296mm"
   height="41.742184mm"
   viewBox="0 0 12.59296 41.742184"
   version="1.1"
   id="svg2761"
   inkscape:version="0.92.4 (5da689c313, 2019-01-14)"
   sodipodi:docname="I.svg">
  <defs
     id="defs2755" />
  <sodipodi:namedview
     id="base"
     pagecolor="#ffffff"
     bordercolor="#666666"
     borderopacity="1.0"
     inkscape:pageopacity="0.0"
     inkscape:pageshadow="2"
     inkscape:zoom="0.35"
     inkscape:cx="-840.60995"
     inkscape:cy="-176.77464"
     inkscape:document-units="mm"
     inkscape:current-layer="layer1"
     showgrid="false"
     fit-margin-top="0"
     fit-margin-left="0"
     fit-margin-right="0"
     fit-margin-bottom="0"
     inkscape:window-width="1600"
     inkscape:window-height="847"
     inkscape:window-x="-8"
     inkscape:window-y="22"
     inkscape:window-maximized="1" />
  <metadata
     id="metadata2758">
    <rdf:RDF>
      <cc:Work
         rdf:about="">
        <dc:format>image/svg+xml</dc:format>
        <dc:type
           rdf:resource="http://purl.org/dc/dcmitype/StillImage" />
        <dc:title></dc:title>
      </cc:Work>
    </rdf:RDF>
  </metadata>
  <g
     inkscape:label="Layer 1"
     inkscape:groupmode="layer"
     id="layer1"
     transform="translate(-192.17329,121.10904)">
    <path
       inkscape:connector-curvature="0"
       style="opacity:1;fill:#000000;stroke:none;stroke-width:8.68271542;stroke-miterlimit:4;stroke-dasharray:none"
       d="m 196.18648,-121.10904 c -1.94917,0 -3.57068,1.33651 -4.01319,3.14554 a 10.772322,10.772322 0 0 1 3.75223,8.14628 1.3202201,3.2815255 0 0 1 0.003,0.0331 v 1.21181 h 0.0176 v 25.068764 c 0,2.29167 1.84502,4.13669 4.1367,4.13669 h 0.54673 c 2.29168,0 4.1367,-1.84502 4.1367,-4.13669 v -28.785334 -4.68343 c 0,-0.28646 -0.0288,-0.56584 -0.0837,-0.83561 -0.0275,-0.13488 -0.0615,-0.26763 -0.10181,-0.39739 -0.0803,-0.25938 -0.18557,-0.50759 -0.31264,-0.74208 -0.0635,-0.11724 -0.13251,-0.23106 -0.20671,-0.34106 -0.14839,-0.22 -0.31743,-0.4244 -0.50436,-0.61133 -0.3739,-0.37397 -0.81878,-0.6764 -1.31413,-0.88522 -1.5e-4,-6e-5 -2.6e-4,6e-5 -5.3e-4,0 -0.12366,-0.0521 -0.25035,-0.0984 -0.37982,-0.13849 -1.6e-4,-5e-5 -2.6e-4,5e-5 -5.3e-4,0 -0.12962,-0.0402 -0.26199,-0.0743 -0.39687,-0.10181 -0.13472,-0.0274 -0.27215,-0.0485 -0.41134,-0.0625 -1.7e-4,-2e-5 -2.7e-4,1e-5 -5.3e-4,0 -0.13938,-0.014 -0.28052,-0.0212 -0.42375,-0.0212 h -0.54674 -0.0176 z"
       id="rect826-90"
       inkscape:export-filename="C:\Users\Alec\rect826-90.png"
       inkscape:export-xdpi="96"
       inkscape:export-ydpi="96" />
  </g>
</svg>
