<?xml version="1.0" encoding="UTF-8" standalone="no"?>
<!-- Created with Inkscape (http://www.inkscape.org/) -->

<svg
   xmlns:dc="http://purl.org/dc/elements/1.1/"
   xmlns:cc="http://creativecommons.org/ns#"
   xmlns:rdf="http://www.w3.org/1999/02/22-rdf-syntax-ns#"
   xmlns:svg="http://www.w3.org/2000/svg"
   xmlns="http://www.w3.org/2000/svg"
   xmlns:sodipodi="http://sodipodi.sourceforge.net/DTD/sodipodi-0.dtd"
   xmlns:inkscape="http://www.inkscape.org/namespaces/inkscape"
   width="26.85244mm"
   height="41.74218mm"
   viewBox="0 0 26.852439 41.74218"
   version="1.1"
   id="svg2761"
   inkscape:version="0.92.4 (5da689c313, 2019-01-14)"
   sodipodi:docname="J.svg">
  <defs
     id="defs2755" />
  <sodipodi:namedview
     id="base"
     pagecolor="#ffffff"
     bordercolor="#666666"
     borderopacity="1.0"
     inkscape:pageopacity="0.0"
     inkscape:pageshadow="2"
     inkscape:zoom="0.35"
     inkscape:cx="-1067.008"
     inkscape:cy="7.8225087"
     inkscape:document-units="mm"
     inkscape:current-layer="layer1"
     showgrid="false"
     fit-margin-top="0"
     fit-margin-left="0"
     fit-margin-right="0"
     fit-margin-bottom="0"
     inkscape:window-width="1600"
     inkscape:window-height="847"
     inkscape:window-x="-8"
     inkscape:window-y="22"
     inkscape:window-maximized="1" />
  <metadata
     id="metadata2758">
    <rdf:RDF>
      <cc:Work
         rdf:about="">
        <dc:format>image/svg+xml</dc:format>
        <dc:type
           rdf:resource="http://purl.org/dc/dcmitype/StillImage" />
        <dc:title></dc:title>
      </cc:Work>
    </rdf:RDF>
  </metadata>
  <g
     inkscape:label="Layer 1"
     inkscape:groupmode="layer"
     id="layer1"
     transform="translate(-252.07445,72.267709)">
    <path
       style="opacity:1;fill:#000000;stroke:none;stroke-width:8.68271542;stroke-miterlimit:4;stroke-dasharray:none"
       d="m 266.57081,-72.267679 c -1.94917,0 -3.57068,1.33651 -4.01319,3.14554 2.37543,2.04089 3.7451,5.01451 3.75222,8.14627 10e-4,0.011 0.002,0.022 0.003,0.0331 v 1.21182 h 0.0176 v 17.41909 c -6e-5,0.09889 -0.005,0.197715 -0.015,0.296105 -0.01,0.09834 -0.0244,0.196131 -0.0439,0.293005 -0.0197,0.09694 -0.0442,0.192831 -0.0734,0.287322 -0.0293,0.09449 -0.0632,0.187444 -0.10181,0.278535 -0.0386,0.09116 -0.0817,0.180324 -0.12919,0.267168 -0.0474,0.08676 -0.0992,0.171101 -0.15503,0.252696 -0.0558,0.08166 -0.11564,0.16048 -0.17931,0.236161 -0.0637,0.07567 -0.13113,0.148109 -0.20206,0.217043 -0.0709,0.06878 -0.14528,0.133975 -0.22273,0.195337 -0.0775,0.06152 -0.15805,0.119126 -0.24132,0.172598 -0.0831,0.05351 -0.16882,0.102838 -0.25684,0.147794 -0.0882,0.0448 -0.17856,0.08516 -0.27078,0.120922 -0.0923,0.03586 -0.18626,0.06708 -0.28164,0.09354 -0.0951,0.0265 -0.19155,0.04823 -0.28887,0.06511 -0.0682,0.01066 -0.13684,0.01894 -0.20567,0.02479 -2.53204,-0.160571 -4.76049,-1.417781 -6.12262,-3.435448 -0.40148,-1.019839 -1.42857,-1.743046 -2.6417,-1.743046 -1.56465,0 -2.82412,1.200864 -2.82412,2.692858 v 0.0036 2.721282 0.892969 0.326596 c 0,0.314381 0.0395,0.619165 0.10852,0.913122 0.63709,3.72708 4.01248,6.464822 7.97264,6.466272 h 6.85384 3.45767 v 0 c 0.50508,-0.06628 0.85042,-0.248304 1.41181,-0.590034 0.35224,-0.208238 0.50171,-0.348203 0.73277,-0.622295 0.23112,-0.27418 0.44843,-0.55979 0.65112,-0.855761 0.20269,-0.295973 0.39051,-0.601935 0.56276,-0.916741 0.17239,-0.314751 0.32899,-0.637961 0.46922,-0.968415 0.14005,-0.330528 0.26353,-0.667882 0.37,-1.010793 0.10649,-0.342913 0.19584,-0.690957 0.26769,-1.042829 0.0719,-0.351729 0.12622,-0.706845 0.16278,-1.064019 0.0365,-0.357304 0.0551,-0.716214 0.0558,-1.075386 10e-4,-0.01101 0.002,-0.02204 0.003,-0.03307 v -13.293248 -7.73286 h 0.0176 v -1.21181 c 10e-4,-0.011 0.002,-0.0221 0.003,-0.0331 0.007,-3.13176 1.37679,-6.10538 3.75222,-8.14628 -0.4425,-1.80903 -2.06402,-3.14554 -4.01319,-3.14554 h -3.87883 -0.0176 -0.004 -0.54674 -0.0176 z"
       id="rect826-90-3"
       inkscape:connector-curvature="0"
       sodipodi:nodetypes="sccccccccccccccccccccccsscccscccccccccccccccccccccscccccs"
       inkscape:export-filename="C:\Users\Alec\rect826-90-3.png"
       inkscape:export-xdpi="96"
       inkscape:export-ydpi="96" />
  </g>
</svg>
