<?xml version="1.0" encoding="UTF-8" standalone="no"?>
<!-- Created with Inkscape (http://www.inkscape.org/) -->

<svg
   xmlns:dc="http://purl.org/dc/elements/1.1/"
   xmlns:cc="http://creativecommons.org/ns#"
   xmlns:rdf="http://www.w3.org/1999/02/22-rdf-syntax-ns#"
   xmlns:svg="http://www.w3.org/2000/svg"
   xmlns="http://www.w3.org/2000/svg"
   xmlns:sodipodi="http://sodipodi.sourceforge.net/DTD/sodipodi-0.dtd"
   xmlns:inkscape="http://www.inkscape.org/namespaces/inkscape"
   width="37.028324mm"
   height="41.742512mm"
   viewBox="0 0 37.028323 41.742511"
   version="1.1"
   id="svg2761"
   inkscape:version="0.92.4 (5da689c313, 2019-01-14)"
   sodipodi:docname="K.svg">
  <defs
     id="defs2755" />
  <sodipodi:namedview
     id="base"
     pagecolor="#ffffff"
     bordercolor="#666666"
     borderopacity="1.0"
     inkscape:pageopacity="0.0"
     inkscape:pageshadow="2"
     inkscape:zoom="0.98994949"
     inkscape:cx="-35.329516"
     inkscape:cy="-150.9141"
     inkscape:document-units="mm"
     inkscape:current-layer="layer1"
     showgrid="false"
     fit-margin-top="0"
     fit-margin-left="0"
     fit-margin-right="0"
     fit-margin-bottom="0"
     inkscape:window-width="1600"
     inkscape:window-height="847"
     inkscape:window-x="-8"
     inkscape:window-y="22"
     inkscape:window-maximized="1" />
  <metadata
     id="metadata2758">
    <rdf:RDF>
      <cc:Work
         rdf:about="">
        <dc:format>image/svg+xml</dc:format>
        <dc:type
           rdf:resource="http://purl.org/dc/dcmitype/StillImage" />
        <dc:title></dc:title>
      </cc:Work>
    </rdf:RDF>
  </metadata>
  <g
     inkscape:label="Layer 1"
     inkscape:groupmode="layer"
     id="layer1"
     transform="translate(-139.8595,153.67628)">
    <path
       style="opacity:1;fill:#000000;stroke:none;stroke-width:8.68272591;stroke-miterlimit:4;stroke-dasharray:none"
       d="m 143.87273,-153.67598 c -0.73094,0 -1.4158,0.18798 -2.00969,0.51831 -0.19785,0.11004 -0.38522,0.23624 -0.56121,0.3762 -0.0881,0.07 -0.17332,0.14326 -0.25528,0.22015 -0.57379,0.53825 -0.99338,1.2393 -1.18701,2.03088 h 5.3e-4 c 0.21518,0.18889 0.42273,0.38627 0.62219,0.5917 0.12227,0.12438 0.2415,0.25171 0.3576,0.38188 0.12543,0.13824 0.24726,0.2797 0.36535,0.42427 0.1071,0.13358 0.211,0.2697 0.31161,0.40824 0.11054,0.14932 0.2172,0.30147 0.31987,0.4563 0.0956,0.14708 0.18763,0.29647 0.27595,0.44804 0.0933,0.15687 0.18252,0.31608 0.26769,0.47749 0.0805,0.15572 0.15716,0.31338 0.22996,0.47284 0.0785,0.16807 0.15254,0.33814 0.22221,0.51004 0.0629,0.15963 0.12202,0.32073 0.17725,0.48318 0.0618,0.17625 0.11901,0.35408 0.17156,0.5333 0.0471,0.16586 0.0901,0.33282 0.1292,0.50075 0.044,0.18205 0.0833,0.36522 0.11782,0.54932 0.0296,0.16748 0.0553,0.33565 0.077,0.50436 0.0259,0.18683 0.047,0.3743 0.063,0.56224 0.0245,0.2717 0.0386,0.54423 0.0424,0.817 2.7e-4,0.008 8e-4,0.0169 0.001,0.0253 0.001,0.011 0.002,0.022 0.003,0.0331 v 19.09238 c -0.001,0.011 -0.002,0.0221 -0.003,0.0331 -0.003,0.28764 -0.0185,0.57502 -0.045,0.86145 -0.0149,0.17044 -0.0338,0.3405 -0.0568,0.51004 -0.0238,0.1878 -0.0526,0.37493 -0.0863,0.56121 -0.0316,0.16687 -0.067,0.33297 -0.10645,0.49816 -0.0421,0.18258 -0.089,0.36402 -0.14056,0.54416 -0.0491,0.16627 -0.10213,0.33134 -0.15917,0.49505 -0.0592,0.17525 -0.123,0.34894 -0.1912,0.5209 -0.0651,0.15977 -0.13401,0.31794 -0.2067,0.47439 -0.0777,0.17111 -0.15993,0.34015 -0.2465,0.50695 -0.0797,0.15009 -0.16291,0.29827 -0.2496,0.44442 -0.0945,0.16275 -0.19322,0.323 -0.2961,0.48059 -0.0942,0.14181 -0.1917,0.28138 -0.29249,0.41858 -0.11108,0.15356 -0.22618,0.30416 -0.3452,0.45165 -0.10738,0.13074 -0.21783,0.25893 -0.33125,0.38447 -0.12505,0.14081 -0.25376,0.27832 -0.38602,0.41238 -0.19261,0.19761 -0.39275,0.38775 -0.59996,0.56999 l -0.0124,0.0119 h -5.3e-4 c 0.19363,0.79158 0.61322,1.49263 1.18701,2.03088 0.0819,0.0768 0.16682,0.15019 0.25476,0.22014 h 5.3e-4 c 0.17599,0.13997 0.36337,0.26617 0.56121,0.37621 h 5.3e-4 c 0.0988,0.055 0.20017,0.10609 0.30386,0.15296 h 5.2e-4 c 0.10369,0.0469 0.20971,0.0898 0.31781,0.12816 h 5.3e-4 c 0.10811,0.0383 0.2181,0.0724 0.33022,0.1018 h 5.3e-4 c 0.11211,0.0294 0.22587,0.0544 0.34158,0.0744 2.6e-4,5e-5 7.9e-4,-6e-5 0.001,0 0.11554,0.0199 0.2332,0.0353 0.35191,0.0455 h 5.3e-4 c 0.11889,0.0102 0.23905,0.0155 0.3607,0.0155 h 5.3e-4 3.87832 0.001 0.54571 0.001 0.0176 c 0.14324,0 0.28489,-0.007 0.42427,-0.0212 0.13937,-0.0141 0.27646,-0.0351 0.41134,-0.0625 0.26977,-0.0549 0.5296,-0.13591 0.77722,-0.2403 0.24762,-0.10439 0.4828,-0.23246 0.7028,-0.38085 0.22001,-0.14839 0.4249,-0.31744 0.61185,-0.50437 0.0936,-0.0936 0.18239,-0.19144 0.26665,-0.29352 0.0842,-0.10197 0.16351,-0.20781 0.23771,-0.31781 0.14839,-0.22 0.27593,-0.45518 0.38034,-0.7028 0.10437,-0.24761 0.18591,-0.50796 0.24081,-0.77773 0.0225,-0.11014 0.0376,-0.22272 0.0512,-0.3359 v -0.27388 c 0.002,-0.0273 0.006,-0.0537 0.007,-0.0811 -0.002,-0.0484 -0.007,-0.0959 -0.007,-0.1447 v -7.68376 c 0.12488,-0.83831 0.84432,-1.45909 1.69188,-1.45986 0.23284,0.001 0.36654,-0.006 0.67645,0.14263 l 5.96811,5.96811 -0.002,0.002 2.62827,2.62774 -0.0129,0.0129 3.31143,3.31195 c 0.20256,0.20255 0.42051,0.37981 0.65009,0.53175 0.22957,0.15192 0.47147,0.27803 0.72037,0.3793 0.24891,0.10128 0.50536,0.17726 0.76584,0.22789 0.26049,0.0507 0.52475,0.076 0.7891,0.076 0.005,0 0.009,-5.3e-4 0.0139,-5.3e-4 7.9e-4,0 0.002,0 0.003,0 0.004,1e-5 0.009,5.3e-4 0.0129,5.3e-4 0.0968,0 0.1933,-0.007 0.28991,-0.0139 0.0322,-0.002 0.0645,-0.002 0.0966,-0.005 0.13101,-0.0123 0.2616,-0.031 0.39119,-0.0558 0.11458,-0.0219 0.22829,-0.0504 0.34107,-0.0822 0.0159,-0.004 0.0322,-0.007 0.0481,-0.0119 5.3e-4,-1.5e-4 10e-4,-2.6e-4 0.002,-5.3e-4 0.12191,-0.0359 0.24183,-0.0786 0.36071,-0.12609 0.006,-0.002 0.0125,-0.004 0.0186,-0.006 h 5.2e-4 c 0.12483,-0.0505 0.24798,-0.10778 0.36846,-0.17105 0.1208,-0.0634 0.23905,-0.13306 0.3545,-0.20929 0.1102,-0.0728 0.21749,-0.15225 0.32194,-0.23668 0.005,-0.004 0.0102,-0.007 0.015,-0.0108 0.10905,-0.089 0.21452,-0.18455 0.31626,-0.28629 l 0.38654,-0.38654 c 0.096,-0.096 0.18561,-0.19611 0.27026,-0.29869 l 2.45618,-2.45618 c 1.37827,-1.37827 1.57969,-3.46963 0.6134,-5.06171 -3.12283,0.23647 -6.19397,-0.89778 -8.41343,-3.1073 l -8.34523,-8.34523 8.34523,-8.34523 c 2.21946,-2.20951 5.2906,-3.34377 8.41343,-3.1073 0.96629,-1.59208 0.76487,-3.68344 -0.6134,-5.06171 l -2.45618,-2.45618 c -0.0847,-0.10268 -0.17416,-0.20258 -0.27026,-0.29869 l -0.38654,-0.38653 c -0.10181,-0.10181 -0.20715,-0.19728 -0.31626,-0.28629 -0.10857,-0.0886 -0.22053,-0.1706 -0.33538,-0.2465 -5.3e-4,-2.7e-4 -0.001,-7.9e-4 -0.002,-0.001 -0.0375,-0.0248 -0.0771,-0.0448 -0.11524,-0.0682 -0.0786,-0.0483 -0.15677,-0.0975 -0.23771,-0.14005 -5.3e-4,-2.6e-4 -0.001,-7.9e-4 -0.002,-0.001 -0.0298,-0.0156 -0.0609,-0.0275 -0.0909,-0.0424 -0.091,-0.045 -0.18253,-0.0898 -0.27595,-0.12764 -7.9e-4,-2.6e-4 -0.001,-7.9e-4 -0.002,-0.001 -0.0311,-0.0126 -0.0633,-0.0213 -0.0946,-0.0331 -0.0939,-0.0353 -0.18752,-0.0704 -0.28319,-0.0987 -0.001,-2.7e-4 -0.002,-8e-4 -0.003,-10e-4 -0.0275,-0.008 -0.0556,-0.0127 -0.0832,-0.0202 -0.10137,-0.0276 -0.20314,-0.0542 -0.30593,-0.0739 -0.12959,-0.0248 -0.26019,-0.0435 -0.39119,-0.0558 -0.0342,-0.003 -0.0686,-0.002 -0.10284,-0.005 -0.0947,-0.007 -0.18931,-0.0139 -0.28422,-0.0139 -0.004,0 -0.009,5.3e-4 -0.0129,5.3e-4 -7.9e-4,0 -0.001,0 -0.002,0 -0.005,0 -0.009,-5.3e-4 -0.014,-5.3e-4 -0.26435,0 -0.52861,0.0254 -0.7891,0.076 -0.26048,0.0506 -0.51693,0.12662 -0.76584,0.2279 -0.2489,0.10127 -0.4908,0.22738 -0.72037,0.3793 -0.22958,0.15194 -0.44753,0.32919 -0.65009,0.53175 l -3.31143,3.31194 0.0129,0.0129 -2.62826,2.62774 0.002,0.002 -5.71438,5.71438 c -0.28967,0.20756 -0.63688,0.31956 -0.99322,0.32039 -0.74424,-0.001 -1.40261,-0.48264 -1.62885,-1.19166 v -7.876 c 0,-0.0489 0.005,-0.0963 0.007,-0.14469 -0.001,-0.0274 -0.005,-0.0539 -0.007,-0.0811 v -0.27388 c -0.0136,-0.11318 -0.0281,-0.22575 -0.0506,-0.3359 -0.0549,-0.26976 -0.13642,-0.53011 -0.24081,-0.77773 -0.10439,-0.24762 -0.23195,-0.4828 -0.38034,-0.7028 -0.14839,-0.22 -0.31743,-0.4244 -0.50436,-0.61133 h -5.3e-4 c -0.0934,-0.0934 -0.19102,-0.18255 -0.293,-0.26665 h -5.3e-4 c -0.10199,-0.0841 -0.20793,-0.16359 -0.31781,-0.23771 h -5.3e-4 c -0.10988,-0.0741 -0.22344,-0.14315 -0.34055,-0.20671 h -5.3e-4 c -0.11711,-0.0635 -0.23756,-0.122 -0.36122,-0.17415 h -5.3e-4 c -0.12366,-0.0521 -0.25035,-0.0984 -0.37982,-0.13849 h -5.3e-4 c -0.12947,-0.0401 -0.26164,-0.0744 -0.39636,-0.1018 h -5.3e-4 c -0.13472,-0.0274 -0.27163,-0.0485 -0.41082,-0.0625 h -5.3e-4 c -0.13921,-0.014 -0.2807,-0.0212 -0.42375,-0.0212 h -5.3e-4 -0.017 -5.3e-4 -5.3e-4 -5.3e-4 -0.54518 -5.3e-4 -5.3e-4 -5.3e-4 z"
       id="path2713-8-0"
       inkscape:connector-curvature="0"
       sodipodi:nodetypes="sccccccccccccccccccccccccccccccccccccccccccccccccccccccccccscccccsccccccccccccscccccccccccsccsccsccccccccccsccscccccscccccccccccccccccccsccscccccccccccsccccccccccccccccccccccccccccccccs" />
  </g>
</svg>
