<?xml version="1.0" encoding="UTF-8" standalone="no"?>
<!-- Created with Inkscape (http://www.inkscape.org/) -->

<svg
   xmlns:dc="http://purl.org/dc/elements/1.1/"
   xmlns:cc="http://creativecommons.org/ns#"
   xmlns:rdf="http://www.w3.org/1999/02/22-rdf-syntax-ns#"
   xmlns:svg="http://www.w3.org/2000/svg"
   xmlns="http://www.w3.org/2000/svg"
   xmlns:sodipodi="http://sodipodi.sourceforge.net/DTD/sodipodi-0.dtd"
   xmlns:inkscape="http://www.inkscape.org/namespaces/inkscape"
   width="31.92111mm"
   height="41.74218mm"
   viewBox="0 0 31.921109 41.74218"
   version="1.1"
   id="svg2761"
   inkscape:version="0.92.4 (5da689c313, 2019-01-14)"
   sodipodi:docname="L.svg">
  <defs
     id="defs2755" />
  <sodipodi:namedview
     id="base"
     pagecolor="#ffffff"
     bordercolor="#666666"
     borderopacity="1.0"
     inkscape:pageopacity="0.0"
     inkscape:pageshadow="2"
     inkscape:zoom="0.35"
     inkscape:cx="-832.39896"
     inkscape:cy="-181.86601"
     inkscape:document-units="mm"
     inkscape:current-layer="layer1"
     showgrid="false"
     fit-margin-top="0"
     fit-margin-left="0"
     fit-margin-right="0"
     fit-margin-bottom="0"
     inkscape:window-width="1600"
     inkscape:window-height="847"
     inkscape:window-x="-8"
     inkscape:window-y="22"
     inkscape:window-maximized="1" />
  <metadata
     id="metadata2758">
    <rdf:RDF>
      <cc:Work
         rdf:about="">
        <dc:format>image/svg+xml</dc:format>
        <dc:type
           rdf:resource="http://purl.org/dc/dcmitype/StillImage" />
        <dc:title></dc:title>
      </cc:Work>
    </rdf:RDF>
  </metadata>
  <g
     inkscape:label="Layer 1"
     inkscape:groupmode="layer"
     id="layer1"
     transform="translate(-190.0008,122.45613)">
    <path
       inkscape:connector-curvature="0"
       style="opacity:1;fill:#000000;stroke:none;stroke-width:8.68271542;stroke-miterlimit:4;stroke-dasharray:none"
       d="m 194.01399,-122.45613 c -1.94917,0 -3.57068,1.33652 -4.01319,3.14555 a 10.772322,10.772322 0 0 1 3.75223,8.14627 1.3202201,3.2815255 0 0 1 0.003,0.0331 v 1.21181 17.880565 a 1.3202201,3.2815255 0 0 1 -0.003,0.03307 10.772322,10.772322 0 0 1 -3.75223,8.146272 c 0.44251,1.809033 2.06402,3.145544 4.01319,3.145544 h 3.87883 0.0176 0.52917 0.0176 15.75873 c 3.77627,-0.0016 6.99512,-2.739192 7.60263,-6.466272 0.0659,-0.293957 0.10336,-0.598741 0.10336,-0.913122 v -0.326596 -0.892969 -2.721282 -0.0036 c 0,-1.491994 -1.20087,-2.692858 -2.69286,-2.692858 -1.1568,0 -2.1364,0.723207 -2.51923,1.743046 -1.3906,2.160148 -3.7277,3.449336 -6.35362,3.453535 -0.30866,-0.0032 -0.69542,5e-6 -1.02216,0 h -0.78961 a 5.9469443,5.9469454 0 0 1 -0.59377,-0.02945 5.9469443,5.9469454 0 0 1 -0.58756,-0.08888 5.9469443,5.9469454 0 0 1 -0.57619,-0.147278 5.9469443,5.9469454 0 0 1 -0.5581,-0.203604 5.9469443,5.9469454 0 0 1 -0.53537,-0.258901 5.9469443,5.9469454 0 0 1 -0.50695,-0.310575 5.9469443,5.9469454 0 0 1 -0.47335,-0.359667 5.9469443,5.9469454 0 0 1 -0.4346,-0.405143 5.9469443,5.9469454 0 0 1 -0.39223,-0.447003 5.9469443,5.9469454 0 0 1 -0.34623,-0.483174 5.9469443,5.9469454 0 0 1 -0.29559,-0.515732 5.9469443,5.9469454 0 0 1 -0.24288,-0.542602 5.9469443,5.9469454 0 0 1 -0.18758,-0.564306 5.9469443,5.9469454 0 0 1 -0.13023,-0.57981 5.9469443,5.9469454 0 0 1 -0.0713,-0.590145 5.9469443,5.9469454 0 0 1 -0.015,-0.420646 v -14.438397 h 0.0176 v -1.21181 a 1.3202201,3.2815255 0 0 1 0.003,-0.0331 10.772322,10.772322 0 0 1 3.75222,-8.14627 c -0.44251,-1.80904 -2.06402,-3.14555 -4.01319,-3.14555 h -3.87883 -0.0176 -0.004 -0.0176 -0.54674 z"
       id="rect826-90-3-4"
       inkscape:export-filename="C:\Users\Alec\rect826-90-3-4.png"
       inkscape:export-xdpi="96"
       inkscape:export-ydpi="96" />
  </g>
</svg>
