<?xml version="1.0" encoding="UTF-8" standalone="no"?>
<!-- Created with Inkscape (http://www.inkscape.org/) -->

<svg
   xmlns:dc="http://purl.org/dc/elements/1.1/"
   xmlns:cc="http://creativecommons.org/ns#"
   xmlns:rdf="http://www.w3.org/1999/02/22-rdf-syntax-ns#"
   xmlns:svg="http://www.w3.org/2000/svg"
   xmlns="http://www.w3.org/2000/svg"
   xmlns:sodipodi="http://sodipodi.sourceforge.net/DTD/sodipodi-0.dtd"
   xmlns:inkscape="http://www.inkscape.org/namespaces/inkscape"
   width="48.21843mm"
   height="42.116291mm"
   viewBox="0 0 48.218428 42.116292"
   version="1.1"
   id="svg2761"
   inkscape:version="0.92.4 (5da689c313, 2019-01-14)"
   sodipodi:docname="M.svg">
  <defs
     id="defs2755" />
  <sodipodi:namedview
     id="base"
     pagecolor="#ffffff"
     bordercolor="#666666"
     borderopacity="1.0"
     inkscape:pageopacity="0.0"
     inkscape:pageshadow="2"
     inkscape:zoom="1.4"
     inkscape:cx="8.1286702"
     inkscape:cy="-16.828219"
     inkscape:document-units="mm"
     inkscape:current-layer="layer1"
     showgrid="false"
     fit-margin-top="0"
     fit-margin-left="0"
     fit-margin-right="0"
     fit-margin-bottom="0"
     inkscape:window-width="1600"
     inkscape:window-height="847"
     inkscape:window-x="-8"
     inkscape:window-y="22"
     inkscape:window-maximized="1" />
  <metadata
     id="metadata2758">
    <rdf:RDF>
      <cc:Work
         rdf:about="">
        <dc:format>image/svg+xml</dc:format>
        <dc:type
           rdf:resource="http://purl.org/dc/dcmitype/StillImage" />
        <dc:title></dc:title>
      </cc:Work>
    </rdf:RDF>
  </metadata>
  <g
     inkscape:label="Layer 1"
     inkscape:groupmode="layer"
     id="layer1"
     transform="translate(-133.21051,265.82827)">
    <path
       inkscape:connector-curvature="0"
       style="opacity:1;fill:#000000;stroke:none;stroke-width:8.96500015;stroke-miterlimit:4;stroke-dasharray:none"
       d="m 137.22368,-265.82827 c -1.94916,0 -3.57065,1.33651 -4.01317,3.14554 a 10.772321,10.772321 0 0 1 3.75221,8.14628 1.32022,3.2815255 0 0 1 0.003,0.0331 v 26.28057 c 0,2.29169 1.84502,4.13669 4.13671,4.13669 h 0.54673 c 2.24285,0 4.05263,-1.76842 4.12896,-3.992 -0.003,-0.0484 -0.007,-0.0958 -0.007,-0.14469 v -14.61823 a 0.97052246,0.97052246 0 0 1 0.94568,-0.75655 0.97052246,0.97052246 0 0 1 0.53072,0.15969 l 6.49674,6.49624 c 0.61688,0.61686 1.37713,0.99741 2.17146,1.14463 1.30792,0.26073 2.71532,-0.11702 3.73312,-1.13481 l 7.53287,-7.53339 0.0553,-0.0548 a 0.97052246,0.97052246 0 0 1 0.66458,-0.26562 0.97052246,0.97052246 0 0 1 0.96737,0.91829 v 16.51837 c 0.0135,0.11317 0.0283,0.22575 0.0506,0.3359 0.0549,0.26976 0.13642,0.53011 0.24083,0.77773 0.10437,0.24762 0.23193,0.4828 0.38033,0.7028 0.14838,0.22 0.31742,0.4244 0.50435,0.61133 0.18693,0.18693 0.39185,0.35599 0.61185,0.50437 0.22,0.14839 0.45519,0.27646 0.70281,0.38085 0.24763,0.10439 0.50745,0.18538 0.77722,0.2403 0.26974,0.0549 0.54914,0.0837 0.83561,0.0837 h 0.0175 0.0265 0.50281 0.0439 3.85247 c 1.94918,0 3.57068,-1.33651 4.0132,-3.14554 a 10.772321,10.772321 0 0 1 -3.74396,-7.88686 v -27.07277 c -0.0135,-0.11317 -0.0282,-0.22574 -0.0506,-0.33589 -0.0549,-0.26977 -0.13642,-0.53011 -0.2408,-0.77773 -0.10438,-0.24762 -0.23199,-0.4828 -0.38034,-0.7028 -0.14843,-0.22 -0.31745,-0.4244 -0.50438,-0.61133 -0.18692,-0.18694 -0.39182,-0.35599 -0.61184,-0.50437 -0.21998,-0.14839 -0.45519,-0.27646 -0.70279,-0.38085 -0.24765,-0.10439 -0.50745,-0.18538 -0.77721,-0.2403 -0.26977,-0.0549 -0.54915,-0.0837 -0.83561,-0.0837 h -0.0175 -0.0265 -0.52038 -0.0265 -3.853 c -1.94916,0 -3.57068,1.33651 -4.01317,3.14554 a 10.772321,10.772321 0 0 1 2.59725,3.33106 c 0.0132,0.0268 0.0276,0.0531 0.0393,0.0806 0.0206,0.0488 0.039,0.0987 0.0548,0.14935 0.0159,0.0504 0.0291,0.10168 0.0398,0.15347 0.0106,0.0518 0.0188,0.10402 0.0243,0.15658 0.005,0.0527 0.008,0.10566 0.008,0.15865 -5e-5,0.0374 -0.003,0.0748 -0.005,0.11214 -0.004,0.0528 -0.01,0.10542 -0.0185,0.15761 -0.009,0.0522 -0.0206,0.10396 -0.0346,0.15503 -0.0143,0.0509 -0.0309,0.10112 -0.0501,0.15038 -0.0191,0.0493 -0.0407,0.0976 -0.0646,0.14469 -0.0241,0.0473 -0.0504,0.0933 -0.079,0.13798 -0.0287,0.0446 -0.0595,0.0877 -0.0925,0.12919 -0.0314,0.0395 -0.0648,0.0773 -0.0998,0.11369 l -0.0579,0.0579 c -0.0188,0.0191 -0.0368,0.0391 -0.0579,0.0568 -0.003,0.003 -0.005,0.005 -0.007,0.008 l -10.61693,10.60039 -10.20816,-10.20765 h 0.003 a 2.2489583,2.2489583 0 0 1 -0.0305,-0.0284 l -0.0925,-0.0925 a 2.2489583,2.2489583 0 0 1 -0.11835,-0.13488 2.2489583,2.2489583 0 0 1 -0.13126,-0.18293 2.2489583,2.2489583 0 0 1 -0.1116,-0.19482 2.2489583,2.2489583 0 0 1 -0.092,-0.20516 2.2489583,2.2489583 0 0 1 -0.0708,-0.21342 2.2489583,2.2489583 0 0 1 -0.0491,-0.21911 2.2489583,2.2489583 0 0 1 -0.0274,-0.22324 2.2489583,2.2489583 0 0 1 -0.004,-0.11162 v -3.92224 c -0.0135,-0.11318 -0.0282,-0.22576 -0.0506,-0.3359 -0.0549,-0.26977 -0.13644,-0.53011 -0.24082,-0.77773 -0.10441,-0.24762 -0.23194,-0.4828 -0.38034,-0.7028 -0.14841,-0.22 -0.31792,-0.4244 -0.50488,-0.61133 -0.18693,-0.18693 -0.39132,-0.35598 -0.61132,-0.50436 -0.22003,-0.1484 -0.45519,-0.27647 -0.70281,-0.38086 -0.24762,-0.10439 -0.50745,-0.18538 -0.77721,-0.2403 -0.26977,-0.0549 -0.54968,-0.0837 -0.83611,-0.0837 h -0.0175 -0.52916 -0.0175 z"
       id="rect3800" />
  </g>
</svg>
