<?xml version="1.0" encoding="UTF-8" standalone="no"?>
<!-- Created with Inkscape (http://www.inkscape.org/) -->

<svg
   xmlns:dc="http://purl.org/dc/elements/1.1/"
   xmlns:cc="http://creativecommons.org/ns#"
   xmlns:rdf="http://www.w3.org/1999/02/22-rdf-syntax-ns#"
   xmlns:svg="http://www.w3.org/2000/svg"
   xmlns="http://www.w3.org/2000/svg"
   xmlns:sodipodi="http://sodipodi.sourceforge.net/DTD/sodipodi-0.dtd"
   xmlns:inkscape="http://www.inkscape.org/namespaces/inkscape"
   width="37.789322mm"
   height="41.74218mm"
   viewBox="0 0 37.789321 41.74218"
   version="1.1"
   id="svg2761"
   inkscape:version="0.92.4 (5da689c313, 2019-01-14)"
   sodipodi:docname="m1.svg">
  <defs
     id="defs2755" />
  <sodipodi:namedview
     id="base"
     pagecolor="#ffffff"
     bordercolor="#666666"
     borderopacity="1.0"
     inkscape:pageopacity="0.0"
     inkscape:pageshadow="2"
     inkscape:zoom="2.8"
     inkscape:cx="20.839419"
     inkscape:cy="23.827842"
     inkscape:document-units="mm"
     inkscape:current-layer="layer1"
     showgrid="false"
     fit-margin-top="0"
     fit-margin-left="0"
     fit-margin-right="0"
     fit-margin-bottom="0"
     inkscape:window-width="1600"
     inkscape:window-height="847"
     inkscape:window-x="-8"
     inkscape:window-y="22"
     inkscape:window-maximized="1"
     inkscape:snap-global="false" />
  <metadata
     id="metadata2758">
    <rdf:RDF>
      <cc:Work
         rdf:about="">
        <dc:format>image/svg+xml</dc:format>
        <dc:type
           rdf:resource="http://purl.org/dc/dcmitype/StillImage" />
        <dc:title></dc:title>
      </cc:Work>
    </rdf:RDF>
  </metadata>
  <g
     inkscape:label="Layer 1"
     inkscape:groupmode="layer"
     id="layer1"
     transform="translate(-117.9609,157.19874)">
    <path
       style="opacity:1;fill:#000000;stroke:none;stroke-width:4.94400263;stroke-miterlimit:4;stroke-dasharray:none"
       d="m 124.27158,-141.1506 c -1.10988,0 -2.23708,0.76102 -2.76506,1.79109 a 5.3668581,7.0104136 48.81537 0 1 0.92853,4.49084 l -4.13055,15.41541 c -0.01,0.0644 -0.0184,0.12855 -0.0224,0.19125 -0.01,0.15362 -0.003,0.30186 0.0185,0.44285 0.0216,0.141 0.0584,0.27491 0.10934,0.40018 0.0509,0.12527 0.116,0.24166 0.19392,0.3481 0.0779,0.10644 0.16881,0.2027 0.27144,0.28719 0.10263,0.0845 0.21699,0.15741 0.34206,0.21685 0.12509,0.0595 0.26067,0.10556 0.4059,0.13684 0.14522,0.0313 0.29991,0.0477 0.46302,0.0477 h 0.01 0.015 0.29631 0.015 2.19392 c 1.10987,0 2.23709,-0.76102 2.76507,-1.79109 a 5.3668581,7.0104136 48.81537 0 1 -0.92732,-4.49642 l 2.40166,-8.96313 a 1.5962059,2.0850305 48.81537 0 1 0.97802,-1.34942 1.5962059,2.0850305 48.81537 0 1 0.002,-9.9e-4 7.2602818,9.4836823 48.81537 0 1 6.02734,-2.07416 7.2602818,9.4836823 48.81537 0 1 1.74772,0.21127 1.5152521,1.9792855 48.81537 0 1 0.11123,0.0451 1.5152521,1.9792855 48.81537 0 1 0.13576,0.0754 1.5152521,1.9792855 48.81537 0 1 0.12351,0.0904 1.5152521,1.9792855 48.81537 0 1 0.10964,0.10475 1.5152521,1.9792855 48.81537 0 1 0.0949,0.11799 1.5152521,1.9792855 48.81537 0 1 0.0796,0.13006 1.5152521,1.9792855 48.81537 0 1 0.0628,0.14095 1.5152521,1.9792855 48.81537 0 1 0.046,0.15006 1.5152521,1.9792855 48.81537 0 1 0.0283,0.15801 1.5152521,1.9792855 48.81537 0 1 0.0104,0.1642 1.5152521,1.9792855 48.81537 0 1 -0.007,0.16889 1.5152521,1.9792855 48.81537 0 1 -0.0252,0.17185 1.5152521,1.9792855 48.81537 0 1 -0.0114,0.0491 l -3.97278,14.82664 c -0.01,0.0644 -0.0183,0.12854 -0.0224,0.19125 -0.01,0.15362 -0.003,0.30186 0.0185,0.44285 0.0216,0.141 0.0584,0.27491 0.10933,0.40018 0.0254,0.0626 0.0545,0.1229 0.0869,0.18096 0,0 -8e-5,3e-4 -8e-5,3e-4 0.0323,0.0581 0.0679,0.11363 0.10683,0.16684 0,0 3e-4,0 3e-4,0 0.0779,0.10645 0.16881,0.2027 0.27144,0.28719 0.10265,0.0845 0.21702,0.15742 0.34208,0.21686 0.0626,0.0297 0.12753,0.056 0.19513,0.0788 0.0504,0.017 0.10354,0.0302 0.15672,0.0433 0.0182,0.005 0.0351,0.0107 0.0537,0.0147 0,0 2.9e-4,0 2.9e-4,0 0.0726,0.0156 0.14749,0.0276 0.22469,0.0355 0.0772,0.008 0.1568,0.0121 0.23834,0.0121 h 0.01 3e-4 0.0151 0.2863 0.01 0.015 2.19391 c 0.0694,0 0.13866,-0.003 0.20806,-0.009 0.0692,-0.006 0.13868,-0.0145 0.20762,-0.0259 0.069,-0.0114 0.13802,-0.0256 0.20643,-0.0424 0.0684,-0.0168 0.13635,-0.0361 0.20386,-0.058 0.13499,-0.0437 0.26794,-0.0974 0.39745,-0.16008 0.0646,-0.0313 0.1286,-0.0649 0.19145,-0.10062 0.063,-0.0358 0.12498,-0.0737 0.18581,-0.1136 0.12156,-0.0797 0.2388,-0.16734 0.35007,-0.26217 0,0 8e-5,-3e-4 8e-5,-3e-4 0.11134,-0.0949 0.21698,-0.19674 0.31561,-0.30484 0.0986,-0.1081 0.19016,-0.22223 0.27368,-0.34162 0.0835,-0.11939 0.15895,-0.24405 0.22495,-0.37282 a 5.3668581,7.0104136 48.81537 0 1 -0.30824,-0.39252 c -0.0103,-0.0148 -0.0217,-0.0289 -0.0318,-0.0439 a 5.3668581,7.0104136 48.81537 0 1 -0.23912,-0.40343 c -0.0129,-0.0246 -0.0269,-0.0486 -0.0394,-0.0736 a 5.3668581,7.0104136 48.81537 0 1 -0.18214,-0.42165 c -0.0113,-0.0303 -0.0235,-0.0601 -0.0343,-0.0906 a 5.3668581,7.0104136 48.81537 0 1 -0.12642,-0.43196 c -0.01,-0.0393 -0.0195,-0.0785 -0.028,-0.11828 a 5.3668581,7.0104136 48.81537 0 1 -0.0739,-0.4402 c -0.005,-0.0436 -0.0106,-0.0873 -0.0149,-0.13124 a 5.3668581,7.0104136 48.81537 0 1 -0.0238,-0.44579 c -5.7e-4,-0.0516 -10e-4,-0.10332 -1.5e-4,-0.15536 a 5.3668581,7.0104136 48.81537 0 1 0.0237,-0.44225 c 0.005,-0.0577 0.0121,-0.11559 0.0192,-0.17361 a 5.3668581,7.0104136 48.81537 0 1 0.0694,-0.44256 c 0.0184,-0.0942 0.0383,-0.18876 0.0613,-0.28365 4.5e-4,-0.002 5.6e-4,-0.004 9.9e-4,-0.006 l 9.9e-4,-0.003 2.40071,-8.95958 c 0.14356,-0.51683 0.499,-1.00726 0.97804,-1.34942 l 0.002,-9.9e-4 c 1.86863,-1.33286 4.01105,-2.07013 6.02734,-2.07417 0.6063,0.004 1.19233,0.0751 1.74773,0.21127 0.038,0.0134 0.0752,0.0285 0.11122,0.0451 0.0472,0.0225 0.0925,0.0477 0.13576,0.0754 0.0434,0.0276 0.0845,0.0578 0.12351,0.0903 0.0389,0.0327 0.0755,0.0675 0.10964,0.10476 0.0342,0.0371 0.0658,0.0766 0.0949,0.11799 0.0292,0.0414 0.0558,0.0848 0.0796,0.13005 0.0237,0.0453 0.0448,0.0923 0.0628,0.14095 0.0183,0.0486 0.0336,0.0986 0.046,0.15007 0.0124,0.0515 0.0218,0.1042 0.0283,0.15801 0.006,0.0538 0.01,0.10859 0.0104,0.1642 5.8e-4,0.0556 -0.002,0.11199 -0.007,0.16889 -0.005,0.0569 -0.0138,0.11425 -0.0252,0.17184 -0.003,0.0164 -0.007,0.0328 -0.0114,0.0491 l -3.97277,14.82663 c -0.01,0.0644 -0.0184,0.12854 -0.0224,0.19126 -0.01,0.1536 -0.003,0.30184 0.0185,0.44284 0.0217,0.141 0.0584,0.27491 0.10934,0.40018 0.0509,0.12526 0.1157,0.24166 0.19362,0.3481 0.0779,0.10643 0.1691,0.2027 0.27174,0.28718 0.10264,0.0845 0.21701,0.15743 0.34206,0.21686 0.12508,0.0595 0.26066,0.10556 0.40589,0.13683 0.14523,0.0313 0.29993,0.0477 0.46303,0.0477 h 0.01 0.30131 0.01 2.20892 c 1.10988,0 2.2371,-0.76102 2.76506,-1.79109 -1.0412,-1.1621 -1.36742,-2.85531 -0.89365,-4.63854 0.001,-0.006 0.002,-0.0125 0.003,-0.0189 l 2.41491,-9.01256 0.002,-0.009 c 1.228,-4.58274 -1.49161,-8.29779 -6.07437,-8.2978 -2.14716,0.004 -4.92171,0.14461 -6.95795,1.58188 l -1.8136,1.01634 a 7.2602818,9.4836823 48.81537 0 0 -5.32061,-2.59822 7.2602818,9.4836823 48.81537 0 0 -6.42153,2.3637 l 0.0784,-0.29278 c 0.01,-0.0644 0.0184,-0.12855 0.0224,-0.19126 0.01,-0.15361 0.003,-0.30185 -0.0185,-0.44285 -0.0216,-0.14099 -0.0584,-0.27491 -0.10934,-0.40018 -0.0509,-0.12526 -0.116,-0.24165 -0.19391,-0.34809 -0.0779,-0.10644 -0.16882,-0.20269 -0.27145,-0.28719 -0.10262,-0.0845 -0.21701,-0.15743 -0.34206,-0.21686 -0.12507,-0.0595 -0.26067,-0.10555 -0.40589,-0.13683 -0.14524,-0.0313 -0.29993,-0.0477 -0.46303,-0.0477 h -0.01 -0.015 -0.28629 -0.025 z"
       id="path5026-3"
       inkscape:connector-curvature="0" />
  </g>
</svg>
