<?xml version="1.0" encoding="UTF-8" standalone="no"?>
<!-- Created with Inkscape (http://www.inkscape.org/) -->

<svg
   xmlns:dc="http://purl.org/dc/elements/1.1/"
   xmlns:cc="http://creativecommons.org/ns#"
   xmlns:rdf="http://www.w3.org/1999/02/22-rdf-syntax-ns#"
   xmlns:svg="http://www.w3.org/2000/svg"
   xmlns="http://www.w3.org/2000/svg"
   xmlns:sodipodi="http://sodipodi.sourceforge.net/DTD/sodipodi-0.dtd"
   xmlns:inkscape="http://www.inkscape.org/namespaces/inkscape"
   width="37.789322mm"
   height="41.74218mm"
   viewBox="0 0 37.789321 41.74218"
   version="1.1"
   id="svg2761"
   inkscape:version="0.92.4 (5da689c313, 2019-01-14)"
   sodipodi:docname="N.svg">
  <defs
     id="defs2755" />
  <sodipodi:namedview
     id="base"
     pagecolor="#ffffff"
     bordercolor="#666666"
     borderopacity="1.0"
     inkscape:pageopacity="0.0"
     inkscape:pageshadow="2"
     inkscape:zoom="0.98994949"
     inkscape:cx="47.436846"
     inkscape:cy="-164.22858"
     inkscape:document-units="mm"
     inkscape:current-layer="layer1"
     showgrid="false"
     fit-margin-top="0"
     fit-margin-left="0"
     fit-margin-right="0"
     fit-margin-bottom="0"
     inkscape:window-width="1600"
     inkscape:window-height="847"
     inkscape:window-x="-8"
     inkscape:window-y="22"
     inkscape:window-maximized="1" />
  <metadata
     id="metadata2758">
    <rdf:RDF>
      <cc:Work
         rdf:about="">
        <dc:format>image/svg+xml</dc:format>
        <dc:type
           rdf:resource="http://purl.org/dc/dcmitype/StillImage" />
        <dc:title></dc:title>
      </cc:Work>
    </rdf:RDF>
  </metadata>
  <g
     inkscape:label="Layer 1"
     inkscape:groupmode="layer"
     id="layer1"
     transform="translate(-117.9609,157.19874)">
    <path
       inkscape:connector-curvature="0"
       style="opacity:1;fill:#000000;stroke:none;stroke-width:8.68272591;stroke-miterlimit:4;stroke-dasharray:none"
       d="m 121.97409,-157.19874 c -1.94917,0 -3.57068,1.33651 -4.01319,3.14554 a 10.772321,10.772321 0 0 1 3.75223,8.14627 1.32022,3.2815255 0 0 1 0.003,0.0331 v 26.28057 c 0,2.29169 1.84501,4.1367 4.1367,4.1367 h 0.54674 c 2.29167,0 4.13618,-1.84501 4.13618,-4.1367 v -4.72064 h -5.3e-4 v -8.54728 a 1.769401,1.769401 0 0 1 1.68465,-1.23094 1.769401,1.769401 0 0 1 0.8599,0.22531 l 9.63352,9.63404 a 2.6588961,2.6588961 0 0 1 0.59169,1.45624 v 3.18327 c 0,2.29168 1.845,4.1367 4.1367,4.1367 h 0.39894 0.1478 3.74861 c 1.94917,0 3.57068,-1.33651 4.01319,-3.14555 -2.16516,-1.86206 -3.41397,-4.50498 -3.62562,-7.34322 v -6.91534 -15.51791 h 0.0181 v -4.68344 c 0,-0.28646 -0.0288,-0.56584 -0.0837,-0.83561 -0.0549,-0.26976 -0.13642,-0.53011 -0.24081,-0.77773 -0.10439,-0.24762 -0.23195,-0.4828 -0.38034,-0.70279 -0.14839,-0.22001 -0.31743,-0.42442 -0.50436,-0.61134 -0.18693,-0.18693 -0.39184,-0.35597 -0.61185,-0.50435 -0.22,-0.14839 -0.45518,-0.27647 -0.7028,-0.38086 -0.24762,-0.10439 -0.50743,-0.18536 -0.77721,-0.24029 -0.26977,-0.0549 -0.54915,-0.0837 -0.83561,-0.0837 h -0.0176 -0.52917 -0.0176 -3.87884 c -1.94917,0 -3.57068,1.33651 -4.01319,3.14554 a 10.772321,10.772321 0 0 1 3.75223,8.14627 1.32022,3.2815255 0 0 1 0.003,0.0331 v 3.59616 h 5.3e-4 v 1.8154 c -0.002,1.3e-4 -0.003,-1.3e-4 -0.005,0 a 1.7694011,1.7694011 0 0 1 0.004,0.10438 1.7694011,1.7694011 0 0 1 -1.7694,1.7694 1.7694011,1.7694011 0 0 1 -1.06815,-0.36431 l -9.28316,-9.28367 a 2.6588961,2.6588961 0 0 1 -0.62993,-1.5844 v -3.24115 c 0,-0.28646 -0.0288,-0.56584 -0.0837,-0.83561 -0.0549,-0.26977 -0.13642,-0.53011 -0.24081,-0.77773 -0.10439,-0.24762 -0.23195,-0.4828 -0.38034,-0.7028 -0.14839,-0.22 -0.31743,-0.4244 -0.50436,-0.61133 -0.18693,-0.18693 -0.39184,-0.35598 -0.61185,-0.50436 -0.22,-0.1484 -0.45518,-0.27647 -0.7028,-0.38086 -0.24763,-0.10439 -0.50744,-0.18538 -0.77721,-0.24029 -0.26977,-0.0549 -0.54916,-0.0837 -0.83561,-0.0837 h -0.0176 -0.52917 -0.0176 z"
       id="path2713-9" />
  </g>
</svg>
