<?xml version="1.0" encoding="UTF-8" standalone="no"?>
<!-- Created with Inkscape (http://www.inkscape.org/) -->

<svg
   xmlns:dc="http://purl.org/dc/elements/1.1/"
   xmlns:cc="http://creativecommons.org/ns#"
   xmlns:rdf="http://www.w3.org/1999/02/22-rdf-syntax-ns#"
   xmlns:svg="http://www.w3.org/2000/svg"
   xmlns="http://www.w3.org/2000/svg"
   xmlns:sodipodi="http://sodipodi.sourceforge.net/DTD/sodipodi-0.dtd"
   xmlns:inkscape="http://www.inkscape.org/namespaces/inkscape"
   width="40.514839mm"
   height="41.742149mm"
   viewBox="0 0 40.514838 41.742149"
   version="1.1"
   id="svg2761"
   inkscape:version="0.92.4 (5da689c313, 2019-01-14)"
   sodipodi:docname="O.svg">
  <defs
     id="defs2755" />
  <sodipodi:namedview
     id="base"
     pagecolor="#ffffff"
     bordercolor="#666666"
     borderopacity="1.0"
     inkscape:pageopacity="0.0"
     inkscape:pageshadow="2"
     inkscape:zoom="0.98994949"
     inkscape:cx="19.954616"
     inkscape:cy="-115.65035"
     inkscape:document-units="mm"
     inkscape:current-layer="layer1"
     showgrid="false"
     fit-margin-top="0"
     fit-margin-left="0"
     fit-margin-right="0"
     fit-margin-bottom="0"
     inkscape:window-width="1600"
     inkscape:window-height="847"
     inkscape:window-x="-8"
     inkscape:window-y="22"
     inkscape:window-maximized="1" />
  <metadata
     id="metadata2758">
    <rdf:RDF>
      <cc:Work
         rdf:about="">
        <dc:format>image/svg+xml</dc:format>
        <dc:type
           rdf:resource="http://purl.org/dc/dcmitype/StillImage" />
        <dc:title></dc:title>
      </cc:Work>
    </rdf:RDF>
  </metadata>
  <g
     inkscape:label="Layer 1"
     inkscape:groupmode="layer"
     id="layer1"
     transform="translate(-125.23224,144.34572)">
    <path
       style="opacity:1;fill:#000000;stroke:none;stroke-width:9.18507385;stroke-miterlimit:4;stroke-dasharray:none"
       d="m 145.4894,-144.34572 a 20.257389,20.871077 0 0 0 -20.25716,20.87108 20.257389,20.871077 0 0 0 20.25716,20.87107 20.257389,20.871077 0 0 0 20.25768,-20.87107 20.257389,20.871077 0 0 0 -20.25768,-20.87108 z m 0,8.58273 a 9.9556006,12.34487 0 0 1 9.95598,12.34454 9.9556006,12.34487 0 0 1 -9.95598,12.34504 9.9556006,12.34487 0 0 1 -9.95495,-12.34504 9.9556006,12.34487 0 0 1 9.95495,-12.34454 z"
       id="path3256"
       inkscape:connector-curvature="0"
       inkscape:export-filename="C:\Users\Alec\path3256.png"
       inkscape:export-xdpi="96"
       inkscape:export-ydpi="96" />
  </g>
</svg>
