<?xml version="1.0" encoding="UTF-8" standalone="no"?>
<!-- Created with Inkscape (http://www.inkscape.org/) -->

<svg
   xmlns:dc="http://purl.org/dc/elements/1.1/"
   xmlns:cc="http://creativecommons.org/ns#"
   xmlns:rdf="http://www.w3.org/1999/02/22-rdf-syntax-ns#"
   xmlns:svg="http://www.w3.org/2000/svg"
   xmlns="http://www.w3.org/2000/svg"
   xmlns:sodipodi="http://sodipodi.sourceforge.net/DTD/sodipodi-0.dtd"
   xmlns:inkscape="http://www.inkscape.org/namespaces/inkscape"
   width="33.646961mm"
   height="41.74218mm"
   viewBox="0 0 33.64696 41.742179"
   version="1.1"
   id="svg2761"
   inkscape:version="0.92.4 (5da689c313, 2019-01-14)"
   sodipodi:docname="P.svg">
  <defs
     id="defs2755" />
  <sodipodi:namedview
     id="base"
     pagecolor="#ffffff"
     bordercolor="#666666"
     borderopacity="1.0"
     inkscape:pageopacity="0.0"
     inkscape:pageshadow="2"
     inkscape:zoom="0.98994949"
     inkscape:cx="-76.800572"
     inkscape:cy="-24.554066"
     inkscape:document-units="mm"
     inkscape:current-layer="layer1"
     showgrid="false"
     fit-margin-top="0"
     fit-margin-left="0"
     fit-margin-right="0"
     fit-margin-bottom="0"
     inkscape:window-width="1600"
     inkscape:window-height="847"
     inkscape:window-x="-8"
     inkscape:window-y="22"
     inkscape:window-maximized="1" />
  <metadata
     id="metadata2758">
    <rdf:RDF>
      <cc:Work
         rdf:about="">
        <dc:format>image/svg+xml</dc:format>
        <dc:type
           rdf:resource="http://purl.org/dc/dcmitype/StillImage" />
        <dc:title></dc:title>
      </cc:Work>
    </rdf:RDF>
  </metadata>
  <g
     inkscape:label="Layer 1"
     inkscape:groupmode="layer"
     id="layer1"
     transform="translate(-150.83205,120.24319)">
    <path
       inkscape:connector-curvature="0"
       style="opacity:1;fill:#000000;stroke:none;stroke-width:8.68272591;stroke-miterlimit:4;stroke-dasharray:none"
       d="m 154.84525,-120.24319 c -1.94916,0 -3.57068,1.33651 -4.0132,3.14554 a 10.772321,10.772321 0 0 1 3.75224,8.14628 1.32022,3.2815255 0 0 1 0.003,0.0331 v 26.28057 c 0,2.29168 1.84502,4.13669 4.1367,4.13669 h 0.54674 c 2.29169,0 4.13618,-1.84501 4.13618,-4.13669 v -12.31708 h 8.4279 a 12.644153,12.644153 0 0 0 12.6442,-12.64419 12.644153,12.644153 0 0 0 -12.6442,-12.64419 h -12.56408 -0.54674 z m 12.12278,8.82013 h 0.46456 2.73214 c 0.32673,0 0.7135,0.003 1.02217,0 0.21822,2.7e-4 0.43362,0.0126 0.64748,0.0305 v -0.03 a 3.8240279,3.8240279 0 0 1 3.80495,3.82354 3.8240279,3.8240279 0 0 1 -3.80495,3.82302 v 10e-4 h -4.86635 a 3.5613126,3.5613134 0 0 1 -0.2522,-0.009 3.5613126,3.5613134 0 0 1 -0.35345,-0.0429 3.5613126,3.5613134 0 0 1 -0.34727,-0.078 3.5613126,3.5613134 0 0 1 -0.33795,-0.11214 3.5613126,3.5613134 0 0 1 -0.32454,-0.14572 3.5613126,3.5613134 0 0 1 -0.30903,-0.17674 3.5613126,3.5613134 0 0 1 -0.28938,-0.20722 3.5613126,3.5613134 0 0 1 -0.26768,-0.23512 3.5613126,3.5613134 0 0 1 -0.24238,-0.26046 3.5613126,3.5613134 0 0 1 -0.21548,-0.28318 3.5613126,3.5613134 0 0 1 -0.18603,-0.30386 3.5613126,3.5613134 0 0 1 -0.15504,-0.32039 3.5613126,3.5613134 0 0 1 -0.12195,-0.33435 3.5613126,3.5613134 0 0 1 -0.0884,-0.34468 3.5613126,3.5613134 0 0 1 -0.0532,-0.35243 3.5613126,3.5613134 0 0 1 -0.0175,-0.35554 v -0.52503 a 3.5613126,3.5613131 0 0 1 0.0175,-0.35554 3.5613126,3.5613131 0 0 1 0.0532,-0.35243 3.5613126,3.5613131 0 0 1 0.0884,-0.34468 3.5613126,3.5613131 0 0 1 0.12195,-0.33435 3.5613126,3.5613131 0 0 1 0.15504,-0.32039 3.5613126,3.5613131 0 0 1 0.18603,-0.30386 3.5613126,3.5613131 0 0 1 0.21548,-0.28318 3.5613126,3.5613131 0 0 1 0.24238,-0.26045 3.5613126,3.5613131 0 0 1 0.26768,-0.23513 3.5613126,3.5613131 0 0 1 0.28938,-0.20722 3.5613126,3.5613131 0 0 1 0.30903,-0.17674 3.5613126,3.5613131 0 0 1 0.32454,-0.14572 3.5613126,3.5613131 0 0 1 0.33795,-0.11214 3.5613126,3.5613131 0 0 1 0.34727,-0.078 3.5613126,3.5613131 0 0 1 0.35345,-0.0429 3.5613126,3.5613131 0 0 1 0.2522,-0.009 z"
       id="rect826-9-4-3" />
  </g>
</svg>
