<?xml version="1.0" encoding="UTF-8" standalone="no"?>
<!-- Created with Inkscape (http://www.inkscape.org/) -->

<svg
   xmlns:dc="http://purl.org/dc/elements/1.1/"
   xmlns:cc="http://creativecommons.org/ns#"
   xmlns:rdf="http://www.w3.org/1999/02/22-rdf-syntax-ns#"
   xmlns:svg="http://www.w3.org/2000/svg"
   xmlns="http://www.w3.org/2000/svg"
   xmlns:sodipodi="http://sodipodi.sourceforge.net/DTD/sodipodi-0.dtd"
   xmlns:inkscape="http://www.inkscape.org/namespaces/inkscape"
   width="41.557308mm"
   height="46.729805mm"
   viewBox="0 0 41.557307 46.729804"
   version="1.1"
   id="svg2761"
   inkscape:version="0.92.4 (5da689c313, 2019-01-14)"
   sodipodi:docname="Q.svg">
  <defs
     id="defs2755" />
  <sodipodi:namedview
     id="base"
     pagecolor="#ffffff"
     bordercolor="#666666"
     borderopacity="1.0"
     inkscape:pageopacity="0.0"
     inkscape:pageshadow="2"
     inkscape:zoom="0.98994949"
     inkscape:cx="78.533476"
     inkscape:cy="88.308296"
     inkscape:document-units="mm"
     inkscape:current-layer="layer1"
     showgrid="false"
     fit-margin-top="0"
     fit-margin-left="0"
     fit-margin-right="0"
     fit-margin-bottom="0"
     inkscape:window-width="1600"
     inkscape:window-height="847"
     inkscape:window-x="-8"
     inkscape:window-y="22"
     inkscape:window-maximized="1" />
  <metadata
     id="metadata2758">
    <rdf:RDF>
      <cc:Work
         rdf:about="">
        <dc:format>image/svg+xml</dc:format>
        <dc:type
           rdf:resource="http://purl.org/dc/dcmitype/StillImage" />
        <dc:title></dc:title>
      </cc:Work>
    </rdf:RDF>
  </metadata>
  <g
     inkscape:label="Layer 1"
     inkscape:groupmode="layer"
     id="layer1"
     transform="translate(-109.73325,95.369316)">
    <path
       style="opacity:1;fill:#000000;stroke:none;stroke-width:7.48449993;stroke-miterlimit:4;stroke-dasharray:none"
       d="m 125.76312,-74.307866 c -1.68803,0.974585 -3.19107,3.238385 -2.9022,4.623745 2.57696,0.116726 5.31915,0.565932 6.56054,2.302837 l 10.24299,17.741379 c 0.0538,0.066 0.1083,0.13117 0.16862,0.190842 0.14776,0.146139 0.31508,0.272909 0.49749,0.380068 0.1824,0.107141 0.38024,0.194691 0.59048,0.262059 0.21025,0.0674 0.43258,0.11439 0.66392,0.141232 0.23134,0.0268 0.4716,0.0331 0.71725,0.0186 0.24564,-0.0145 0.49692,-0.0497 0.75015,-0.106313 0.25319,-0.0567 0.50835,-0.134408 0.76236,-0.233989 0.25402,-0.0995 0.50667,-0.2207 0.75475,-0.363929 l 0.0152,-0.009 0.0452,-0.02609 0.41307,-0.23849 0.0604,-0.0349 3.31397,-1.913319 c 1.68803,-0.974579 3.12493,-3.43912 2.83607,-4.824471 -2.57682,-0.11671 -5.25278,-0.365048 -6.49422,-2.101781 l -10.24308,-17.74148 c -0.0538,-0.066 -0.10829,-0.13117 -0.16861,-0.19084 -0.14777,-0.14614 -0.31509,-0.27291 -0.49749,-0.38006 -0.18241,-0.10716 -0.38025,-0.1947 -0.59049,-0.26208 -0.21025,-0.0674 -0.43258,-0.11439 -0.66392,-0.14121 -0.23133,-0.0268 -0.47159,-0.0331 -0.71725,-0.0186 -0.24564,0.0145 -0.49691,0.0497 -0.75014,0.10632 -0.25321,0.0567 -0.50835,0.13439 -0.76236,0.23397 -0.25402,0.0996 -0.50669,0.2207 -0.75477,0.36393 l -0.0152,0.009 -0.0452,0.0261 -0.42829,0.24728 -0.0452,0.0261 z"
       id="path2713-8-8"
       inkscape:connector-curvature="0"
       sodipodi:nodetypes="ccccccccccccccccccccccccccccccccc"
       inkscape:export-filename="C:\Users\Alec\path3256-9.png"
       inkscape:export-xdpi="96"
       inkscape:export-ydpi="96" />
    <path
       inkscape:connector-curvature="0"
       style="opacity:1;fill:#000000;stroke:none;stroke-width:9.18506718;stroke-miterlimit:4;stroke-dasharray:none"
       d="m 129.99041,-95.369316 a 20.257389,20.871046 0 0 0 -20.25716,20.871044 20.257389,20.871046 0 0 0 20.25716,20.871046 20.257389,20.871046 0 0 0 20.25768,-20.871046 20.257389,20.871046 0 0 0 -20.25768,-20.871044 z m 0,8.58272 a 9.9556006,12.344851 0 0 1 9.95599,12.344515 9.9556006,12.344851 0 0 1 -9.95599,12.345021 9.9556006,12.344851 0 0 1 -9.95494,-12.345021 9.9556006,12.344851 0 0 1 9.95494,-12.344515 z"
       id="path3256-9"
       inkscape:export-filename="C:\Users\Alec\path3256-9.png"
       inkscape:export-xdpi="96"
       inkscape:export-ydpi="96" />
  </g>
</svg>
