<?xml version="1.0" encoding="UTF-8" standalone="no"?>
<!-- Created with Inkscape (http://www.inkscape.org/) -->

<svg
   xmlns:dc="http://purl.org/dc/elements/1.1/"
   xmlns:cc="http://creativecommons.org/ns#"
   xmlns:rdf="http://www.w3.org/1999/02/22-rdf-syntax-ns#"
   xmlns:svg="http://www.w3.org/2000/svg"
   xmlns="http://www.w3.org/2000/svg"
   xmlns:sodipodi="http://sodipodi.sourceforge.net/DTD/sodipodi-0.dtd"
   xmlns:inkscape="http://www.inkscape.org/namespaces/inkscape"
   width="37.053833mm"
   height="41.742176mm"
   viewBox="0 0 37.053832 41.742175"
   version="1.1"
   id="svg2761"
   inkscape:version="0.92.4 (5da689c313, 2019-01-14)"
   sodipodi:docname="R.svg">
  <defs
     id="defs2755" />
  <sodipodi:namedview
     id="base"
     pagecolor="#ffffff"
     bordercolor="#666666"
     borderopacity="1.0"
     inkscape:pageopacity="0.0"
     inkscape:pageshadow="2"
     inkscape:zoom="0.98994949"
     inkscape:cx="47.541198"
     inkscape:cy="-94.438294"
     inkscape:document-units="mm"
     inkscape:current-layer="layer1"
     showgrid="false"
     fit-margin-top="0"
     fit-margin-left="0"
     fit-margin-right="0"
     fit-margin-bottom="0"
     inkscape:window-width="1600"
     inkscape:window-height="847"
     inkscape:window-x="-8"
     inkscape:window-y="22"
     inkscape:window-maximized="1" />
  <metadata
     id="metadata2758">
    <rdf:RDF>
      <cc:Work
         rdf:about="">
        <dc:format>image/svg+xml</dc:format>
        <dc:type
           rdf:resource="http://purl.org/dc/dcmitype/StillImage" />
        <dc:title></dc:title>
      </cc:Work>
    </rdf:RDF>
  </metadata>
  <g
     inkscape:label="Layer 1"
     inkscape:groupmode="layer"
     id="layer1"
     transform="translate(-117.93329,138.73339)">
    <path
       inkscape:connector-curvature="0"
       style="opacity:1;fill:#000000;stroke:none;stroke-width:8.68272591;stroke-miterlimit:4;stroke-dasharray:none"
       d="m 121.94649,-138.73339 c -1.94916,0 -3.57068,1.33651 -4.0132,3.14554 a 10.772322,10.772322 0 0 1 3.75224,8.14627 1.3202201,3.2815255 0 0 1 0.003,0.0331 v 26.28057 c 0,2.291678 1.84502,4.136697 4.13668,4.136697 h 0.54673 c 2.29172,0 4.13621,-1.845019 4.13621,-4.136697 v -9.34879 a 2.9683983,2.9683988 0 0 1 0.0151,-0.2961 2.9683983,2.9683988 0 0 1 0.0439,-0.29352 2.9683983,2.9683988 0 0 1 0.0734,-0.28732 2.9683983,2.9683988 0 0 1 0.10179,-0.27906 2.9683983,2.9683988 0 0 1 0.1292,-0.26717 2.9683983,2.9683988 0 0 1 0.15502,-0.25269 2.9683983,2.9683988 0 0 1 0.17983,-0.23616 2.9683983,2.9683988 0 0 1 0.20207,-0.21756 2.9683983,2.9683988 0 0 1 0.22272,-0.19534 2.9683983,2.9683988 0 0 1 0.24133,-0.17312 2.9683983,2.9683988 0 0 1 0.25736,-0.14727 2.9683983,2.9683988 0 0 1 0.2713,-0.12144 2.9683983,2.9683988 0 0 1 0.28112,-0.0935 2.9683983,2.9683988 0 0 1 0.28991,-0.0651 2.9683983,2.9683988 0 0 1 0.29453,-0.0357 2.9683983,2.9683988 0 0 1 0.20981,-0.007 h 5.45963 a 12.644153,12.644153 0 0 0 12.64417,-12.64419 12.644153,12.644153 0 0 0 -12.64417,-12.64419 h -12.56411 -0.54674 z m 11.52954,8.82013 h 1.0578 2.73214 c 0.32673,0 0.7135,0.003 1.02217,0 0.21822,2.6e-4 0.43362,0.0126 0.64748,0.0305 v -0.03 a 3.8240279,3.8240279 0 0 1 3.80495,3.82354 3.8240279,3.8240279 0 0 1 -3.80495,3.82302 v 0.001 h -5.45959 a 2.9683983,2.9683988 0 0 1 -0.20982,-0.007 2.9683983,2.9683988 0 0 1 -0.29456,-0.0362 2.9683983,2.9683988 0 0 1 -0.28937,-0.0646 2.9683983,2.9683988 0 0 1 -0.28165,-0.0935 2.9683983,2.9683988 0 0 1 -0.27078,-0.12144 2.9683983,2.9683988 0 0 1 -0.25736,-0.14779 2.9683983,2.9683988 0 0 1 -0.24132,-0.1726 2.9683983,2.9683988 0 0 1 -0.22323,-0.19586 2.9683983,2.9683988 0 0 1 -0.20207,-0.21704 2.9683983,2.9683988 0 0 1 -0.17983,-0.23616 2.9683983,2.9683988 0 0 1 -0.15502,-0.2527 2.9683983,2.9683988 0 0 1 -0.1292,-0.26717 2.9683983,2.9683988 0 0 1 -0.10128,-0.27905 2.9683983,2.9683988 0 0 1 -0.0734,-0.28732 2.9683983,2.9683988 0 0 1 -0.0444,-0.29352 2.9683983,2.9683988 0 0 1 -0.0151,-0.29611 v -1.71152 a 2.9683983,2.9683988 0 0 1 0.0151,-0.29611 2.9683983,2.9683988 0 0 1 0.0444,-0.29352 2.9683983,2.9683988 0 0 1 0.0734,-0.28732 2.9683983,2.9683988 0 0 1 0.10128,-0.27905 2.9683983,2.9683988 0 0 1 0.1292,-0.26717 2.9683983,2.9683988 0 0 1 0.15502,-0.2527 2.9683983,2.9683988 0 0 1 0.17983,-0.23616 2.9683983,2.9683988 0 0 1 0.20207,-0.21704 2.9683983,2.9683988 0 0 1 0.22323,-0.19585 2.9683983,2.9683988 0 0 1 0.24132,-0.1726 2.9683983,2.9683988 0 0 1 0.25736,-0.1478 2.9683983,2.9683988 0 0 1 0.27078,-0.12144 2.9683983,2.9683988 0 0 1 0.28165,-0.0935 2.9683983,2.9683988 0 0 1 0.28937,-0.0646 2.9683983,2.9683988 0 0 1 0.29456,-0.0362 2.9683983,2.9683988 0 0 1 0.20982,-0.007 z"
       id="rect826-9-4-3-76"
       inkscape:export-filename="C:\Users\Alec\rect826-9-4-3-76.png"
       inkscape:export-xdpi="96"
       inkscape:export-ydpi="96" />
    <path
       inkscape:connector-curvature="0"
       style="opacity:1;fill:#000000;stroke:none;stroke-width:8.68272591;stroke-miterlimit:4;stroke-dasharray:none"
       d="m 134.08528,-115.2971 0.44649,0.7736 -2.75746,1.58595 a 3.2031411,3.2031406 60.097405 0 1 0.2005,-0.10594 3.2031411,3.2031406 60.097405 0 1 0.29456,-0.12506 3.2031411,3.2031406 60.097405 0 1 0.30594,-0.0951 3.2031411,3.2031406 60.097405 0 1 0.31366,-0.0641 3.2031411,3.2031406 60.097405 0 1 0.31832,-0.032 3.2031411,3.2031406 60.097405 0 1 0.32041,-5.3e-4 3.2031411,3.2031406 60.097405 0 1 0.31882,0.0315 3.2031411,3.2031406 60.097405 0 1 0.31369,0.0636 3.2031411,3.2031406 60.097405 0 1 0.30591,0.094 3.2031411,3.2031406 60.097405 0 1 0.29509,0.12454 3.2031411,3.2031406 60.097405 0 1 0.28112,0.15297 3.2031411,3.2031406 60.097405 0 1 0.26459,0.18086 3.2031411,3.2031406 60.097405 0 1 0.24495,0.20567 3.2031411,3.2031406 60.097405 0 1 0.22323,0.22945 3.2031411,3.2031406 60.097405 0 1 0.19431,0.24443 l 7.72871,13.386777 c 0.0684,0.0912 0.1374,0.180909 0.21188,0.265102 0.18243,0.206176 0.38317,0.391202 0.59738,0.553452 0.21421,0.162251 0.44259,0.30225 0.68109,0.418579 0.23852,0.116332 0.48673,0.208566 0.74208,0.276987 0.25537,0.0684 0.51765,0.112242 0.7824,0.130741 0.26471,0.01849 0.53226,0.01222 0.7989,-0.02119 0.26665,-0.0334 0.53216,-0.09357 0.79323,-0.180866 0.26109,-0.0874 0.51726,-0.20197 0.76533,-0.345199 l 0.0156,-0.0088 0.45836,-0.264583 0.0151,-0.0093 3.36,-1.939417 c 1.68802,-0.974583 2.42401,-2.942543 1.90273,-4.730463 a 10.772322,10.772322 0 0 1 -7.32306,-5.17901 3.2815255,1.3202201 60 0 1 -0.019,-0.0269 l -3.2272,-5.58984 z"
       id="path2713-8-9" />
  </g>
</svg>
