<?xml version="1.0" encoding="UTF-8" standalone="no"?>
<!-- Created with Inkscape (http://www.inkscape.org/) -->

<svg
   xmlns:dc="http://purl.org/dc/elements/1.1/"
   xmlns:cc="http://creativecommons.org/ns#"
   xmlns:rdf="http://www.w3.org/1999/02/22-rdf-syntax-ns#"
   xmlns:svg="http://www.w3.org/2000/svg"
   xmlns="http://www.w3.org/2000/svg"
   xmlns:sodipodi="http://sodipodi.sourceforge.net/DTD/sodipodi-0.dtd"
   xmlns:inkscape="http://www.inkscape.org/namespaces/inkscape"
   width="39.789791mm"
   height="41.77837mm"
   viewBox="0 0 39.78979 41.778369"
   version="1.1"
   id="svg2761"
   inkscape:version="0.92.4 (5da689c313, 2019-01-14)"
   sodipodi:docname="S.svg">
  <defs
     id="defs2755" />
  <sodipodi:namedview
     id="base"
     pagecolor="#ffffff"
     bordercolor="#666666"
     borderopacity="1.0"
     inkscape:pageopacity="0.0"
     inkscape:pageshadow="2"
     inkscape:zoom="0.98994949"
     inkscape:cx="-0.50411806"
     inkscape:cy="-19.52772"
     inkscape:document-units="mm"
     inkscape:current-layer="layer1"
     showgrid="false"
     fit-margin-top="0"
     fit-margin-left="0"
     fit-margin-right="0"
     fit-margin-bottom="0"
     inkscape:window-width="1600"
     inkscape:window-height="847"
     inkscape:window-x="-8"
     inkscape:window-y="22"
     inkscape:window-maximized="1" />
  <metadata
     id="metadata2758">
    <rdf:RDF>
      <cc:Work
         rdf:about="">
        <dc:format>image/svg+xml</dc:format>
        <dc:type
           rdf:resource="http://purl.org/dc/dcmitype/StillImage" />
        <dc:title></dc:title>
      </cc:Work>
    </rdf:RDF>
  </metadata>
  <g
     inkscape:label="Layer 1"
     inkscape:groupmode="layer"
     id="layer1"
     transform="translate(-130.64528,172.4034)">
    <path
       inkscape:connector-curvature="0"
       style="opacity:1;fill:#000000;stroke:none;stroke-width:8.68272591;stroke-miterlimit:4;stroke-dasharray:none"
       d="m 158.69265,-172.4034 v 0.0181 h -3.71658 v 5.3e-4 h -11.75379 c -6.94611,-2e-5 -12.57703,5.63091 -12.577,12.57701 -3e-5,6.94609 5.63089,12.71139 12.577,12.71136 h 14.19965 a 3.9028777,3.817529 0 0 1 3.87107,3.81631 3.9028777,3.817529 0 0 1 -3.9026,3.81734 h -11.82564 -1.24486 a 10.772322,10.772322 0 0 1 -8.14628,-3.75223 c -1.80901,0.4425 -3.14556,2.06399 -3.14556,4.01319 v 3.8747 0.0181 0.52917 0.0176 c 0,0.2865 0.0287,0.56591 0.0837,0.83561 0.0549,0.26981 0.13589,0.52962 0.24029,0.77722 0.1043,0.2477 0.23247,0.4828 0.38087,0.7028 0.14841,0.2201 0.31737,0.42495 0.50435,0.61185 0.1869,0.1869 0.39135,0.35648 0.61135,0.50488 0.22,0.1483 0.45519,0.27542 0.70278,0.37982 0.2476,0.1044 0.50803,0.18581 0.77775,0.24081 0.26979,0.055 0.54919,0.0842 0.8356,0.0842 h 4.68344 v -0.0176 h 15.54219 a 13.044678,12.636978 0 0 0 13.04469,-12.63695 13.044678,12.636978 0 0 0 -11.29749,-12.50828 c -0.32393,-0.081 -0.66112,-0.12868 -1.01082,-0.12868 h -0.73638 -14.16812 c -2.11231,-0.001 -3.82408,-1.7129 -3.82405,-3.82405 -3e-5,-2.11116 1.71174,-3.82292 3.82405,-3.82406 h 13.03125 a 10.772322,10.772322 0 0 1 8.11372,3.75119 c 1.80901,-0.4425 3.14555,-2.06399 3.14555,-4.01319 v -3.2799 c 0.0279,-0.19466 0.047,-0.39219 0.047,-0.5948 v -0.54674 c 0,-1.73569 -1.0591,-3.21351 -2.56831,-3.82922 0,-2.6e-4 -0.003,-7.9e-4 -0.003,-10e-4 -0.24763,-0.1044 -0.50805,-0.18581 -0.77774,-0.24081 -0.2698,-0.055 -0.5492,-0.0842 -0.83561,-0.0842 z"
       id="rect826-0-6-3-2"
       inkscape:export-filename="C:\Users\Alec\rect826-0-6-3-2.png"
       inkscape:export-xdpi="96"
       inkscape:export-ydpi="96" />
  </g>
</svg>
