<?xml version="1.0" encoding="UTF-8" standalone="no"?>
<!-- Created with Inkscape (http://www.inkscape.org/) -->

<svg
   xmlns:dc="http://purl.org/dc/elements/1.1/"
   xmlns:cc="http://creativecommons.org/ns#"
   xmlns:rdf="http://www.w3.org/1999/02/22-rdf-syntax-ns#"
   xmlns:svg="http://www.w3.org/2000/svg"
   xmlns="http://www.w3.org/2000/svg"
   xmlns:sodipodi="http://sodipodi.sourceforge.net/DTD/sodipodi-0.dtd"
   xmlns:inkscape="http://www.inkscape.org/namespaces/inkscape"
   width="37.789322mm"
   height="41.74218mm"
   viewBox="0 0 37.789321 41.74218"
   version="1.1"
   id="svg2761"
   inkscape:version="0.92.4 (5da689c313, 2019-01-14)"
   sodipodi:docname="s1.svg">
  <defs
     id="defs2755" />
  <sodipodi:namedview
     id="base"
     pagecolor="#ffffff"
     bordercolor="#666666"
     borderopacity="1.0"
     inkscape:pageopacity="0.0"
     inkscape:pageshadow="2"
     inkscape:zoom="0.98994949"
     inkscape:cx="-208.50989"
     inkscape:cy="33.355536"
     inkscape:document-units="mm"
     inkscape:current-layer="layer1"
     showgrid="false"
     fit-margin-top="0"
     fit-margin-left="0"
     fit-margin-right="0"
     fit-margin-bottom="0"
     inkscape:window-width="1600"
     inkscape:window-height="847"
     inkscape:window-x="-8"
     inkscape:window-y="22"
     inkscape:window-maximized="1"
     inkscape:snap-global="false" />
  <metadata
     id="metadata2758">
    <rdf:RDF>
      <cc:Work
         rdf:about="">
        <dc:format>image/svg+xml</dc:format>
        <dc:type
           rdf:resource="http://purl.org/dc/dcmitype/StillImage" />
        <dc:title></dc:title>
      </cc:Work>
    </rdf:RDF>
  </metadata>
  <g
     inkscape:label="Layer 1"
     inkscape:groupmode="layer"
     id="layer1"
     transform="translate(-117.9609,157.19874)">
    <g
       style="opacity:0.98999999"
       transform="matrix(0.5759176,0,0,0.5759176,-159.6792,98.173823)"
       id="layer1-0-4"
       inkscape:label="Layer 1">
      <path
         inkscape:export-ydpi="96"
         inkscape:export-xdpi="96"
         inkscape:export-filename="C:\Users\Alec\rect826-0-6-3-2.png"
         id="rect826-0-6-3-2-0"
         d="m 528.84553,-416.15321 -0.005,0.0181 h -3.71658 l -1.4e-4,5.3e-4 h -11.75379 c -6.94611,-2e-5 -14.08583,5.63091 -15.947,12.57701 -1.86123,6.94609 2.22488,12.71139 9.171,12.71136 h 14.19965 a 3.3807088,4.4071671 51.158469 0 1 2.84849,3.81631 3.3807088,4.4071671 51.158469 0 1 -4.92545,3.81734 h -11.82564 -1.24486 a 9.4253518,12.311787 48.81537 0 1 -7.14087,-3.75223 c -1.92758,0.4425 -3.69861,2.06399 -4.22089,4.01319 l -1.03823,3.8747 -0.005,0.0181 -0.14179,0.52917 -0.005,0.0176 c -0.0768,0.2865 -0.12294,0.56591 -0.1402,0.83561 -0.0174,0.26981 -0.006,0.52962 0.032,0.77722 0.0379,0.2477 0.1031,0.4828 0.19256,0.7028 0.0894,0.2201 0.2035,0.42495 0.3404,0.61185 0.13682,0.1869 0.29583,0.35648 0.47607,0.50488 0.18026,0.1483 0.38139,0.27542 0.60101,0.37982 0.21962,0.1044 0.45824,0.18581 0.71322,0.24081 0.25505,0.055 0.52663,0.0842 0.81304,0.0842 h 4.68344 l 0.005,-0.0176 h 15.54219 a 11.246696,14.657221 52.188325 0 0 16.43075,-12.63695 11.246696,14.657221 52.188325 0 0 -7.94591,-12.50828 c -0.30223,-0.081 -0.62664,-0.12868 -0.97634,-0.12868 h -0.73638 -14.16812 c -2.11204,-10e-4 -3.36511,-1.7129 -2.7994,-3.82405 0.56565,-2.11116 2.73609,-3.82292 4.8487,-3.82406 h 13.03125 a 9.4253518,12.311787 48.81537 0 1 7.1086,3.75119 c 1.92757,-0.4425 3.69859,-2.06399 4.22088,-4.01319 l 0.87884,-3.2799 c 0.0801,-0.19466 0.15209,-0.39219 0.20638,-0.5948 l 0.1465,-0.54674 c 0.46508,-1.73569 -0.19804,-3.21351 -1.54228,-3.82922 7e-5,-2.6e-4 -0.003,-7.9e-4 -0.003,-0.001 -0.21965,-0.1044 -0.45826,-0.18581 -0.71321,-0.24081 -0.25507,-0.055 -0.52664,-0.0842 -0.81305,-0.0842 z"
         style="opacity:1;fill:#000000;stroke:none;stroke-width:8.68272591;stroke-miterlimit:4;stroke-dasharray:none"
         inkscape:connector-curvature="0" />
    </g>
  </g>
</svg>
