<?xml version="1.0" encoding="UTF-8" standalone="no"?>
<!-- Created with Inkscape (http://www.inkscape.org/) -->

<svg
   xmlns:dc="http://purl.org/dc/elements/1.1/"
   xmlns:cc="http://creativecommons.org/ns#"
   xmlns:rdf="http://www.w3.org/1999/02/22-rdf-syntax-ns#"
   xmlns:svg="http://www.w3.org/2000/svg"
   xmlns="http://www.w3.org/2000/svg"
   xmlns:sodipodi="http://sodipodi.sourceforge.net/DTD/sodipodi-0.dtd"
   xmlns:inkscape="http://www.inkscape.org/namespaces/inkscape"
   width="22.95649mm"
   height="41.742157mm"
   viewBox="0 0 22.95649 41.742157"
   version="1.1"
   id="svg1187"
   inkscape:version="0.92.4 (5da689c313, 2019-01-14)"
   sodipodi:docname="t1.svg">
  <defs
     id="defs1181" />
  <sodipodi:namedview
     id="base"
     pagecolor="#ffffff"
     bordercolor="#666666"
     borderopacity="1.0"
     inkscape:pageopacity="0.0"
     inkscape:pageshadow="2"
     inkscape:zoom="0.35"
     inkscape:cx="-379.4748"
     inkscape:cy="-575.4029"
     inkscape:document-units="mm"
     inkscape:current-layer="layer1"
     showgrid="false"
     fit-margin-top="0"
     fit-margin-left="0"
     fit-margin-right="0"
     fit-margin-bottom="0"
     inkscape:window-width="1600"
     inkscape:window-height="847"
     inkscape:window-x="-8"
     inkscape:window-y="22"
     inkscape:window-maximized="1" />
  <metadata
     id="metadata1184">
    <rdf:RDF>
      <cc:Work
         rdf:about="">
        <dc:format>image/svg+xml</dc:format>
        <dc:type
           rdf:resource="http://purl.org/dc/dcmitype/StillImage" />
        <dc:title></dc:title>
      </cc:Work>
    </rdf:RDF>
  </metadata>
  <g
     inkscape:label="Layer 1"
     inkscape:groupmode="layer"
     id="layer1"
     transform="translate(-52.021755,45.15084)">
    <path
       style="opacity:1;fill:#000000;stroke:none;stroke-width:8.68272591;stroke-miterlimit:4;stroke-dasharray:none"
       d="m 64.421033,-45.15084 c -1.94916,0 -3.92878,1.336513 -4.85602,3.145543 1.77593,1.984947 2.36755,4.853628 1.62855,7.896675 l -0.9683,3.613732 h -0.44235 -4.16047 c -1.4896,0 -3.01016,1.199626 -3.4093,2.689244 l -0.0951,0.355015 c -0.39914,1.489617 0.47854,2.689244 1.96814,2.689244 h 4.16047 0.44236 l -4.74691,17.7157136 c -0.0167,0.113176 -0.0322,0.225753 -0.0394,0.335897 -0.0174,0.269766 -0.006,0.530111 0.0324,0.777729 0.038,0.247621 0.10259,0.482801 0.19202,0.7028 0.0895,0.220001 0.2037,0.424405 0.34054,0.611333 0.13684,0.186933 0.29647,0.355978 0.47671,0.504362 0.18024,0.148391 0.38111,0.276468 0.60076,0.380854 0.21965,0.104394 0.45777,0.185378 0.71283,0.240295 0.25503,0.0549 0.52671,0.08372 0.81317,0.08372 h 0.0176 0.0263 0.50282 0.0439 3.85246 c 1.94919,0 7.38042,-3.394786 8.307659,-5.203817 -0.96013,-1.073219 -3.493919,-0.677135 -4.42151,-1.5766466 -0.786149,-0.76233 -1.26272,-1.667007 -0.925359,-3.061311 l 3.02989,-11.510925 h 3.87263 c 1.489631,0 3.010191,-1.199627 3.40933,-2.689244 l 0.0951,-0.355015 c 0.39915,-1.489618 -0.47853,-2.689244 -1.96816,-2.689244 h -3.87263 l 2.95252,-11.018964 c 0.0167,-0.113177 0.0323,-0.225753 0.0394,-0.335898 0.0174,-0.269768 0.006,-0.530112 -0.0324,-0.777728 -0.0381,-0.247621 -0.10259,-0.482801 -0.19202,-0.702799 -0.0895,-0.220003 -0.20373,-0.424404 -0.34057,-0.611335 -0.13684,-0.18693 -0.29647,-0.355981 -0.47671,-0.504361 -0.18024,-0.148392 -0.38108,-0.276469 -0.60074,-0.380855 -0.21965,-0.104394 -0.45777,-0.185378 -0.71282,-0.240297 -0.25506,-0.0549 -0.52674,-0.08371 -0.81318,-0.08371 h -0.0176 -0.0264 -0.52038 -0.0263 z"
       id="path2713-8-4-0"
       inkscape:connector-curvature="0"
       sodipodi:nodetypes="cccccsccsccccccccccsccccsccccsccscccccccccsccccc" />
  </g>
</svg>
