<?xml version="1.0" encoding="UTF-8" standalone="no"?>
<!-- Created with Inkscape (http://www.inkscape.org/) -->

<svg
   xmlns:dc="http://purl.org/dc/elements/1.1/"
   xmlns:cc="http://creativecommons.org/ns#"
   xmlns:rdf="http://www.w3.org/1999/02/22-rdf-syntax-ns#"
   xmlns:svg="http://www.w3.org/2000/svg"
   xmlns="http://www.w3.org/2000/svg"
   xmlns:sodipodi="http://sodipodi.sourceforge.net/DTD/sodipodi-0.dtd"
   xmlns:inkscape="http://www.inkscape.org/namespaces/inkscape"
   width="41.053196mm"
   height="41.742229mm"
   viewBox="0 0 41.053195 41.742229"
   version="1.1"
   id="svg2761"
   inkscape:version="0.92.4 (5da689c313, 2019-01-14)"
   sodipodi:docname="U.svg">
  <defs
     id="defs2755" />
  <sodipodi:namedview
     id="base"
     pagecolor="#ffffff"
     bordercolor="#666666"
     borderopacity="1.0"
     inkscape:pageopacity="0.0"
     inkscape:pageshadow="2"
     inkscape:zoom="0.98994949"
     inkscape:cx="157.50158"
     inkscape:cy="-245.28437"
     inkscape:document-units="mm"
     inkscape:current-layer="layer1"
     showgrid="false"
     fit-margin-top="0"
     fit-margin-left="0"
     fit-margin-right="0"
     fit-margin-bottom="0"
     inkscape:window-width="1600"
     inkscape:window-height="847"
     inkscape:window-x="-8"
     inkscape:window-y="22"
     inkscape:window-maximized="1" />
  <metadata
     id="metadata2758">
    <rdf:RDF>
      <cc:Work
         rdf:about="">
        <dc:format>image/svg+xml</dc:format>
        <dc:type
           rdf:resource="http://purl.org/dc/dcmitype/StillImage" />
        <dc:title></dc:title>
      </cc:Work>
    </rdf:RDF>
  </metadata>
  <g
     inkscape:label="Layer 1"
     inkscape:groupmode="layer"
     id="layer1"
     transform="translate(-88.839605,232.09871)">
    <path
       inkscape:connector-curvature="0"
       style="opacity:1;fill:#000000;stroke:none;stroke-width:8.68272591;stroke-miterlimit:4;stroke-dasharray:none"
       d="m 92.852775,-232.09862 c -1.94918,0 -3.57068,1.33651 -4.01317,3.14554 a 10.772321,10.772321 0 0 1 3.75221,8.14628 1.32022,3.2815255 0 0 1 0.003,0.0331 v 15.82797 a 14.572788,14.572788 0 0 0 0,0.0165 14.572788,14.572788 0 0 0 14.572745,14.57275 14.572788,14.572788 0 0 0 10.16526,-4.15116 v 0.51418 c 0.0135,0.11318 0.0283,0.22575 0.0506,0.33589 0.0549,0.26977 0.13645,0.53011 0.24083,0.77773 0.1044,0.24762 0.23196,0.4828 0.38034,0.7028 0.1484,0.22 0.31742,0.4244 0.50434,0.61134 0.18693,0.18693 0.39185,0.35597 0.61185,0.50436 0.22,0.14839 0.45522,0.27647 0.70282,0.38085 0.24762,0.1044 0.50744,0.18538 0.77721,0.2403 0.26977,0.0549 0.54917,0.0837 0.83561,0.0837 h 0.0175 0.0265 0.50281 0.0439 3.85249 c 1.94919,0 3.57066,-1.33651 4.01318,-3.14554 a 10.772321,10.772321 0 0 1 -3.74396,-7.88686 v -27.07276 c -0.0135,-0.11318 -0.0283,-0.22576 -0.0506,-0.3359 -0.0549,-0.26977 -0.1364,-0.53011 -0.2408,-0.77773 -0.10438,-0.24762 -0.23193,-0.4828 -0.38034,-0.7028 -0.14838,-0.22 -0.31745,-0.4244 -0.50437,-0.61133 -0.18693,-0.18693 -0.39185,-0.35598 -0.61185,-0.50436 -0.22,-0.1484 -0.45517,-0.27647 -0.70279,-0.38086 -0.24765,-0.10439 -0.50744,-0.18538 -0.77721,-0.2403 -0.26977,-0.0549 -0.54915,-0.0837 -0.83561,-0.0837 h -0.0175 -0.0265 -0.52038 -0.0265 -3.853 c -1.94916,0 -3.57065,1.33651 -4.01317,3.14554 a 10.772321,10.772321 0 0 1 3.74446,7.89668 v 15.74116 a 3.2038933,3.2038933 0 0 1 -1.08262,2.36988 3.2038933,3.2038933 0 0 1 -0.003,0.002 14.572788,14.572788 0 0 1 -9.60925,3.64267 14.572788,14.572788 0 0 1 -3.16881,-0.37103 3.0414039,3.0414039 0 0 1 -0.21651,-0.0791 3.0414039,3.0414039 0 0 1 -0.27389,-0.13229 3.0414039,3.0414039 0 0 1 -0.2594,-0.15865 3.0414039,3.0414039 0 0 1 -0.24186,-0.18396 3.0414039,3.0414039 0 0 1 -0.22222,-0.20723 3.0414039,3.0414039 0 0 1 -0.201,-0.2284 3.0414039,3.0414039 0 0 1 -0.17674,-0.24754 3.0414039,3.0414039 0 0 1 -0.15143,-0.26354 3.0414039,3.0414039 0 0 1 -0.12401,-0.27751 3.0414039,3.0414039 0 0 1 -0.0956,-0.28835 3.0414039,3.0414039 0 0 1 -0.0667,-0.29663 3.0414039,3.0414039 0 0 1 -0.0367,-0.30179 3.0414039,3.0414039 0 0 1 -0.003,-0.0863 v -26.03872 c -0.0135,-0.11318 -0.0282,-0.22574 -0.0506,-0.33589 -0.0549,-0.26977 -0.13642,-0.53012 -0.2408,-0.77773 -0.10443,-0.24762 -0.23193,-0.4828 -0.38033,-0.7028 -0.14841,-0.22 -0.31692,-0.4244 -0.50385,-0.61133 -0.18693,-0.18694 -0.392375,-0.35599 -0.612375,-0.50437 -0.22003,-0.14839 -0.45519,-0.27646 -0.70278,-0.38085 -0.24763,-0.10439 -0.50745,-0.18538 -0.77722,-0.2403 -0.26977,-0.0549 -0.54917,-0.0837 -0.83561,-0.0837 h -0.0175 -0.52916 -0.0175 z"
       id="path5026"
       inkscape:export-filename="C:\Users\Alec\path5026.png"
       inkscape:export-xdpi="96"
       inkscape:export-ydpi="96" />
  </g>
</svg>
