<?xml version="1.0" encoding="UTF-8" standalone="no"?>
<!-- Created with Inkscape (http://www.inkscape.org/) -->

<svg
   xmlns:dc="http://purl.org/dc/elements/1.1/"
   xmlns:cc="http://creativecommons.org/ns#"
   xmlns:rdf="http://www.w3.org/1999/02/22-rdf-syntax-ns#"
   xmlns:svg="http://www.w3.org/2000/svg"
   xmlns="http://www.w3.org/2000/svg"
   xmlns:sodipodi="http://sodipodi.sourceforge.net/DTD/sodipodi-0.dtd"
   xmlns:inkscape="http://www.inkscape.org/namespaces/inkscape"
   width="37.849159mm"
   height="41.863987mm"
   viewBox="0 0 37.849158 41.863987"
   version="1.1"
   id="svg2761"
   inkscape:version="0.92.4 (5da689c313, 2019-01-14)"
   sodipodi:docname="V.svg">
  <defs
     id="defs2755" />
  <sodipodi:namedview
     id="base"
     pagecolor="#ffffff"
     bordercolor="#666666"
     borderopacity="1.0"
     inkscape:pageopacity="0.0"
     inkscape:pageshadow="2"
     inkscape:zoom="0.98994949"
     inkscape:cx="102.75772"
     inkscape:cy="-251.02412"
     inkscape:document-units="mm"
     inkscape:current-layer="layer1"
     showgrid="false"
     fit-margin-top="0"
     fit-margin-left="0"
     fit-margin-right="0"
     fit-margin-bottom="0"
     inkscape:window-width="1600"
     inkscape:window-height="847"
     inkscape:window-x="-8"
     inkscape:window-y="22"
     inkscape:window-maximized="1" />
  <metadata
     id="metadata2758">
    <rdf:RDF>
      <cc:Work
         rdf:about="">
        <dc:format>image/svg+xml</dc:format>
        <dc:type
           rdf:resource="http://purl.org/dc/dcmitype/StillImage" />
        <dc:title></dc:title>
      </cc:Work>
    </rdf:RDF>
  </metadata>
  <g
     inkscape:label="Layer 1"
     inkscape:groupmode="layer"
     id="layer1"
     transform="translate(-103.32392,340.64692)">
    <path
       inkscape:connector-curvature="0"
       style="opacity:1;fill:#000000;stroke:none;stroke-width:8.96500015;stroke-miterlimit:4;stroke-dasharray:none"
       d="m 107.46061,-340.64692 c -2.29167,-0.002 -4.13669,1.84501 -4.13669,4.1367 v 0.54674 c 0,0.23275 0.0217,0.45978 0.0584,0.68161 a 5.6242477,5.6242477 0 0 1 3.38273,3.38532 c 0,1.1e-4 0,0 0.003,0 l 12.39874,30.36197 c 0.52872,1.29471 1.59544,2.19889 2.83496,2.56419 0.0589,0.0178 0.11814,0.0307 0.17725,0.046 0.0677,0.0169 0.13504,0.0354 0.20362,0.0491 2.04369,0.4253 4.15197,-0.64551 4.97075,-2.65048 l 13.4891,-33.03209 c 0.92366,-2.2618 -0.15359,-4.8264 -2.41536,-5.75004 -0.57623,-0.23532 -1.17208,-0.33907 -1.75546,-0.32815 l -2.17556,-0.003 c -1.62885,-10e-4 -3.02821,0.93346 -3.70366,2.29598 a 5.6242477,5.6242477 0 0 1 0.59841,2.52181 5.6242477,5.6242477 0 0 1 -0.50848,2.32389 l -5.6746,13.8958 a 2.3151042,2.3151042 0 0 1 -1.96681,1.10174 2.3151042,2.3151042 0 0 1 -1.86139,-0.94723 l -7.53647,-18.45469 c -0.72705,-1.7803 -2.47105,-2.82135 -4.28348,-2.73575 l 0.15399,-0.008 z"
       id="rect826-58-3" />
  </g>
</svg>
