<?xml version="1.0" encoding="UTF-8" standalone="no"?>
<!-- Created with Inkscape (http://www.inkscape.org/) -->

<svg
   xmlns:dc="http://purl.org/dc/elements/1.1/"
   xmlns:cc="http://creativecommons.org/ns#"
   xmlns:rdf="http://www.w3.org/1999/02/22-rdf-syntax-ns#"
   xmlns:svg="http://www.w3.org/2000/svg"
   xmlns="http://www.w3.org/2000/svg"
   xmlns:sodipodi="http://sodipodi.sourceforge.net/DTD/sodipodi-0.dtd"
   xmlns:inkscape="http://www.inkscape.org/namespaces/inkscape"
   width="41.886101mm"
   height="41.885994mm"
   viewBox="0 0 41.886103 41.885994"
   version="1.1"
   id="svg2761"
   inkscape:version="0.92.4 (5da689c313, 2019-01-14)"
   sodipodi:docname="W.svg">
  <defs
     id="defs2755" />
  <sodipodi:namedview
     id="base"
     pagecolor="#ffffff"
     bordercolor="#666666"
     borderopacity="1.0"
     inkscape:pageopacity="0.0"
     inkscape:pageshadow="2"
     inkscape:zoom="1.4"
     inkscape:cx="-160.85722"
     inkscape:cy="-5.7862534"
     inkscape:document-units="mm"
     inkscape:current-layer="layer1"
     showgrid="false"
     fit-margin-top="0"
     fit-margin-left="0"
     fit-margin-right="0"
     fit-margin-bottom="0"
     inkscape:window-width="1600"
     inkscape:window-height="847"
     inkscape:window-x="-8"
     inkscape:window-y="22"
     inkscape:window-maximized="1"
     inkscape:snap-global="false" />
  <metadata
     id="metadata2758">
    <rdf:RDF>
      <cc:Work
         rdf:about="">
        <dc:format>image/svg+xml</dc:format>
        <dc:type
           rdf:resource="http://purl.org/dc/dcmitype/StillImage" />
        <dc:title></dc:title>
      </cc:Work>
    </rdf:RDF>
  </metadata>
  <g
     inkscape:label="Layer 1"
     inkscape:groupmode="layer"
     id="layer1"
     transform="translate(-148.73777,365.64482)">
    <path
       style="opacity:1;fill:#000000;stroke:none;stroke-width:28.52351379;stroke-miterlimit:4;stroke-dasharray:none"
       d="M 11.080078 0 C 4.942201 -0.0075590551 0 6.9732979 0 15.634766 L 0 17.701172 C 0 18.580857 0.057982283 19.438969 0.15625 20.277344 A 15.063796 21.2569 0 0 1 9.2167969 33.072266 C 9.2167969 33.072681 9.2170503 33.072266 9.2246094 33.072266 L 42.431641 147.82617 C 43.747937 152.37491 46.315075 155.63888 49.335938 157.1875 C 49.423623 157.23512 49.512744 157.27924 49.601562 157.32422 C 49.757279 157.39792 49.912555 157.46857 50.070312 157.5332 C 50.240391 157.60804 50.405917 157.69514 50.580078 157.75977 C 52.118054 158.32925 53.661712 158.44182 55.140625 158.16016 C 60.177197 159.17329 65.005402 154.25954 66.34375 146.35938 L 76.169922 88.355469 A 3.9738417 6.3124701 0 0 1 79.259766 84.271484 A 4.47336 6.3124702 0 0 1 79.917969 84.179688 A 3.9738417 6.3124701 0 0 1 83.689453 88.583984 L 83.701172 88.583984 L 96.904297 147.26953 C 98.199163 153.0253 101.33439 156.91834 104.92188 157.93359 C 104.94076 157.94115 104.96478 157.94752 104.98633 157.95508 C 105.14015 157.99703 105.29557 158.02527 105.45117 158.05664 C 106.47922 158.28623 107.50566 158.25471 108.50391 158.00977 C 108.58344 158.02437 108.66244 158.04235 108.74219 158.05664 C 113.97048 159.09386 119.20344 155.08647 121.29492 147.85938 L 157.42383 23.015625 C 159.89776 14.467165 157.01298 4.774126 150.95508 1.2832031 C 149.41175 0.39388029 147.8164 0.0016585138 146.25391 0.04296875 L 140.42578 0.03125 C 140.13302 0.030996368 139.84347 0.049067811 139.55664 0.080078125 C 139.29492 0.056959179 139.03352 0.035228363 138.77344 0.04296875 L 133.59766 0.03125 C 129.7222 0.027470472 126.39217 3.5593403 124.78516 8.7089844 A 13.381695 21.2569 0 0 1 126.20898 18.240234 A 13.381695 21.2569 0 0 1 125 27.023438 L 111.47656 79.625 L 111.4707 79.625 A 3.9738417 6.3124701 0 0 1 111.41797 79.851562 L 111.2832 80.369141 A 3.9738417 6.3124701 0 0 1 109.37109 83.427734 A 4.47336 6.3124702 0 0 1 107.18359 80.300781 L 89.859375 11.888672 C 88.520137 6.5989585 85.427578 2.894868 81.800781 1.5429688 L 81.800781 1.5644531 C 81.374299 1.3286106 80.937175 1.1136905 80.482422 0.9453125 C 80.086913 0.79884136 79.691996 0.69400561 79.296875 0.60742188 C 78.806121 0.4860737 78.317127 0.41822356 77.832031 0.40820312 C 77.830725 0.40817614 77.829431 0.40822932 77.828125 0.40820312 C 77.535526 0.39653442 77.24458 0.39910891 76.955078 0.41796875 C 76.569075 0.44442544 76.186962 0.49478531 75.808594 0.57226562 L 70.150391 1.5722656 C 65.914069 2.3223129 62.589586 6.3504614 61.291016 11.591797 A 20.509774 14.747505 89.905027 0 1 63.693359 20.4375 A 20.509774 14.747505 89.905027 0 1 63.152344 29.078125 L 54.597656 73.943359 A 4.47336 6.3124702 0 0 1 52.244141 77.099609 A 3.9738417 6.3124701 0 0 1 50.386719 74.59375 L 33.878906 10.376953 C 32.149016 3.6482982 27.99979 -0.28645598 23.6875 0.037109375 L 24.054688 0.005859375 L 18.693359 0 C 18.444199 -0.00034542271 18.199489 0.030259595 17.955078 0.05859375 C 17.538937 0.023659286 17.121716 0.0090781123 16.701172 0.037109375 L 17.113281 0.005859375 L 11.080078 0 z "
       transform="matrix(0.26458333,0,0,0.26458333,148.73777,-365.64482)"
       id="rect826-58-3-9-6" />
  </g>
</svg>
