<?xml version="1.0" encoding="UTF-8" standalone="no"?>
<!-- Created with Inkscape (http://www.inkscape.org/) -->

<svg
   xmlns:dc="http://purl.org/dc/elements/1.1/"
   xmlns:cc="http://creativecommons.org/ns#"
   xmlns:rdf="http://www.w3.org/1999/02/22-rdf-syntax-ns#"
   xmlns:svg="http://www.w3.org/2000/svg"
   xmlns="http://www.w3.org/2000/svg"
   xmlns:sodipodi="http://sodipodi.sourceforge.net/DTD/sodipodi-0.dtd"
   xmlns:inkscape="http://www.inkscape.org/namespaces/inkscape"
   width="59.106548mm"
   height="41.886101mm"
   viewBox="0 0 59.106548 41.886101"
   version="1.1"
   id="svg7061"
   inkscape:version="0.92.4 (5da689c313, 2019-01-14)"
   sodipodi:docname="W2.svg">
  <defs
     id="defs7055" />
  <sodipodi:namedview
     id="base"
     pagecolor="#ffffff"
     bordercolor="#666666"
     borderopacity="1.0"
     inkscape:pageopacity="0.0"
     inkscape:pageshadow="2"
     inkscape:zoom="0.35"
     inkscape:cx="111.69733"
     inkscape:cy="79.154812"
     inkscape:document-units="mm"
     inkscape:current-layer="layer1"
     showgrid="false"
     fit-margin-top="0"
     fit-margin-left="0"
     fit-margin-right="0"
     fit-margin-bottom="0"
     inkscape:window-width="1600"
     inkscape:window-height="847"
     inkscape:window-x="-8"
     inkscape:window-y="22"
     inkscape:window-maximized="1" />
  <metadata
     id="metadata7058">
    <rdf:RDF>
      <cc:Work
         rdf:about="">
        <dc:format>image/svg+xml</dc:format>
        <dc:type
           rdf:resource="http://purl.org/dc/dcmitype/StillImage" />
        <dc:title></dc:title>
      </cc:Work>
    </rdf:RDF>
  </metadata>
  <g
     inkscape:label="Layer 1"
     inkscape:groupmode="layer"
     id="layer1"
     transform="translate(59.791346,-127.89028)">
    <path
       style="opacity:1;fill:#000000;stroke:none;stroke-width:8.96500015;stroke-miterlimit:4;stroke-dasharray:none"
       d="m -55.654665,127.89028 c -2.291662,-0.002 -4.136681,1.84501 -4.136681,4.1367 v 0.54674 c 0,0.23275 0.0217,0.45979 0.05839,0.68161 a 5.6242477,5.6242477 0 0 1 3.382725,3.38533 c 0,1e-4 0,0 0.0027,0 l 12.398741,30.36197 c 0.491464,1.20351 1.449229,2.06711 2.577095,2.47685 0.03278,0.0126 0.06599,0.0243 0.09922,0.0362 0.05808,0.0195 0.116285,0.0382 0.175181,0.0553 0.06355,0.0198 0.125095,0.0429 0.190183,0.0599 2.311929,0.60666 4.666773,-0.73853 5.27976,-3.01636 l 4.129482,-15.34686 a 1.6701822,1.6701822 0 0 1 1.5689,-1.10536 1.6701822,1.6701822 0 0 1 1.591628,1.16582 h 0.0042 l 5.549027,15.52722 c 0.544221,1.52288 1.862508,2.55291 3.370315,2.82153 0.009,0.002 0.01799,0.004 0.02688,0.006 0.06466,0.0111 0.130016,0.0186 0.195342,0.0269 1.952043,0.27443 3.906176,-0.78585 4.687041,-2.69802 l 13.4891278,-33.03211 c 0.92366,-2.26179 -0.153564,-4.82639 -2.415355,-5.75004 -0.576209,-0.23531 -1.172051,-0.33907 -1.755431,-0.32814 l -2.175589,-0.003 c -1.628855,-0.001 -3.0282088,0.93346 -3.7036378,2.29599 a 5.6242477,5.6242477 0 0 1 0.598408,2.52181 5.6242477,5.6242477 0 0 1 -0.508502,2.32389 l -5.683383,13.91749 h -0.0026 a 1.6701822,1.6701822 0 0 1 -0.02222,0.0599 l -0.0563,0.13695 a 1.6701822,1.6701822 0 0 1 -1.513099,0.96893 1.6701822,1.6701822 0 0 1 -1.519793,-0.98702 l -6.468931,-18.1007 c -0.500036,-1.39958 -1.654466,-2.37961 -3.008577,-2.7373 v 0.006 c -0.159227,-0.0624 -0.322184,-0.11926 -0.491967,-0.16381 -0.441748,-0.11593 -0.884872,-0.15949 -1.317228,-0.13953 -0.144118,0.007 -0.287152,0.0203 -0.428413,0.0408 l -2.112513,0.26459 c -1.581679,0.19845 -2.822972,1.26421 -3.307821,2.651 a 5.5062789,5.4264489 2.1860659 0 1 0.897097,2.34042 5.5062789,5.4264489 2.1860659 0 1 -0.202036,2.28617 l -3.19413,11.87008 a 1.6701822,1.6701822 0 0 1 -1.510506,0.96273 1.6701822,1.6701822 0 0 1 -1.416976,-0.79065 l -6.938063,-16.9907 c -0.727049,-1.7803 -2.47105,-2.82135 -4.283472,-2.73575 l 0.154014,-0.008 z m 25.506468,18.36064 0.05064,0.14108 h -0.08837 z"
       id="rect826-58-3-9"
       inkscape:connector-curvature="0" />
  </g>
</svg>
