<?xml version="1.0" encoding="UTF-8" standalone="no"?>
<!-- Created with Inkscape (http://www.inkscape.org/) -->

<svg
   xmlns:dc="http://purl.org/dc/elements/1.1/"
   xmlns:cc="http://creativecommons.org/ns#"
   xmlns:rdf="http://www.w3.org/1999/02/22-rdf-syntax-ns#"
   xmlns:svg="http://www.w3.org/2000/svg"
   xmlns="http://www.w3.org/2000/svg"
   xmlns:sodipodi="http://sodipodi.sourceforge.net/DTD/sodipodi-0.dtd"
   xmlns:inkscape="http://www.inkscape.org/namespaces/inkscape"
   width="36.217148mm"
   height="41.741959mm"
   viewBox="0 0 36.217147 41.74196"
   version="1.1"
   id="svg2761"
   inkscape:version="0.92.4 (5da689c313, 2019-01-14)"
   sodipodi:docname="X.svg">
  <defs
     id="defs2755" />
  <sodipodi:namedview
     id="base"
     pagecolor="#ffffff"
     bordercolor="#666666"
     borderopacity="1.0"
     inkscape:pageopacity="0.0"
     inkscape:pageshadow="2"
     inkscape:zoom="1.4"
     inkscape:cx="7.284798"
     inkscape:cy="-57.945772"
     inkscape:document-units="mm"
     inkscape:current-layer="layer1"
     showgrid="false"
     fit-margin-top="0"
     fit-margin-left="0"
     fit-margin-right="0"
     fit-margin-bottom="0"
     inkscape:window-width="1600"
     inkscape:window-height="847"
     inkscape:window-x="-8"
     inkscape:window-y="22"
     inkscape:window-maximized="1" />
  <metadata
     id="metadata2758">
    <rdf:RDF>
      <cc:Work
         rdf:about="">
        <dc:format>image/svg+xml</dc:format>
        <dc:type
           rdf:resource="http://purl.org/dc/dcmitype/StillImage" />
        <dc:title></dc:title>
      </cc:Work>
    </rdf:RDF>
  </metadata>
  <g
     inkscape:label="Layer 1"
     inkscape:groupmode="layer"
     id="layer1"
     transform="translate(-133.43378,276.33296)">
    <path
       inkscape:connector-curvature="0"
       style="opacity:1;fill:#000000;stroke:none;stroke-width:9.55819893;stroke-miterlimit:4;stroke-dasharray:none"
       d="m 141.56419,-276.32775 c -0.14372,0.007 -0.28752,0.022 -0.43045,0.0439 -0.28583,0.0439 -0.5688,0.11701 -0.84542,0.22117 -0.27662,0.10416 -0.54637,0.23909 -0.80566,0.40566 l -0.0161,0.0104 -0.0238,0.0155 -0.4713,0.30283 -0.0238,0.015 -3.48713,2.24069 c -1.76427,1.13342 -2.44219,3.35818 -1.77353,5.35058 a 12.157402,11.566768 68.901353 0 1 8.05635,5.39657 l 4.22918,6.86315 -4.2354,6.87348 a 11.566903,12.157424 21.10382 0 1 -8.05013,5.38778 c -0.66871,1.9924 0.009,4.21714 1.77353,5.35058 l 3.4866,2.24017 0.0398,0.0253 0.45527,0.29248 0.0238,0.0155 0.0161,0.0103 c 0.25929,0.16658 0.52901,0.30149 0.80563,0.40567 0.27665,0.10416 0.55959,0.17731 0.84542,0.22117 0.28583,0.0439 0.5746,0.0578 0.86146,0.0434 0.28684,-0.0144 0.57195,-0.0571 0.85162,-0.12764 0.27969,-0.0706 0.55372,-0.16828 0.81803,-0.29301 0.26438,-0.12472 0.51883,-0.2764 0.75965,-0.4532 0.24088,-0.1768 0.46831,-0.37885 0.67749,-0.60565 0.0855,-0.0925 0.16531,-0.19238 0.24442,-0.293 l 6.19652,-10.0552 6.19601,10.0552 c 0.0791,0.10062 0.15894,0.20046 0.24442,0.293 0.20916,0.2268 0.43665,0.42885 0.6775,0.60565 0.24082,0.1768 0.49527,0.32848 0.75964,0.4532 0.26432,0.12473 0.53835,0.22242 0.81804,0.29301 0.27969,0.0706 0.56531,0.11323 0.85214,0.12764 0.28684,0.0144 0.5751,5.3e-4 0.86093,-0.0434 0.28583,-0.0439 0.5688,-0.11701 0.84542,-0.22117 0.27663,-0.10418 0.54687,-0.23909 0.80616,-0.40567 l 0.0156,-0.0103 0.0238,-0.0155 0.45526,-0.29248 0.0398,-0.0253 3.48713,-2.24017 c 1.76424,-1.13341 2.44168,-3.35818 1.773,-5.35058 a 12.157402,11.566768 68.901353 0 1 -8.05014,-5.38778 l -4.23539,-6.87297 4.2297,-6.86366 a 11.566903,12.157424 21.10382 0 1 8.05636,-5.39657 c 0.66868,-1.9924 -0.009,-4.21716 -1.77303,-5.35058 l -3.48816,-2.24069 -0.0233,-0.015 -0.47128,-0.30283 -0.0238,-0.0155 -0.0161,-0.0104 c -0.25929,-0.16657 -0.52901,-0.3015 -0.80563,-0.40566 -0.27662,-0.10416 -0.5596,-0.17731 -0.84543,-0.22117 -0.28583,-0.0439 -0.57462,-0.0578 -0.86145,-0.0434 -0.28684,0.0144 -0.57195,0.0571 -0.85162,0.12764 -0.27969,0.0706 -0.55372,0.16829 -0.81804,0.293 -0.26434,0.12474 -0.51879,0.27641 -0.75964,0.45321 -0.24085,0.17679 -0.46834,0.37884 -0.67749,0.60565 -0.0854,0.0926 -0.16542,0.19233 -0.24443,0.293 l -6.19601,10.05468 -6.19598,-10.05468 c -0.079,-0.10067 -0.15904,-0.20041 -0.24445,-0.293 -0.20916,-0.22681 -0.43664,-0.42886 -0.67747,-0.60565 -0.24085,-0.1768 -0.49532,-0.32847 -0.75964,-0.45321 -0.26435,-0.12471 -0.53835,-0.22241 -0.81804,-0.293 -0.27969,-0.0706 -0.56481,-0.11326 -0.85164,-0.12764 -0.14341,-0.007 -0.28726,-0.008 -0.43098,-5.3e-4 z"
       id="path2713-8-4-5-7"
       inkscape:export-filename="C:\Users\Alec\path2713-8-4-5-7.png"
       inkscape:export-xdpi="96"
       inkscape:export-ydpi="96" />
  </g>
</svg>
