<?xml version="1.0" encoding="UTF-8" standalone="no"?>
<!-- Created with Inkscape (http://www.inkscape.org/) -->

<svg
   xmlns:dc="http://purl.org/dc/elements/1.1/"
   xmlns:cc="http://creativecommons.org/ns#"
   xmlns:rdf="http://www.w3.org/1999/02/22-rdf-syntax-ns#"
   xmlns:svg="http://www.w3.org/2000/svg"
   xmlns="http://www.w3.org/2000/svg"
   xmlns:sodipodi="http://sodipodi.sourceforge.net/DTD/sodipodi-0.dtd"
   xmlns:inkscape="http://www.inkscape.org/namespaces/inkscape"
   width="29.90609mm"
   height="41.74213mm"
   viewBox="0 0 29.906089 41.742131"
   version="1.1"
   id="svg2761"
   inkscape:version="0.92.4 (5da689c313, 2019-01-14)"
   sodipodi:docname="Y.svg">
  <defs
     id="defs2755" />
  <sodipodi:namedview
     id="base"
     pagecolor="#ffffff"
     bordercolor="#666666"
     borderopacity="1.0"
     inkscape:pageopacity="0.0"
     inkscape:pageshadow="2"
     inkscape:zoom="0.98994949"
     inkscape:cx="56.515429"
     inkscape:cy="78.882749"
     inkscape:document-units="mm"
     inkscape:current-layer="layer1"
     showgrid="false"
     fit-margin-top="0"
     fit-margin-left="0"
     fit-margin-right="0"
     fit-margin-bottom="0"
     inkscape:window-width="1600"
     inkscape:window-height="847"
     inkscape:window-x="-8"
     inkscape:window-y="22"
     inkscape:window-maximized="1" />
  <metadata
     id="metadata2758">
    <rdf:RDF>
      <cc:Work
         rdf:about="">
        <dc:format>image/svg+xml</dc:format>
        <dc:type
           rdf:resource="http://purl.org/dc/dcmitype/StillImage" />
        <dc:title></dc:title>
      </cc:Work>
    </rdf:RDF>
  </metadata>
  <g
     inkscape:label="Layer 1"
     inkscape:groupmode="layer"
     id="layer1"
     transform="translate(-115.55886,253.2372)">
    <path
       inkscape:connector-curvature="0"
       style="opacity:1;fill:#000000;stroke:none;stroke-width:8.68272591;stroke-miterlimit:4;stroke-dasharray:none"
       d="m 120.12091,-253.23568 c -0.6749,0.0185 -1.35588,0.20307 -1.98387,0.56999 l -0.47956,0.2806 c -2.01001,1.17444 -2.69425,3.75719 -1.53376,5.79138 0,0 6.42673,11.21316 8.84391,15.54427 0.009,0.0139 0.0153,0.0294 0.0243,0.0434 0.0795,0.14253 0.1914,0.34084 0.26149,0.46715 0.0545,0.10117 0.10618,0.2037 0.15502,0.30748 0.0875,0.19824 0.16462,0.40055 0.23101,0.60616 0.0665,0.20546 0.12218,0.41398 0.1669,0.62477 0.0447,0.21099 0.0783,0.42399 0.10078,0.6382 0.0169,0.17698 0.0262,0.35456 0.0279,0.53227 0.003,1.92161 -0.0135,5.01003 -0.0135,5.01003 0,0.011 -0.003,0.0221 -0.003,0.0331 -0.007,3.13175 -1.37681,6.10537 -3.75224,8.14627 0.44252,1.80903 2.06401,3.14554 4.0132,3.14554 h 3.87935 0.0175 0.52917 0.0169 c 0.28646,0 0.56584,-0.0288 0.83561,-0.0837 0.26977,-0.0549 0.52959,-0.13589 0.77721,-0.2403 0.24762,-0.10438 0.48279,-0.23247 0.70279,-0.38085 0.22,-0.14838 0.42494,-0.31744 0.61185,-0.50436 0.18692,-0.18694 0.35599,-0.39134 0.50437,-0.61134 0.14841,-0.22001 0.27596,-0.45517 0.38034,-0.7028 0.1044,-0.24762 0.1859,-0.50796 0.2408,-0.77773 0.0225,-0.11015 0.037,-0.2227 0.0506,-0.33589 v -12.07989 c 0,-0.19775 0.0106,-0.39536 0.0295,-0.59221 0.0214,-0.21421 0.0538,-0.42721 0.0966,-0.6382 0.0428,-0.21079 0.0961,-0.41931 0.15967,-0.62477 0.0636,-0.20562 0.1374,-0.40793 0.2212,-0.60617 0.0838,-0.19817 0.17743,-0.39202 0.28059,-0.58084 l -0.78703,1.37046 10.16217,-17.71003 c 1.18395,-2.03419 0.48582,-4.61694 -1.56478,-5.79138 l -0.48884,-0.2806 c -0.64079,-0.36701 -1.33601,-0.55154 -2.0247,-0.56999 -1.51511,-0.0406 -3.00029,0.72333 -3.81423,2.12183 l -5.02346,8.63152 h -0.004 a 1.6701822,1.6701822 0 0 1 -0.006,0.0176 l -0.34676,0.5948 a 1.6701822,1.6701822 0 0 1 -1.23817,0.55345 1.6701822,1.6701822 0 0 1 -1.2614,-0.58084 l -0.32195,-0.56482 a 1.6701822,1.6701822 0 0 1 -0.007,-0.0202 h -0.004 l -4.92424,-8.63151 c -0.79774,-1.39835 -2.25282,-2.16224 -3.73776,-2.12184 z m 15.39285,22.98154 c 0.0464,-0.0796 0.0944,-0.15813 0.14418,-0.23564 -0.003,-0.002 -0.003,-0.003 -0.006,-0.005 z"
       id="path2713-8-3" />
  </g>
</svg>
