<?xml version="1.0" encoding="UTF-8" standalone="no"?>
<!-- Created with Inkscape (http://www.inkscape.org/) -->

<svg
   xmlns:dc="http://purl.org/dc/elements/1.1/"
   xmlns:cc="http://creativecommons.org/ns#"
   xmlns:rdf="http://www.w3.org/1999/02/22-rdf-syntax-ns#"
   xmlns:svg="http://www.w3.org/2000/svg"
   xmlns="http://www.w3.org/2000/svg"
   xmlns:sodipodi="http://sodipodi.sourceforge.net/DTD/sodipodi-0.dtd"
   xmlns:inkscape="http://www.inkscape.org/namespaces/inkscape"
   width="34.395844mm"
   height="41.734402mm"
   viewBox="0 0 34.395845 41.734402"
   version="1.1"
   id="svg2761"
   inkscape:version="0.92.4 (5da689c313, 2019-01-14)"
   sodipodi:docname="Z.svg">
  <defs
     id="defs2755" />
  <sodipodi:namedview
     id="base"
     pagecolor="#ffffff"
     bordercolor="#666666"
     borderopacity="1.0"
     inkscape:pageopacity="0.0"
     inkscape:pageshadow="2"
     inkscape:zoom="1.4"
     inkscape:cx="169.57382"
     inkscape:cy="-61.969818"
     inkscape:document-units="mm"
     inkscape:current-layer="layer1"
     showgrid="false"
     fit-margin-top="0"
     fit-margin-left="0"
     fit-margin-right="0"
     fit-margin-bottom="0"
     inkscape:window-width="1600"
     inkscape:window-height="847"
     inkscape:window-x="-8"
     inkscape:window-y="22"
     inkscape:window-maximized="1" />
  <metadata
     id="metadata2758">
    <rdf:RDF>
      <cc:Work
         rdf:about="">
        <dc:format>image/svg+xml</dc:format>
        <dc:type
           rdf:resource="http://purl.org/dc/dcmitype/StillImage" />
        <dc:title></dc:title>
      </cc:Work>
    </rdf:RDF>
  </metadata>
  <g
     inkscape:label="Layer 1"
     inkscape:groupmode="layer"
     id="layer1"
     transform="translate(-90.494808,360.54486)">
    <path
       inkscape:connector-curvature="0"
       style="opacity:1;fill:#000000;stroke:none;stroke-width:8.68272591;stroke-miterlimit:4;stroke-dasharray:none"
       d="m 94.131793,-360.54486 c -0.113189,0.0136 -0.225769,0.0282 -0.335889,0.0506 -0.269769,0.0549 -0.530119,0.13643 -0.777742,0.24081 -0.247624,0.1044 -0.482786,0.23195 -0.702787,0.38034 -0.220001,0.14839 -0.424418,0.31744 -0.611346,0.50436 -0.186928,0.18694 -0.35597,0.39184 -0.504349,0.61185 -0.148404,0.22 -0.276463,0.45519 -0.380867,0.7028 -0.104378,0.24762 -0.185367,0.50745 -0.240295,0.77722 -0.0549,0.26977 -0.08371,0.54914 -0.08371,0.83561 v 0.0176 0.52917 0.0176 3.87935 c 0,1.94917 1.335987,3.57068 3.145023,4.01319 a 10.772321,10.772321 0 0 1 8.146789,-3.75222 3.2815255,1.32022 0 0 1 0.0331,-0.003 h 2.44948 v 0.004 h 4.02661 a 1.5668676,1.5668676 0 0 1 1.51464,1.56424 1.5668676,1.5668676 0 0 1 -0.17362,0.71107 l -17.941554,22.7552 c -0.446352,0.5661 -0.764143,1.19273 -0.961178,1.83865 -0.152109,0.43186 -0.239263,0.89511 -0.239263,1.38028 v 0.54673 c 0,2.24283 1.768422,4.05261 3.992007,4.12895 0.03855,-0.002 0.0767,-0.004 0.115226,-0.006 0.11348,0.003 0.227171,0.005 0.341074,-0.002 h 6.197048 v 0.004 h 5.93708 v 0.004 h 14.17641 c 0.11318,-0.0136 0.22576,-0.0283 0.33588,-0.0506 0.2698,-0.0549 0.53012,-0.13643 0.77775,-0.24082 0.24762,-0.10439 0.48281,-0.23195 0.70281,-0.38034 0.21992,-0.14839 0.42439,-0.31743 0.61132,-0.50436 0.18693,-0.18693 0.35597,-0.39184 0.50435,-0.61185 0.14843,-0.22 0.27646,-0.45518 0.38087,-0.7028 0.10437,-0.24762 0.18536,-0.50744 0.24029,-0.77721 0.0549,-0.26977 0.0837,-0.54915 0.0837,-0.83561 v -0.0176 -0.52917 -0.0176 -3.87935 c 0,-1.94917 -1.33598,-3.57068 -3.14502,-4.01319 a 10.772322,10.772322 0 0 1 -8.14678,3.75223 3.2815255,1.3202201 0 0 1 -0.0331,0.003 h -2.44946 v -0.004 h -4.25452 a 1.5668675,1.5668675 0 0 1 -1.30019,-1.54254 1.5668675,1.5668675 0 0 1 0.17933,-0.72347 l 17.94928,-22.7645 c 0.44636,-0.5661 0.76415,-1.19269 0.96118,-1.83865 0.15214,-0.43185 0.23926,-0.89511 0.23926,-1.38027 v -0.54674 c 0,-2.24283 -1.76842,-4.05261 -3.992,-4.12895 -0.0385,0.002 -0.0767,0.004 -0.11523,0.006 -0.11361,-0.003 -0.22704,-0.005 -0.34107,0.002 h -6.19705 v -0.004 h -5.93709 v -0.004 z"
       id="path4111" />
  </g>
</svg>
