<?xml version="1.0" encoding="UTF-8" standalone="no"?>
<!-- Created with Inkscape (http://www.inkscape.org/) -->

<svg
   xmlns:dc="http://purl.org/dc/elements/1.1/"
   xmlns:cc="http://creativecommons.org/ns#"
   xmlns:rdf="http://www.w3.org/1999/02/22-rdf-syntax-ns#"
   xmlns:svg="http://www.w3.org/2000/svg"
   xmlns="http://www.w3.org/2000/svg"
   xmlns:sodipodi="http://sodipodi.sourceforge.net/DTD/sodipodi-0.dtd"
   xmlns:inkscape="http://www.inkscape.org/namespaces/inkscape"
   width="210mm"
   height="297mm"
   viewBox="0 0 210 297"
   version="1.1"
   id="svg8"
   inkscape:version="0.92.4 (5da689c313, 2019-01-14)"
   sodipodi:docname="arrow.svg">
  <defs
     id="defs2">
    <inkscape:path-effect
       effect="bspline"
       id="path-effect828"
       is_visible="true"
       weight="33.333333"
       steps="2"
       helper_size="0"
       apply_no_weight="true"
       apply_with_weight="true"
       only_selected="false" />
  </defs>
  <sodipodi:namedview
     id="base"
     pagecolor="#ffffff"
     bordercolor="#666666"
     borderopacity="1.0"
     inkscape:pageopacity="0.0"
     inkscape:pageshadow="2"
     inkscape:zoom="0.175"
     inkscape:cx="-2306.6719"
     inkscape:cy="-390.78447"
     inkscape:document-units="mm"
     inkscape:current-layer="layer1"
     showgrid="false"
     showguides="true"
     inkscape:guide-bbox="true"
     inkscape:window-width="1600"
     inkscape:window-height="847"
     inkscape:window-x="-8"
     inkscape:window-y="22"
     inkscape:window-maximized="1"
     inkscape:snap-bbox="false"
     inkscape:snap-global="true"
     inkscape:object-paths="true" />
  <metadata
     id="metadata5">
    <rdf:RDF>
      <cc:Work
         rdf:about="">
        <dc:format>image/svg+xml</dc:format>
        <dc:type
           rdf:resource="http://purl.org/dc/dcmitype/StillImage" />
        <dc:title></dc:title>
      </cc:Work>
    </rdf:RDF>
  </metadata>
  <g
     inkscape:label="Layer 1"
     inkscape:groupmode="layer"
     id="layer1">
    <path
       style="fill:#000000;stroke:none;stroke-width:0.22660176px;stroke-linecap:butt;stroke-linejoin:miter;stroke-opacity:1"
       d="M 52.394173,48.461506 7.3917534,125.04246 a 22.427497,16.450628 0 0 1 16.9720886,-5.70998 22.427497,16.450628 0 0 1 22.427573,16.45068 22.427497,16.450628 0 0 1 -20.568256,16.38512 h 0.780314 v 9.99814 h 51.329169 v -9.97882 a 22.427499,16.450629 0 0 1 -18.253151,-16.15388 22.427499,16.450629 0 0 1 22.427571,-16.45069 22.427499,16.450629 0 0 1 16.72818,5.52311 z"
       id="path832"
       inkscape:connector-curvature="0" />
    <rect
       style="fill:#000000;stroke:none;stroke-width:0.26093769"
       id="rect901"
       width="51.329166"
       height="50.673275"
       x="28.072552"
       y="173.92628" />
    <path
       style="fill:#000000;stroke:none;stroke-width:0.50957519"
       d="m 28.072552,236.2413 c -0.928659,29.40917 -21.7290306,54.69633 -51.060746,62.07493 l 7.476404,7.26017 0.0094,-0.009 71.454887,69.38726 79.704113,-75.26668 -0.0814,-0.0735 c -17.41279,-3.03981 -32.92745,-12.53196 -43.267796,-26.47203 l -1.249668,-1.69644 C 83.830353,261.01764 79.747397,248.80688 79.401718,236.2413 Z m 28.634686,40.62484 c 24.715935,0.19951 48.495852,9.20576 66.824272,25.3086 l 4.50353,4.37382 0.14526,-0.1407 0.12481,0.11301 -72.30123,68.27527 -71.313581,-69.24819 C 3.7761671,287.01429 29.716265,276.68326 56.707238,276.86614 Z"
       id="rect901-8-9"
       inkscape:connector-curvature="0"
       sodipodi:nodetypes="ccccccccccccccccccc" />
  </g>
</svg>
