<?xml version="1.0" encoding="UTF-8" standalone="no"?>
<!-- Created with Inkscape (http://www.inkscape.org/) -->

<svg
   xmlns:dc="http://purl.org/dc/elements/1.1/"
   xmlns:cc="http://creativecommons.org/ns#"
   xmlns:rdf="http://www.w3.org/1999/02/22-rdf-syntax-ns#"
   xmlns:svg="http://www.w3.org/2000/svg"
   xmlns="http://www.w3.org/2000/svg"
   xmlns:sodipodi="http://sodipodi.sourceforge.net/DTD/sodipodi-0.dtd"
   xmlns:inkscape="http://www.inkscape.org/namespaces/inkscape"
   width="210mm"
   height="297mm"
   viewBox="0 0 210 297"
   version="1.1"
   id="svg8"
   inkscape:version="0.92.4 (5da689c313, 2019-01-14)"
   sodipodi:docname="drawing-2.svg">
  <defs
     id="defs2">
    <inkscape:path-effect
       only_selected="false"
       apply_with_weight="true"
       apply_no_weight="true"
       helper_size="0"
       steps="2"
       weight="33.333333"
       is_visible="true"
       id="path-effect2695"
       effect="bspline" />
    <inkscape:path-effect
       only_selected="false"
       apply_with_weight="true"
       apply_no_weight="true"
       helper_size="0"
       steps="2"
       weight="33.333333"
       is_visible="true"
       id="path-effect1399"
       effect="bspline" />
    <inkscape:path-effect
       only_selected="false"
       apply_with_weight="true"
       apply_no_weight="true"
       helper_size="0"
       steps="2"
       weight="33.333333"
       is_visible="true"
       id="path-effect4717"
       effect="bspline" />
    <inkscape:path-effect
       only_selected="false"
       apply_with_weight="true"
       apply_no_weight="true"
       helper_size="0"
       steps="2"
       weight="33.333333"
       is_visible="true"
       id="path-effect1996"
       effect="bspline" />
    <inkscape:path-effect
       only_selected="false"
       apply_with_weight="true"
       apply_no_weight="true"
       helper_size="0"
       steps="2"
       weight="33.333333"
       is_visible="true"
       id="path-effect1149"
       effect="bspline" />
    <inkscape:path-effect
       only_selected="false"
       apply_with_weight="true"
       apply_no_weight="true"
       helper_size="0"
       steps="2"
       weight="33.333333"
       is_visible="true"
       id="path-effect1149-3"
       effect="bspline" />
  </defs>
  <sodipodi:namedview
     id="base"
     pagecolor="#ffffff"
     bordercolor="#666666"
     borderopacity="1.0"
     inkscape:pageopacity="0.0"
     inkscape:pageshadow="2"
     inkscape:zoom="0.061871843"
     inkscape:cx="-5716.2993"
     inkscape:cy="1602.2693"
     inkscape:document-units="mm"
     inkscape:current-layer="g828"
     showgrid="false"
     showguides="true"
     inkscape:guide-bbox="true"
     inkscape:window-width="1600"
     inkscape:window-height="847"
     inkscape:window-x="-8"
     inkscape:window-y="22"
     inkscape:window-maximized="1"
     inkscape:snap-global="false">
    <sodipodi:guide
       position="-668.26189,324.30358"
       orientation="0,1"
       id="guide849"
       inkscape:locked="false" />
    <sodipodi:guide
       position="-689.42856,68.035716"
       orientation="0,1"
       id="guide851"
       inkscape:locked="false" />
  </sodipodi:namedview>
  <metadata
     id="metadata5">
    <rdf:RDF>
      <cc:Work
         rdf:about="">
        <dc:format>image/svg+xml</dc:format>
        <dc:type
           rdf:resource="http://purl.org/dc/dcmitype/StillImage" />
        <dc:title></dc:title>
      </cc:Work>
    </rdf:RDF>
  </metadata>
  <g
     inkscape:label="Layer 1"
     inkscape:groupmode="layer"
     id="layer1">
    <g
       id="layer1-2"
       inkscape:label="Layer 1"
       transform="translate(-37.462963,-54.967732)">
      <g
         transform="matrix(0.25771104,0,0,0.25771104,-722.69048,32.304562)"
         id="g828">
        <text
           style="font-size:12px;font-family:Lello;fill:#000000"
           id="text2171"
           xml:space="preserve"
           font-size="12px"
           y="-946.41162"
           x="-471.24011"><tspan
             id="tspan2173"
             y="-946.41162"
             x="-471.24011" /></text>
        <path
           inkscape:export-ydpi="527"
           inkscape:export-xdpi="527"
           sodipodi:nodetypes="ccccscccsccssscsccccsssscc"
           inkscape:connector-curvature="0"
           id="text2175"
           d="m 3584.8696,27.18672 h 170.2 l -227.2971,463.51 c -43.6064,88.1 -71.7917,142.16 -84.556,162.18 -6.2069,122.81 16.041,184.21 66.841,184.21 60,0 102.1878,-41.38 126.3633,-124.14 h 36 c -22.7447,77.42 -53.7102,139.99 -92.7968,187.71 -39.1919,47.74 -80.0691,71.54 -122.8691,71.54 -35.3,0 -57.8683,-14.3 -67.4755,-43.01 -9.7098,-28.7 -12.6732,-87.43 -8.89,-176.19 -108.5635,146.16 -241.6345,219.2 -399.1345,219.2 -107.4,0 -181.689,-41.84 -222.6455,-125.6 -40.9566,-83.76 -40.5108,-203.73 1.3349,-359.9 41.1302,-153.5 107.8421,-272.97 200.133,-358.4 92.2898,-85.426 187.235,-128.14000027 284.635,-128.14000027 68.8,0 118.6725,24.36100027 149.6182,73.08000027 31.0456,48.72 48.765,128.14 53.2558,238.27 z m -193.254,392.44 c -2.6062,-107.46 -15.1199,-191.38 -37.6357,-251.78 -22.5159,-60.4 -60.8238,-90.6 -114.9238,-90.6 -122.1,0 -221.4685,142.82 -298.0082,428.47 -72.6062,270.97 -50.508,406.45 66.292,406.45 101.5,0 208.6092,-119.46 321.333,-358.4 z" />
        <g
           aria-label="hmax"
           style="font-style:normal;font-variant:normal;font-weight:normal;font-stretch:normal;font-size:273.30950928px;line-height:1.25;font-family:'Nirmala UI';-inkscape-font-specification:'Nirmala UI';letter-spacing:0px;word-spacing:0px;fill:#000000;fill-opacity:1;stroke:none;stroke-width:6.83273697"
           id="text832">
          <path
             style="font-style:italic;font-variant:normal;font-weight:bold;font-stretch:normal;font-size:1311.88549805px;font-family:Georgia;-inkscape-font-specification:'Georgia Bold Italic';stroke-width:6.65526342"
             d="m -2187.5547,-105.68359 -25.6973,1.26757 -186.8437,9.216801 -11.2305,46.171875 c 17.0541,1.663816 32.0273,3.535465 44.9219,5.615235 12.8946,2.07977 24.3335,5.823067 34.3164,11.230468 9.9829,5.407405 17.4715,12.479811 22.4629,21.214844 4.9914,8.7350345 7.4863,20.5881586 7.4863,35.5625 0,4.159539 -0.4161,9.360298 -1.248,15.599609 -0.8319,6.239315 -2.0803,12.89363 -3.7442,19.964844 l -146.5078,634.367184 -20.7086,78.77133 c 0.2039,2.32513 0.4853,4.64283 0.8437,6.94922 0.5956,3.45223 1.3635,6.87251 2.3008,10.24804 0.9366,3.37603 2.0415,6.7031 3.3105,9.96875 1.2696,3.2655 2.7017,6.46546 4.2911,9.58789 1.5892,3.12234 3.3335,6.16324 5.2265,9.11133 1.8934,2.94775 3.9331,5.79897 6.1114,8.54297 v 0.002 c 2.1775,2.7441 4.4909,5.3776 6.9316,7.89063 2.4408,2.51334 5.0059,4.90304 7.6855,7.16015 2.68,2.25658 5.4713,4.37772 8.3633,6.35547 v 0.002 c 2.8916,1.97822 5.8804,3.81058 8.9551,5.49023 3.0742,1.67946 6.2305,3.20415 9.457,4.56836 3.2269,1.36426 6.5201,2.56628 9.8672,3.60156 3.3471,1.03566 6.7439,1.90329 10.1777,2.59961 2.9507,0.57653 5.9248,1.02617 8.9141,1.34766 h 23.3809 c 2.1553,-0.19466 4.3041,-0.45586 6.4433,-0.78321 3.4528,-0.59492 6.8738,-1.36215 10.25,-2.29882 3.3754,-0.93735 6.7018,-2.04289 9.9668,-3.3125 3.2655,-1.26961 6.4654,-2.70174 9.5879,-4.29102 3.1223,-1.58921 6.1632,-3.33358 9.1113,-5.22656 2.9484,-1.89274 5.8003,-3.93174 8.545,-6.10938 2.7447,-2.17816 5.3789,-4.49225 7.8925,-6.93359 2.5133,-2.44089 4.903,-5.00594 7.1602,-7.68555 2.2565,-2.67943 4.3776,-5.47002 6.3555,-8.36132 1.9782,-2.89164 3.8105,-5.8804 5.4902,-8.95508 0.427,-0.85432 0.8424,-1.71443 1.2461,-2.58008 l 16.8825,-62.73226 78.5039,-343.50781 c 32.4444,-29.94872 61.7695,-50.33168 87.9746,-61.14649 26.2051,-11.23076 46.3791,-16.8457 60.5215,-16.8457 22.8775,0 39.0991,5.61494 48.666,16.8457 9.5669,11.23076 14.3496,26.82914 14.3496,46.79492 0,9.15099 -1.2465,21.00607 -3.7422,35.56446 -2.0797,14.14243 -5.4089,30.15695 -9.9843,48.04296 l -44.9219,165.96485 c -6.2393,24.54128 -9.9826,43.88295 -11.2305,58.02539 -0.8319,14.14243 -1.248,27.03688 -1.248,38.68359 0,36.60395 13.7264,67.38457 41.1797,92.3418 27.8689,24.54129 66.5522,36.8125 116.0507,36.8125 32.4444,0 60.9372,-4.15944 85.4785,-12.47852 24.5413,-8.73503 57.4007,-21.21333 98.5801,-37.43554 l 13.7266,-54.90625 c -7.0712,3.32763 -18.5102,7.27997 -34.3164,11.85547 -15.8063,4.15954 -29.9472,6.23828 -42.4258,6.23828 -26.6211,0 -45.3395,-4.57555 -56.1543,-13.72657 -10.3988,-9.15098 -15.5996,-25.78873 -15.5996,-49.91406 0,-9.56694 1.6645,-23.7098 4.9922,-42.42773 3.3276,-18.71793 7.0709,-35.35567 11.2304,-49.91406 l 47.42,-175.32422 c 5.4074,-19.54984 8.7345,-37.85214 9.9824,-54.90625 1.6638,-17.47007 2.4961,-30.98775 2.4961,-40.55469 0,-36.18799 -13.1035,-66.9686 -39.3086,-92.3418 -25.7892,-25.37319 -61.7686,-38.06054 -107.9395,-38.06054 -47.8347,0 -92.5491,9.77438 -134.1445,29.32421 -41.5954,19.13392 -81.7362,45.75503 -120.4199,79.86329 h -4.3672 l 68.8848,-297.927739 4.4843,-19.396484 c 0.1945,-1.155194 0.3696,-2.313559 0.5254,-3.4746095 0.3499,-3.4858008 0.5252,-6.9869178 0.5254,-10.49023438 -10e-5,-2.48020002 -0.088,-4.95961752 -0.2637,-7.43359372 -0.2478,-3.4948364 -0.6702,-6.9750944 -1.2656,-10.4277344 -0.5956,-3.452231 -1.3635,-6.872518 -2.3008,-10.248047 -0.9373,-3.376062 -2.0428,-6.703134 -3.3125,-9.96875 -1.2696,-3.265498 -2.7017,-6.465458 -4.291,-9.58789 -1.5892,-3.122336 -3.3335,-6.163243 -5.2265,-9.111329 -1.8927,-2.948373 -3.9318,-5.800242 -6.1094,-8.544921 -2.1776,-2.744101 -4.491,-5.377598 -6.9316,-7.890626 -2.4416,-2.513397 -5.0073,-4.903101 -7.6876,-7.160156 -2.6794,-2.257195 -5.47,-4.378985 -8.3613,-6.357422 -2.8916,-1.978217 -5.8804,-3.810583 -8.9551,-5.490234 -3.0748,-1.679519 -6.2317,-3.204209 -9.4589,-4.568359 -3.227,-1.364255 -6.5202,-2.566281 -9.8672,-3.601561 -3.3471,-1.03567 -6.744,-1.90329 -10.1778,-2.59961 -3.4332,-0.6962 -6.8991,-1.22029 -10.3847,-1.57031 -1.0428,-0.0677 -2.0865,-0.11974 -3.1309,-0.15625 z"
             transform="matrix(1.0266667,0,0,1.0266667,2949.6348,87.940237)"
             id="path892"
             inkscape:connector-curvature="0"
             sodipodi:nodetypes="ccccsssssccccccccccccccccccccccccccccccccccsssccccscsccccscsccccscsccccccccccccccccccccscc" />
          <path
             d="m 1814.1478,921.59071 -6.2633,25.62277 q -28.1851,11.1032 -44.9822,17.08184 -16.7972,5.69395 -39.0035,5.69395 -33.879,0 -52.6691,-16.79715 -18.79,-17.08184 -18.79,-42.13521 0,-6.83274 0.5694,-17.36654 0.8541,-10.8185 4.8399,-26.76155 l 20.4982,-75.72951 q 3.1316,-12.24198 4.5551,-21.9217 1.7082,-9.9644 1.7082,-16.22775 0,-13.66547 -6.8327,-21.3523 -6.8328,-7.68683 -22.2064,-7.68683 -10.8185,0 -27.6157,9.67971 -16.5124,9.67971 -33.5943,25.90746 l -46.975,205.55151 h -94.2349 l 39.8577,-173.6654 q 3.1316,-14.23487 4.5551,-23.06049 1.7082,-8.82562 1.7082,-15.37366 0,-13.66547 -6.8327,-21.3523 -6.8328,-7.68683 -22.4911,-7.68683 -8.8256,0 -24.484,7.11743 -15.6583,7.11744 -39.2882,28.46974 l -46.9751,205.55151 h -94.2348 l 40.427,-175.08889 q 1.7082,-7.97152 4.2705,-21.0676 2.8469,-13.09608 2.8469,-21.06761 0,-16.22775 -6.2633,-22.2064 -6.2634,-6.26334 -24.7687,-6.26334 -9.1103,0 -18.79,2.84698 -9.395,2.84697 -16.2278,5.40925 l 6.2634,-25.62277 q 23.0605,-9.39501 44.1281,-15.94305 21.0676,-6.83274 39.8576,-6.83274 34.7331,0 50.1068,14.23487 15.3736,13.95017 21.637,36.15657 h 1.9928 q 28.4698,-26.19216 54.9466,-39.85764 26.4769,-13.66547 60.9253,-13.66547 29.3238,0 48.1138,15.65836 18.7901,15.65835 20.7829,38.71884 h 1.9929 q 30.4626,-26.19216 56.6548,-40.14233 26.1922,-14.23487 59.7864,-14.23487 31.6015,0 49.5374,17.36654 17.9359,17.36654 17.9359,42.13521 0,6.54804 -1.1388,18.50533 -0.8541,11.6726 -4.5551,25.05337 l -21.637,79.99997 q -2.847,9.96441 -5.1246,22.77579 -2.2776,12.81138 -2.2776,19.35942 0,16.51245 7.1175,22.49109 7.4021,5.97865 25.6227,5.97865 8.541,0 19.3595,-2.84698 10.8185,-3.13167 15.6583,-5.40925 z"
             style="font-style:italic;font-variant:normal;font-weight:bold;font-stretch:normal;font-size:583.0602417px;font-family:Georgia;-inkscape-font-specification:'Georgia Bold Italic';stroke-width:6.83273697"
             id="path859" />
          <path
             d="m 2038.774,929.56224 h -2.2776 q -9.9644,8.54092 -19.0747,15.65836 -8.8256,7.11743 -22.4911,14.23487 -11.9573,6.26334 -25.3381,10.2491 -13.096,4.27046 -29.0391,4.27046 -49.5373,0 -74.5907,-29.03913 -25.0534,-29.32383 -25.0534,-79.99996 0,-39.00355 13.9502,-73.16723 13.9502,-34.16369 37.2954,-60.07115 23.6298,-25.62277 55.2312,-40.42703 31.6015,-15.08896 66.6192,-15.08896 25.6228,0 44.6975,5.97864 19.3594,5.97865 31.6014,16.22776 l 87.4021,-17.93594 3.9858,4.55516 -41.8505,175.08889 q -2.2776,8.82562 -4.8399,22.2064 -2.5623,13.09608 -2.5623,19.92881 0,16.22775 7.4022,22.4911 7.4021,5.97864 25.6227,5.97864 7.9716,0 19.0748,-3.13167 11.3879,-3.13167 15.943,-5.12455 l -6.2633,25.62276 q -28.1851,11.1032 -45.2669,17.08184 -16.7972,5.69395 -39.0036,5.69395 -29.3238,0 -46.975,-11.38789 -17.3666,-11.6726 -24.1993,-29.89323 z m 33.879,-180.49814 q 0,-6.26334 -1.7082,-14.80426 -1.7082,-8.54093 -5.9786,-14.51957 -5.1246,-7.40213 -13.3808,-11.1032 -8.2562,-3.98576 -20.4982,-3.98576 -18.7901,0 -34.7331,13.66547 -15.6584,13.38078 -27.9004,35.87187 -11.9572,22.2064 -18.79,51.81493 -6.8327,29.32383 -6.8327,60.07114 0,13.95018 1.9929,25.90747 2.2775,11.95729 7.1174,20.21351 5.1246,8.82562 13.6655,13.66548 8.8256,4.83985 21.9217,4.83985 13.3808,0 25.6227,-7.68683 12.5267,-7.97153 23.0605,-19.35942 z"
             style="font-style:italic;font-variant:normal;font-weight:bold;font-stretch:normal;font-size:583.0602417px;font-family:Georgia;-inkscape-font-specification:'Georgia Bold Italic';stroke-width:6.83273697"
             id="path861" />
          <path
             d="m 2554.0763,718.60148 q 0,24.76867 -15.9431,39.57294 -15.6583,14.51956 -38.4341,14.51956 -13.6655,0 -27.0463,-3.41637 -13.096,-3.41636 -22.7757,-6.83273 -4.5552,3.13167 -13.3808,13.66547 -8.8256,10.5338 -19.9288,25.62277 10.2491,43.5587 16.5124,62.06403 6.2633,18.22063 11.9573,37.01066 4.8399,15.08896 14.2349,23.62988 9.395,8.54092 29.6085,8.54092 7.4021,0 18.5053,-2.84697 11.1032,-2.84698 18.2207,-5.69395 l -6.2634,25.62276 q -28.185,11.95729 -49.2526,17.36654 -21.0676,5.40925 -37.5801,5.40925 -11.9573,0 -23.6299,-2.27758 -11.6726,-2.27757 -21.3523,-8.25622 -10.5338,-6.26334 -17.9359,-15.65836 -7.1174,-9.39501 -12.242,-26.19216 -3.4164,-10.5338 -6.2633,-23.91458 -2.847,-13.38077 -5.694,-23.62988 -8.2562,12.24199 -11.9573,18.22063 -3.701,5.97865 -10.8185,16.79715 -22.4911,34.44838 -39.0035,49.25265 -16.5125,14.51956 -39.573,14.51956 -17.3665,0 -29.6085,-11.67259 -12.242,-11.67259 -12.242,-30.46262 0,-25.33807 15.6584,-39.85763 15.943,-14.80427 38.7188,-14.80427 13.6655,0 26.1922,3.41637 12.5267,3.13167 23.6299,7.11744 4.2704,-3.41637 13.096,-13.38078 9.1104,-9.96441 19.6442,-24.76867 -9.395,-38.14945 -15.3737,-57.50887 -5.9786,-19.35943 -12.242,-38.43415 -5.1245,-15.37366 -14.8042,-23.62988 -9.6798,-8.54093 -29.0392,-8.54093 -8.5409,0 -19.0747,3.13168 -10.5338,2.84697 -17.6512,5.40925 l 6.2633,-25.62277 q 25.6228,-11.38789 48.3986,-17.08184 23.0604,-5.69395 38.4341,-5.69395 13.9502,0 23.9146,1.99288 9.9644,1.99288 21.0676,8.54092 10.2491,6.26335 17.6512,15.94306 7.6869,9.39501 12.5267,25.90746 3.4164,11.38789 6.2634,23.62988 2.8469,12.24199 4.8398,21.06761 5.9787,-9.11032 12.242,-18.79003 6.548,-9.67971 11.1032,-17.08184 21.9217,-34.44839 39.2882,-49.25265 17.3666,-15.08896 39.2883,-15.08896 17.9359,0 29.8932,11.95729 11.9573,11.67259 11.9573,30.46262 z"
             style="font-style:italic;font-variant:normal;font-weight:bold;font-stretch:normal;font-size:583.0602417px;font-family:Georgia;-inkscape-font-specification:'Georgia Bold Italic';stroke-width:6.83273697"
             id="path863" />
          <g
             transform="matrix(23.998488,0,-6.4303754,23.998488,-7369.7909,4111.5889)"
             id="layer1-21"
             inkscape:label="Layer 1">
            <path
               inkscape:export-ydpi="96"
               inkscape:export-xdpi="96"
               inkscape:export-filename="C:\Users\Alec\rect826-0-6-3-2.png"
               id="rect826-0-6-3-2"
               d="m 158.69265,-172.4034 v 0.0181 h -3.71658 v 5.3e-4 h -11.75379 c -6.94611,-2e-5 -12.57703,5.63091 -12.577,12.57701 -3e-5,6.94609 5.63089,12.71139 12.577,12.71136 h 14.19965 a 3.9028777,3.817529 0 0 1 3.87107,3.81631 3.9028777,3.817529 0 0 1 -3.9026,3.81734 h -11.82564 -1.24486 a 10.772322,10.772322 0 0 1 -8.14628,-3.75223 c -1.80901,0.4425 -3.14556,2.06399 -3.14556,4.01319 v 3.8747 0.0181 0.52917 0.0176 c 0,0.2865 0.0287,0.56591 0.0837,0.83561 0.0549,0.26981 0.13589,0.52962 0.24029,0.77722 0.1043,0.2477 0.23247,0.4828 0.38087,0.7028 0.14841,0.2201 0.31737,0.42495 0.50435,0.61185 0.1869,0.1869 0.39135,0.35648 0.61135,0.50488 0.22,0.1483 0.45519,0.27542 0.70278,0.37982 0.2476,0.1044 0.50803,0.18581 0.77775,0.24081 0.26979,0.055 0.54919,0.0842 0.8356,0.0842 h 4.68344 v -0.0176 h 15.54219 a 13.044678,12.636978 0 0 0 13.04469,-12.63695 13.044678,12.636978 0 0 0 -11.29749,-12.50828 c -0.32393,-0.081 -0.66112,-0.12868 -1.01082,-0.12868 h -0.73638 -14.16812 c -2.11231,-0.001 -3.82408,-1.7129 -3.82405,-3.82405 -3e-5,-2.11116 1.71174,-3.82292 3.82405,-3.82406 h 13.03125 a 10.772322,10.772322 0 0 1 8.11372,3.75119 c 1.80901,-0.4425 3.14555,-2.06399 3.14555,-4.01319 v -3.2799 c 0.0279,-0.19466 0.047,-0.39219 0.047,-0.5948 v -0.54674 c 0,-1.73569 -1.0591,-3.21351 -2.56831,-3.82922 0,-2.6e-4 -0.003,-7.9e-4 -0.003,-10e-4 -0.24763,-0.1044 -0.50805,-0.18581 -0.77774,-0.24081 -0.2698,-0.055 -0.5492,-0.0842 -0.83561,-0.0842 z"
               style="opacity:1;fill:#000000;stroke:none;stroke-width:8.68272591;stroke-miterlimit:4;stroke-dasharray:none"
               inkscape:connector-curvature="0" />
          </g>
        </g>
        <path
           style="opacity:1;fill:#000000;stroke:none;stroke-width:200.5370636;stroke-miterlimit:4;stroke-dasharray:none"
           d="M -3922.3262 -103.19531 C -3924.9198 -103.19531 -3927.5159 -103.06634 -3930.1094 -102.86523 C -3972.5315 -99.575725 -4014.299 -69.919404 -4034.4805 -30.544922 C -3994.715 13.900048 -3980.7471 77.543329 -3995.4785 145.42773 C -3995.9423 147.56486 -3996.3463 149.6928 -3996.8672 151.83789 L -4019.2344 235.3125 L -4118.2871 235.3125 L -4125.541 235.3125 C -4159.9456 235.3125 -4195.0607 263.0081 -4204.2793 297.41211 L -4206.4805 305.62305 C -4215.699 340.02707 -4195.424 367.72266 -4161.0195 367.72266 L -4064.541 367.72266 L -4054.7129 367.72266 L -4118.3984 605.39844 L -4122.3203 628.15039 C -4125.57 639.79025 -4128.4899 650.87416 -4131.082 661.40234 C -4133.6742 671.93053 -4135.9384 681.90185 -4137.873 691.31836 C -4139.8077 700.73487 -4141.4143 709.59555 -4142.6914 717.90039 C -4143.9685 726.20523 -4144.9156 733.95527 -4145.5352 741.14844 C -4145.7526 744.15649 -4145.8854 747.11897 -4145.9316 750.03711 C -4145.9776 752.95525 -4145.9416 755.82803 -4145.8125 758.65625 C -4145.6875 761.48447 -4145.4778 764.26755 -4145.1816 767.00586 C -4144.8854 769.74417 -4144.5026 772.43754 -4144.0352 775.08594 C -4143.5677 777.73433 -4143.0156 780.33801 -4142.377 782.89648 C -4141.7383 785.45496 -4141.013 787.96894 -4140.2031 790.4375 C -4139.3932 792.90606 -4138.4987 795.33033 -4137.5176 797.70898 C -4136.5365 800.08763 -4135.4687 802.42025 -4134.3164 804.70898 C -4132.9335 807.35738 -4131.4516 809.92338 -4129.8711 812.40625 C -4128.2906 814.88912 -4126.6121 817.29008 -4124.834 819.60742 C -4123.0558 821.92477 -4121.1789 824.15873 -4119.2031 826.31055 C -4117.2274 828.46237 -4115.1519 830.53128 -4112.9785 832.51758 C -4110.8051 834.50387 -4108.5331 836.40774 -4106.1621 838.22852 C -4103.7911 840.04929 -4101.3225 841.78616 -4098.7539 843.44141 C -4096.1853 845.09665 -4093.5182 846.67043 -4090.752 848.16016 C -4087.9857 849.64988 -4085.1203 851.05666 -4082.1562 852.38086 C -4079.1924 853.70506 -4076.1302 854.9468 -4072.9688 856.10547 C -4069.8071 857.26414 -4066.5466 858.33888 -4063.1875 859.33203 C -4059.8284 860.32518 -4056.3692 861.23683 -4052.8125 862.06445 C -4049.2558 862.89208 -4045.602 863.63673 -4041.8477 864.29883 C -4038.0933 864.96093 -4034.239 865.54054 -4030.2871 866.03711 C -4026.3352 866.53368 -4022.2843 866.94629 -4018.1348 867.27734 C -4013.9852 867.60839 -4009.7378 867.85791 -4005.3906 868.02344 C -4001.0435 868.18896 -3996.5975 868.27148 -3992.0527 868.27148 C -3985.5135 868.27148 -3978.9202 868.00947 -3972.2734 867.48633 C -3965.6267 866.96319 -3958.9261 866.17909 -3952.1719 865.13281 C -3945.4177 864.08653 -3938.6097 862.7784 -3931.748 861.20898 C -3924.8864 859.63957 -3917.9711 857.8074 -3911.002 855.71484 C -3896.792 843.68264 -3881.2954 830.99826 -3864.5117 817.6582 C -3847.728 804.31814 -3829.6563 790.32369 -3810.2988 775.67578 C -3798.4993 766.78241 -3789.0526 759.58867 -3781.957 754.0957 C -3780.0706 752.63533 -3779.7278 752.29033 -3778.1738 751.07031 C -3774.2867 747.76928 -3771.2537 745.19431 -3767.8672 742.30469 L -3776.9062 715.96289 C -3777.89 715.70376 -3778.7135 715.45708 -3779.7207 715.19531 C -3787.2092 717.73363 -3794.4903 720.07089 -3801.3672 722.02148 C -3808.9751 724.17944 -3816.209 725.97738 -3823.0684 727.41602 C -3829.9277 728.85465 -3836.4127 729.93303 -3842.5234 730.65234 C -3845.5788 731.012 -3848.54 731.28111 -3851.4082 731.46094 C -3854.2764 731.64077 -3857.0513 731.73242 -3859.7324 731.73242 C -3863.1328 731.73242 -3866.418 731.62463 -3869.5898 731.41211 C -3872.7616 731.19958 -3875.8205 730.88208 -3878.7637 730.45703 C -3881.7069 730.03198 -3884.5354 729.50086 -3887.25 728.86328 C -3889.9646 728.2257 -3892.5648 727.48096 -3895.0508 726.63086 C -3897.5368 725.78076 -3899.9086 724.82435 -3902.166 723.76172 C -3904.4234 722.69909 -3906.5669 721.53101 -3908.5957 720.25586 C -3910.6245 718.98071 -3912.5377 717.59901 -3914.3379 716.11133 C -3916.1381 714.62365 -3917.8249 713.03028 -3919.3965 711.33008 C -3920.9027 709.62987 -3922.2898 707.86419 -3923.5566 706.0332 C -3924.8235 704.20221 -3925.9706 702.30552 -3926.998 700.34375 C -3928.0255 698.38198 -3928.9327 696.35428 -3929.7207 694.26172 C -3930.5087 692.16916 -3931.176 690.01045 -3931.7246 687.78711 C -3932.2732 685.56377 -3932.7025 683.276 -3933.0117 680.92188 C -3933.3209 678.56773 -3933.5102 676.14897 -3933.5801 673.66406 C -3933.6501 671.17915 -3933.6011 668.62742 -3933.4316 666.01172 C -3933.2621 663.39602 -3932.9715 660.71523 -3932.5625 657.96875 C -3932.3159 656.07237 -3857.4121 391.29297 -3857.4121 391.29297 L -3851.0957 367.72266 L -3761.6543 367.72266 C -3727.2492 367.72266 -3692.1326 340.02707 -3682.9141 305.62305 L -3680.7148 297.41211 C -3674.0465 272.52537 -3682.8626 251.21128 -3701.2441 241.28906 C -3708.2737 237.49457 -3716.6583 235.3125 -3726.1758 235.3125 L -3815.6172 235.3125 L -3789.6738 138.49219 L -3754.4727 7.1230469 L -3747.4219 -19.195312 C -3747.0308 -21.809547 -3746.6774 -24.409129 -3746.5137 -26.953125 C -3746.1119 -33.183682 -3746.3834 -39.194915 -3747.2617 -44.914062 C -3748.1404 -50.633221 -3749.6316 -56.065341 -3751.6973 -61.146484 C -3753.7636 -66.227696 -3756.4023 -70.948314 -3759.5625 -75.265625 C -3762.7234 -79.582935 -3766.4093 -83.488423 -3770.5723 -86.916016 C -3774.7353 -90.343008 -3779.375 -93.300207 -3784.4473 -95.710938 C -3789.5206 -98.122257 -3795.0193 -99.993147 -3800.9102 -101.26172 C -3806.801 -102.52976 -3813.0755 -103.19531 -3819.6914 -103.19531 L -3820.0977 -103.19531 L -3820.709 -103.19531 L -3832.7266 -103.19531 L -3833.3379 -103.19531 L -3922.3262 -103.19531 z "
           transform="matrix(1.0266667,0,0,1.0266667,2949.6348,87.940237)"
           id="path1166" />
        <g
           aria-label="t"
           transform="skewX(-15)"
           style="font-style:normal;font-variant:normal;font-weight:normal;font-stretch:normal;font-size:343.73760986px;line-height:1.25;font-family:'Nirmala UI';-inkscape-font-specification:'Nirmala UI';letter-spacing:0px;word-spacing:0px;fill:#4d4d4d;fill-opacity:1;stroke:none;stroke-width:8.5934391"
           id="text855" />
        <g
           transform="matrix(41.641994,0,0,41.641994,-5936.8955,5872.9482)"
           id="layer1-77"
           inkscape:label="Layer 1">
          <g
             inkscape:label="Layer 1"
             id="layer1-7"
             transform="matrix(0.56906416,0,-0.15248027,0.56906416,17.321746,52.383276)"
             style="opacity:0.98999999">
            <path
               inkscape:connector-curvature="0"
               style="opacity:1;fill:#000000;stroke:none;stroke-width:8.96500015;stroke-miterlimit:4;stroke-dasharray:none"
               d="m 107.46061,-340.64692 c -2.29167,-0.002 -4.13669,1.84501 -4.13669,4.1367 v 0.54674 c 0,0.23275 0.0217,0.45978 0.0584,0.68161 a 5.6242477,5.6242477 0 0 1 3.38273,3.38532 c 0,1.1e-4 0,0 0.003,0 l 12.39874,30.36197 c 0.52872,1.29471 1.59544,2.19889 2.83496,2.56419 0.0589,0.0178 0.11814,0.0307 0.17725,0.046 0.0677,0.0169 0.13504,0.0354 0.20362,0.0491 2.04369,0.4253 4.15197,-0.64551 4.97075,-2.65048 l 13.4891,-33.03209 c 0.92366,-2.2618 -0.15359,-4.8264 -2.41536,-5.75004 -0.57623,-0.23532 -1.17208,-0.33907 -1.75546,-0.32815 l -2.17556,-0.003 c -1.62885,-10e-4 -3.02821,0.93346 -3.70366,2.29598 a 5.6242477,5.6242477 0 0 1 0.59841,2.52181 5.6242477,5.6242477 0 0 1 -0.50848,2.32389 l -5.6746,13.8958 a 2.3151042,2.3151042 0 0 1 -1.96681,1.10174 2.3151042,2.3151042 0 0 1 -1.86139,-0.94723 l -7.53647,-18.45469 c -0.72705,-1.7803 -2.47105,-2.82135 -4.28348,-2.73575 l 0.15399,-0.008 z"
               id="rect826-58-3-3" />
          </g>
        </g>
      </g>
    </g>
  </g>
</svg>
