<?xml version="1.0" encoding="UTF-8" standalone="no"?>
<!-- Created with Inkscape (http://www.inkscape.org/) -->

<svg
   xmlns:dc="http://purl.org/dc/elements/1.1/"
   xmlns:cc="http://creativecommons.org/ns#"
   xmlns:rdf="http://www.w3.org/1999/02/22-rdf-syntax-ns#"
   xmlns:svg="http://www.w3.org/2000/svg"
   xmlns="http://www.w3.org/2000/svg"
   xmlns:sodipodi="http://sodipodi.sourceforge.net/DTD/sodipodi-0.dtd"
   xmlns:inkscape="http://www.inkscape.org/namespaces/inkscape"
   width="210mm"
   height="297mm"
   viewBox="0 0 210 297"
   version="1.1"
   id="svg8"
   inkscape:version="0.92.4 (5da689c313, 2019-01-14)"
   sodipodi:docname="drawing.svg">
  <defs
     id="defs2" />
  <sodipodi:namedview
     id="base"
     pagecolor="#ffffff"
     bordercolor="#666666"
     borderopacity="1.0"
     inkscape:pageopacity="0.0"
     inkscape:pageshadow="2"
     inkscape:zoom="0.175"
     inkscape:cx="-392.95342"
     inkscape:cy="93.223242"
     inkscape:document-units="mm"
     inkscape:current-layer="layer1"
     showgrid="false"
     inkscape:window-width="1600"
     inkscape:window-height="847"
     inkscape:window-x="-8"
     inkscape:window-y="22"
     inkscape:window-maximized="1" />
  <metadata
     id="metadata5">
    <rdf:RDF>
      <cc:Work
         rdf:about="">
        <dc:format>image/svg+xml</dc:format>
        <dc:type
           rdf:resource="http://purl.org/dc/dcmitype/StillImage" />
        <dc:title></dc:title>
      </cc:Work>
    </rdf:RDF>
  </metadata>
  <g
     inkscape:label="Layer 1"
     inkscape:groupmode="layer"
     id="layer1">
    <path
       style="fill:#000000;stroke:none;stroke-width:10.73065662;stroke-miterlimit:4;stroke-dasharray:none"
       id="path844"
       d="m -57.521547,85.861445 c 2.567962,-0.462512 -0.01722,-3.942893 1.758534,-4.44964 2.7395,-0.781793 5.759632,0.530269 8.619774,0.909665 4.28949,0.568995 8.508938,1.505025 12.821829,1.934537 14.991363,1.492956 12.743947,1.087942 26.1228157,-0.60386 9.445229,1.108412 19.1201643,0.01479 28.5506843,1.145075 6.614971,0.79284 12.849181,4.066583 19.524397,3.792761 11.283732,-0.462872 21.288331,-7.775584 28.937716,-13.646014 2.823015,-2.166495 5.223309,-4.685366 7.834963,-7.028049 3.39208,-1.621399 11.704822,-6.303429 16.314726,-5.807721 3.034193,0.326272 5.057304,3.050988 8.003758,3.736087 6.80642,1.582604 12.20191,-2.241726 17.19087,-5.29503 -0.2807,-2.383136 -0.56138,-4.766272 -0.84207,-7.149408 17.4981,17.28091 46.33858,29.838527 52.49427,51.842732 9.67014,34.5669 -34.86915,14.27007 -45.1198,15.05571 -2.79848,0.21448 -17.25878,6.74005 -19.73914,7.81755 -1.99942,7.31278 -11.814212,5.09903 -16.50285,8.91389 -2.681118,2.18146 -2.325005,6.31625 -5.236265,8.28315 -2.861278,1.93314 -7.187976,1.42055 -10.65811,2.45542 -24.534158,7.31664 3.583786,1.66652 -28.303341,6.8925 -10.87099,5.07653 -15.909054,6.19137 -23.658224,14.53651 -2.647627,2.85126 -5.414894,5.95274 -6.208762,9.49421 -8.3794617,7.3533 5.582988,7.86834 5.676421,12.24084 0.02492,1.16651 -2.279084,1.36099 -3.418621,2.04149 -2.668284,5.016 -7.502545,9.00027 -10.3597397,13.90921 -1.7167766,2.94957 -2.8038279,6.13656 -3.8318192,9.30002 -0.5359278,1.64923 -0.9333632,3.37071 -0.8402346,5.07736 0.090262,1.65507 -0.5853642,5.1008 1.3811568,4.83577 3.2396777,-0.43661 4.5212628,-3.95729 6.7818994,-5.93592 2.7867583,-7.91979 3.6025883,-16.51791 8.3602743,-23.75939 3.032501,-4.61566 -1.452019,10.47997 -2.987856,15.58224 -0.403544,1.34059 -1.923133,2.25973 -2.744393,3.46113 -4.2205628,6.1742 -6.7823655,13.28865 -12.37465353,18.65625 -3.72081037,3.57133 -15.10388147,2.55909 -14.63513847,7.2684 0.451633,4.53738 9.8418848,-3.99044 14.76282188,-5.98565 C -7.5256327,213.12158 -15.205611,190.8599 -22.88559,168.59821 c -0.723097,2.08181 -3.008512,4.19398 -2.169311,6.24544 0.83057,2.03037 3.823411,3.0875 6.267276,3.77219 18.43392181,5.16444 -6.380797,-5.05889 9.6581088,-1.90357 5.0445481,0.99241 9.54523621,3.36526 14.3178644,5.04788 17.7263038,-4.14098 13.7216298,-4.08924 35.1793108,-4.37397 7.681681,-0.10193 15.522155,1.82112 23.039997,0.50478 6.519026,-1.14146 11.831117,-5.09617 17.745491,-7.64615 20.611163,-8.88656 10.915067,-4.57419 30.450653,-13.5282 10.01576,-1.62671 14.52024,-10.55487 23.2259,-13.70002 9.05247,-3.27045 12.64987,2.1648 21.1651,2.46886 13.38929,-2.36406 7.01725,-2.14718 19.07409,-1.2384 3.47021,-1.76202 8.81266,-4.91691 13.12448,-5.59739 2.03192,-0.32067 4.15178,0.31346 6.20355,0.0969 0.65767,-0.0694 10.59378,-2.56975 11.16991,-2.8476 1.66348,-0.80237 2.84104,-2.15592 4.2616,-3.23385 3.87902,-1.67262 2.26058,-0.35073 4.01567,-4.56924 66.43518,0.45881 65.65496,78.59404 -0.78023,78.13523 v 0 c -1.89579,-3.63856 -0.7776,-1.6399 -3.45141,-5.95783 -5.60874,-1.40861 -2.60563,-1.34601 -8.99108,0.51247 -2.19323,-0.35551 -3.35182,-2.65221 -5.48532,-3.20459 -2.06145,-0.53372 -4.32727,0.28489 -6.47578,0.10774 -7.63627,-0.62951 -7.82981,-1.61197 -14.80146,-4.94111 -17.46122,-4.00228 0.51379,-1.14146 -18.90338,0.0702 -2.79176,0.17419 -5.55217,-0.60221 -8.32793,-0.90556 -2.58705,-0.28275 -5.23306,-0.3132 -7.76041,-0.85278 -7.32321,-1.56353 -13.75724,-5.47289 -21.22523,-6.65147 -23.503157,-5.38708 -7.40386,-3.45503 -33.190644,-1.65222 -6.251087,0.43703 -12.79398,-0.80858 -18.800824,0.69528 -14.834322,3.71388 -21.074266,11.29343 -31.64647,19.55453 -4.199714,3.28164 -8.558861,6.41924 -12.838281,9.62888 -9.839645,6.51118 -15.828771,11.05094 -26.8284168,16.11172 -20.4708692,9.41832 -4.2979183,0.96782 -20.3800202,6.53006 -4.601992,1.59167 -11.072423,9.12257 -13.428092,5.46978 -13.161086,-20.40789 -17.119049,-44.07305 -25.678588,-66.10959 5.208661,-2.1347 9.830093,-6.10812 15.625971,-6.4041 4.728744,-0.24149 -8.915511,3.29363 -12.083526,6.2232 -5.136937,4.75032 -8.502303,10.65935 -12.219264,16.25049 -0.280642,0.42215 0.592111,0.91234 0.493492,1.38769 -0.852898,4.11053 -5.276909,16.04519 -3.314166,12.20654 4.075769,-7.97125 6.468596,-16.46758 9.702885,-24.70137 2.298575,-2.81454 3.568631,-6.46375 6.895714,-8.4436 1.361737,-0.81033 3.030273,1.23336 4.654994,1.5701 1.993093,0.4131 4.066044,0.49748 6.11064,0.6612 0.957778,0.0767 1.925138,0.0129 2.885732,0.0592 0.380589,0.0183 0.937497,0.40681 1.132223,0.13425 1.314083,-1.83931 1.99829,-3.94301 2.99744,-5.91452 3.509673,-5.7045 6.469904,-12.88149 14.531524,-15.68523 4.232111,-1.47187 9.228317,-0.0491 13.729421,-0.78516 16.0805822,-2.62958 27.324634,-10.7935 39.321373,-19.40246 15.970039,-27.12733 -1.553465,-0.52288 15.469071,-19.46129 2.735864,-3.04377 3.856254,-7.04602 7.005944,-9.7992 11.214511,-9.802754 6.050728,1.62993 19.549368,-4.898856 2.885996,-1.395848 3.71144,-4.616138 5.567155,-6.924208 3.744566,-0.976265 8.098262,-0.966268 11.233698,-2.928805 3.331692,-2.085382 5.459752,-5.373868 7.115757,-8.556522 1.823733,-3.504995 7.649255,-11.881976 3.140876,-11.155493 -9.405366,1.515585 -26.178229,6.841812 -22.982294,14.352749 8.093835,19.021795 68.416008,73.190345 47.216078,46.069105 -1.56622,-2.80788 -1.43365,-6.93773 -4.69864,-8.42366 -2.50883,-1.14179 -5.10035,2.63513 -7.96011,2.66253 -2.71544,0.0261 -4.85082,-2.45067 -7.565374,-2.51378 -2.372742,-0.0552 -4.248535,2.08244 -6.619035,2.18401 -3.318037,0.14216 -4.643709,-5.76089 -8.64811,-4.12122 -15.277141,-5.37091 -7.237523,-1.47549 -22.885346,-13.29168 -13.13893,-4.6511 -22.863738,1.10487 -33.026482,6.97076 -4.25298,2.45479 -7.640075,5.82396 -11.71323,8.48134 -3.901131,2.54515 -8.1179658,4.73658 -12.1769487,7.10489 -3.89398929,0.57938 -7.9782678,0.58248 -11.681978,1.73816 -3.0550513,0.95327 -8.7061063,4.98397 -10.1302563,7.87574 -1.073639,2.18006 0.45524,5.51888 -1.839759,6.89987 -2.205396,1.32707 -5.393621,-0.61632 -8.090432,-0.92447 -2.340332,2.34753 -4.680685,4.69507 -7.021027,7.04262 -54.683478,12.99342 -76.778932,-51.320485 -22.095459,-64.313855 z"
       inkscape:connector-curvature="0" />
    <path
       style="fill:#000000;stroke:none;stroke-width:8.96500015;stroke-miterlimit:4;stroke-dasharray:none"
       id="path876"
       d="m -565.55638,432.6901 c 13.57844,2.21822 40.40079,7.16231 52.54903,6.10703 27.43771,-2.38344 59.80753,-15.24875 86.29504,-21.24125 45.34906,-10.2597 51.20384,-8.77487 97.54648,-11.71725 13.19337,0.1574 26.3925,0.0512 39.5801,0.47222 10.06788,0.32142 20.22541,3.37 30.16803,1.75453 50.07547,-8.13627 1.36044,-7.49944 33.56732,-20.63898 7.0607,-2.88058 20.47367,2.46705 26.6532,4.33208 2.16987,4.11222 4.86722,7.98681 6.50959,12.33667 4.51919,11.96909 5.38377,23.89585 -2.82162,35.6563 -4.01915,5.76052 -11.63897,7.86737 -17.51097,11.72182 -17.6,11.55281 -9.00536,7.7981 -29.88498,11.90657 -13.3935,-0.22337 -15.37919,0.0721 -28.32938,-1.36242 -3.09949,-0.34335 -6.13961,-1.61561 -9.25042,-1.3973 -3.67339,0.25779 -7.09626,1.98212 -10.68753,2.7965 -20.37654,4.62067 -2.13995,-0.61027 -20.72087,5.10402 -2.18447,0.65714 -4.41507,1.17699 -6.55346,1.97144 -2.93717,1.09121 -5.8507,2.2712 -8.65084,3.67723 -8.87283,4.45532 -8.89731,6.32814 -18.92234,10.15676 -17.45028,5.04832 -9.32005,2.25053 -24.47285,8.15066 -6.8158,2.70845 -13.36609,5.62306 -20.64954,7.02532 -4.87561,0.93869 -9.89216,0.92001 -14.80513,1.63787 -6.08917,0.88972 -12.13323,2.06689 -18.1851,3.18251 -5.66521,1.04435 -11.8903,0.57002 -16.96455,3.29712 -3.43633,1.84681 -4.56012,6.33096 -6.8402,9.49644 -0.87646,1.73961 -3.13306,3.33716 -2.62935,5.21883 0.64683,2.41628 4.88582,7.63772 5.41663,5.19334 3.38265,-15.57705 8.44386,-32.41771 3.80706,-47.6685 -1.94098,-6.38411 -12.91571,-3.75801 -19.57429,-4.19122 -4.20619,-0.27366 7.99573,2.70459 12.09056,3.70432 4.59914,1.12284 9.30166,1.76926 13.95251,2.6539 7.41566,0.049 15.33583,1.20575 22.18687,-2.92205 1.79927,-1.08409 2.44202,-3.44079 3.36849,-5.32608 0.42717,-0.86925 1.31942,-2.1422 0.64148,-2.8339 -1.525,-1.55597 -6.45467,-4.74882 -5.98765,-2.62077 4.61552,21.03161 12.64258,41.16663 18.96388,61.74994 2.36519,-0.95748 5.36254,-0.99961 7.09559,-2.87244 0.93321,-1.00849 -2.74756,-0.56057 -4.10652,-0.35773 -1.62433,0.24245 -3.89194,0.19976 -4.63782,1.66291 -1.15232,2.26037 0.63833,5.18049 -0.0898,7.61089 -0.22294,0.74415 -2.51881,1.11486 -2.30106,0.36918 0.47938,-1.64156 2.22158,-2.60051 3.33235,-3.90077 -3.42511,3.35256 3.99592,7.05319 5.50304,5.06677 0.86051,-1.13415 -1.25864,-2.55921 -1.75712,-3.89274 -5.11252,-13.67697 -1.35424,-12.19218 -15.03728,-19.99502 -0.64981,-0.37055 -1.4452,0.38671 -2.16783,0.58006 18.61576,4.79571 3.05929,1.40628 25.86233,4.13697 5.3286,0.63811 10.56381,2.16604 15.92723,2.3526 13.20728,0.4594 26.39753,-3.22249 39.08885,-6.30923 17.63935,1.26387 29.75406,-2.91691 31.84126,25.17463 0.74297,9.99972 -5.58404,19.34233 -9.79551,28.44233 -0.48975,1.05824 -2.5998,-1.79548 -2.05859,-2.82835 1.51243,-2.88644 8.67457,-9.58541 7.07543,-6.74608 -3.40939,6.05349 -8.41256,11.05908 -12.61885,16.58862 -5.93873,2.63753 -11.43252,6.69875 -17.81625,7.91261 -5.28825,1.00555 -10.71308,-1.85258 -16.08225,-1.46683 -21.9057,1.57381 -7.6414,2.95277 -23.43761,10.00338 -2.60443,1.16248 -5.59975,1.14346 -8.43947,1.40881 -5.62356,0.5255 -11.27794,0.64042 -16.9169,0.96063 -11.33671,-41.5114 -35.13005,-64.56317 30.02087,-57.62589 3.54097,0.37705 28.45639,19.2186 17.41461,30.03668 -2.8974,2.83871 -0.3383,-9.17338 -3.56153,-11.6359 -9.08791,-6.94309 -20.65131,-9.83414 -30.97697,-14.75121 -2.58281,3.47 -10.50713,7.07814 -7.74843,10.41002 2.6978,3.25833 5.10443,-7.07193 8.78335,-9.16009 5.95516,-3.38015 12.93458,-4.50129 19.37642,-6.82339 21.08393,-7.60017 23.16167,-9.61806 46.76224,-13.95181 11.1868,-2.05422 22.53742,-3.08584 33.80613,-4.62876 11.55594,-4.84498 23.28302,-9.30045 34.6678,-14.53495 104.47565,-48.03589 -25.61632,8.2429 84.08744,-39.66807 12.35292,-5.39489 24.67853,-10.88197 37.27722,-15.6749 10.9192,-4.154 22.67528,-6.13484 33.227939,-11.14743 8.24178,-3.9149 15.09169,-10.25937 22.63753,-15.38905 18.11841,4.32363 34.55756,-6.18583 52.04035,-6.73178 9.23686,-0.28844 18.31341,2.58747 27.52776,3.29342 17.62401,1.35026 42.742425,2.19196 60.471093,-0.86996 7.790873,-1.34556 15.135717,-4.57635 22.703575,-6.86453 58.070813,-13.42075 -16.500162,5.75292 29.334323,-11.40617 2.60413,-0.97491 5.6898,0.62641 8.33906,-0.21819 2.12571,-0.6777 4.06013,-2.24954 5.27376,-4.1217 1.05367,-1.62539 1.10984,-7.64353 1.09744,-5.70654 -0.14188,22.17922 -0.991,44.34828 -1.4865,66.52241 -4.75836,-2.52888 -8.68159,-6.53509 -13.58655,-8.77113 -9.83199,-4.48214 -27.093526,-7.44208 -36.849507,-7.83038 -8.232854,-0.32767 -16.457311,1.90731 -24.679671,1.3781 -9.966902,-0.64149 -19.709501,-3.24624 -29.564253,-4.86936 -12.73071,0.33696 -25.54503,-0.48428 -38.19212,1.01088 -14.76159,1.74515 -29.06062,6.34472 -43.74115,8.67544 -15.33971,2.43536 -30.87912,3.42571 -46.25621,5.61275 -13.368999,1.90143 -26.621179,4.55416 -39.961149,6.6497 -53.73135,8.44054 -15.07308,0.87439 -66.62632,11.96124 -13.24353,8.87392 -29.15221,11.797 -43.20318,18.81927 -3.74054,1.86943 -15.73725,10.10729 -19.78056,13.86279 -2.1643,2.01024 -4.97303,9.4011 -5.91257,6.60065 -6.89464,-20.55059 -8.82224,-42.44549 -13.23337,-63.66824 9.29029,-0.61783 17.44318,6.43112 26.57692,6.73088 3.19439,0.10484 6.14463,-1.87839 9.31756,-2.26238 1.97845,-0.23943 12.3208,0.41551 14.90049,0.23269 3.10584,-0.22012 6.17344,-0.8171 9.26015,-1.22565 22.6853,12.79544 -8.10969,-3.27092 19.88902,6.46442 3.03758,1.05619 4.98007,5.35436 8.18637,5.10534 2.4076,-0.18699 1.86925,-4.88508 3.98425,-6.05058 1.45521,-0.80193 3.52963,0.16709 4.84124,1.18711 5.01534,3.90031 9.14051,8.82694 13.71079,13.24041 0.0944,-0.10553 0.17881,-0.4122 0.28324,-0.31658 16.69259,15.28341 -1.30688,-2.895 3.92485,9.02751 1.43497,3.27011 4.77954,5.40542 6.41649,8.57924 0.45276,0.87787 -3.59219,-0.96713 -2.6625,-1.30078 1.504,-0.53976 3.17495,0.36476 4.76245,0.54714 -2.189,-0.0909 -0.73647,3.36978 0.30464,3.16726 0.53676,-0.10441 1.75839,-1.19826 1.22142,-1.09504 -1.10683,0.21278 -3.19743,0.32951 -3.05572,1.44766 0.55189,4.35479 13.25443,5.1349 13.33307,5.1503 4.78922,-0.19626 9.57844,-0.39251 14.36764,-0.58877 5.29621,0.56056 10.56374,1.77906 15.88865,1.68169 5.15719,-0.0943 10.1609,-1.93837 15.3094,-2.25215 4.27322,-0.26044 8.559909,0.81207 12.832209,0.53702 7.77679,-0.50066 10.43485,-1.79165 16.77723,-4.07297 5.71933,-0.94163 8.35659,0.40402 10.28122,-5.88682 0.50694,-1.65695 1.57606,-5.53416 -0.12356,-5.19683 -6.63226,1.31634 -17.34679,2.14422 -18.25516,8.84456 -0.85186,6.28355 11.72537,-5.03101 17.92112,-6.38059 3.88297,-0.8458 7.94765,-0.0799 11.92147,-0.1198 8.25004,-1.17905 19.03898,-3.05829 27.52898,-3.04568 5.79985,0.009 11.63392,1.85656 17.37063,1.00303 5.37871,-0.80026 10.48407998,-3.19415 15.22759,-5.8531 3.10727,-1.74176 8.07156,-3.57962 7.95135,-7.13973 -0.13253,-3.92518 -5.646,-5.46088 -8.469,-8.19131 2.39512,20.17448 11.30831,40.63005 7.18535,60.52345 -1.50163,7.24539 -9.9991,-11.48344 -16.69752,-14.62697 -8.18141,-3.83948 -17.57472,-4.34246 -26.5167,-5.6532 -9.8325,-1.44127 -19.76339,-2.70707 -29.70023,-2.58721 -9.07555,0.10946 -17.98564,2.52847 -27.03139,3.27148 -8.08868,0.66439 -16.219549,0.63149 -24.329329,0.94723 -3.64929,0.87788 -32.52563,8.03067 -37.42984,8.46248 -4.28246,0.37706 -8.86208,-2.58517 -12.85827,-1.0002 -3.74727,1.48626 -5.39218,6.00545 -7.83902,9.20921 -0.83198,1.08938 -1.30453,2.41125 -1.95678,3.61688 1.02775,-20.57969 2.05552,-41.15938 3.08327,-61.73907 10.55198,6.67818 22.55128,10.82334 34.4162,14.49747 3.04091,0.94165 6.06115,2.13562 9.22803,2.45925 3.48217,0.35586 7.08081,-1.23085 10.49154,-0.44401 4.91511,1.13388 9.24331,4.04192 13.86496,6.06288 5.832289,-0.33659 11.665829,-1.36733 17.496879,-1.00978 33.08013,2.02843 7.40686,5.53724 42.78109,5.21366 7.48618,-0.0685 14.85618,-2.15022 22.34112,-2.30278 50.2676,-1.02455 -4.66904,5.1184 43.54421,-1.51465 26.071219,-5.79194 6.61308,-0.103 27.933169,-9.5 3.451942,-1.52147 7.808568,-1.42841 10.599107,-3.96685 4.724263,-4.29747 2.437646,-10.2453 1.530721,-15.02887 34.791599,-22.87025 67.135014,26.3325 32.343417,49.20275 v 0 c -5.43914,1.10632 -13.532894,2.80662 -18.520679,3.48911 -5.1112,0.69936 -10.266677,1.02703 -15.393109,1.60426 -26.14454,2.94386 -11.369791,2.79903 -38.669516,0.59584 -52.25376,4.85336 10.840377,0.037 -43.47613,0.74224 -7.36366,0.0956 -14.67254,1.29402 -22.01955,1.79813 -19.9256,1.36718 -40.02705,1.57136 -59.638769,5.87329 -11.29332,1.26223 -22.60575,2.80743 -33.99508,2.97117 -29.60193,0.42558 -1.83563,-1.20527 -21.16577,-0.6911 -2.16138,0.0575 -4.41542,-0.22718 -6.47136,0.44218 -2.71738,0.8847 -5.0146,2.74245 -7.52192,4.11368 -1.14491,-21.03752 -3.09798,-42.0466 -3.43472,-63.11255 -0.0257,-1.61061 1.25418,3.10962 2.49209,4.14029 2.36154,1.96619 5.23216,3.24428 7.99441,4.59062 4.22579,2.05968 8.38763,4.43281 12.93834,5.61213 12.22692,3.16863 25.47956,1.11547 37.3684,6.28056 8.08009,0.30458 16.209919,-0.0319 24.240259,0.91374 9.0941,1.0709 17.83371,5.25439 26.98964,5.11898 10.03646,-0.14844 19.65609,-4.08532 29.51803,-5.95471 8.75464,-1.65949 17.90398,-1.72526 26.32738,-4.63111 6.82460998,-2.35431 13.93733,-16.32142 18.71149,-10.90612 12.78357,14.50034 13.1635,36.35161 19.74524,54.52742 -3.83679,-1.41842 -7.81473,-2.50166 -11.51037,-4.25525 -3.55311,-1.68596 -6.26243,-5.4036 -10.14648,-6.02098 -14.21555,-2.25959 -18.78485,6.44035 -30.59477,12.16589 -3.01193,1.4602 -6.48461,1.66297 -9.72692,2.49446 -2.58757,1.48754 -5.17515,2.97509 -7.76273,4.46263 -1.25031,1.78277 -5.91537,5.11019 -3.75093,5.3483 3.4953,0.3845 12.17222,-6.92779 9.43269,-4.72327 -5.37429,4.32472 -10.98058,8.70799 -17.42911,11.15803 -1.37965,0.52418 -1.37395,-2.85751 -2.69709,-3.51133 -6.02669,-2.97807 -12.72365,-0.51492 -18.71372,0.47008 -4.36688,-0.81634 -8.68673,-1.94556 -13.10063,-2.44903 -3.56681,-0.40685 -7.1776,-0.18047 -10.76633,-0.27333 -4.01547,-0.1039 -8.033909,-0.12794 -12.046279,-0.31696 -7.81712,-0.36825 -22.42826,-2.05824 -30.14114,-0.4248 -5.41406,1.14659 -10.30766,4.03228 -15.46148,6.04842 -20.12495,3.4881 -10.23638,3.15515 -30.63094,1.14037 -5.92328,-0.58516 -12.33467,0.64534 -17.76664,-1.78811 -2.78625,-1.24822 -2.22189,-5.84628 -4.28943,-8.09276 -11.93704,-12.97033 0.1964,7.9838 -7.284,-6.23241 -5.21539,-6.29888 -2.26899,-2.16562 -7.6032,-13.19385 -0.70403,-0.95795 1.35887,3.32495 0.19375,3.5612 -2.13145,0.43219 -4.22587,-1.2306 -6.07975,-2.36771 -0.3945,-0.24197 0.83764,-0.39382 1.25645,-0.59073 -0.81372,-1.69699 -1.62745,-3.39398 -2.44118,-5.09098 3.7574,3.16247 6.99048,7.08198 11.27221,9.4874 0.80552,0.45254 2.18918,-1.48241 1.64621,-2.22996 -1.44087,-1.98378 -4.29755,-2.42071 -6.17204,-4.00114 -1.27053,-1.07124 -1.63455,-3.18748 -3.15357,-3.86155 -1.18042,-0.52379 -12.22727,-0.56039 -13.37469,-0.5775 -0.70882,0.21896 -1.40303,0.8212 -2.12648,0.65689 -4.54896,-1.03316 -8.37721,-4.31172 -12.91686,-5.38508 -2.46276,-0.5823 -5.04274,-0.60914 -7.57256,-0.54289 -2.57444,0.0674 -6.00889,-1.02736 -7.66839,0.94204 -1.29921,1.54186 1.39489,3.78359 2.09233,5.67539 -4.99438,-19.31769 -9.92677,-38.65151 -14.98315,-57.95306 -0.55136,-2.1048 -0.29675,5.08701 1.46757,6.36036 2.52172,1.82 6.17834,0.7613 9.23002,1.36036 5.624,1.10403 11.09403,3.03452 16.78106,3.74581 6.49661,0.81253 13.08333,0.53836 19.62499,0.80754 8.68503,1.36969 17.37006,2.73938 26.05508,4.10907 53.4583,-3.59898 12.78697,0.49854 67.15012,-8.81434 55.930919,-9.58144 113.076409,-13.27592 167.659579,-29.72437 9.427534,-2.39558 18.711408,-5.45195 28.282599,-7.18674 7.796755,-1.41318 16.17455,0.35065 23.666622,-2.22914 8.060147,-2.7754 13.892548,-10.16296 21.77167,-13.41691 5.64064,-2.3295 12.23879,-1.18482 18.05554,-3.0311 2.51602,-0.79861 12.85329,-7.63957 16.2596,-9.84785 0.47331,22.48512 2.05869,44.97433 1.41992,67.45536 -0.0513,1.80589 -1.96544,-3.05798 -3.21255,-4.3651 -8.2064,-8.60121 -3.67749,-3.58058 -14.98489,-7.33174 -4.03163,-1.33747 -7.83183,-3.29151 -11.74774,-4.93726 -5.61729,-1.6921 -11.234584,-3.38421 -16.851879,-5.07631 C 72.30288,427.71804 60.557489,422.11623 39.630607,423.242 c -10.501128,0.56492 -20.522808,4.63261 -30.871398,6.50331 -40.44052,7.31037 -11.90687,1.93906 -50.92761,3.21298 -8.35354,0.27272 -16.64908,1.49409 -24.97362,2.24113 -8.77662,0.47516 -17.70934,-0.28955 -26.32988,1.42548 -19.898209,3.95868 -53.044489,18.11854 -70.690339,25.98636 -14.52907,6.47814 -28.73592,13.65723 -43.16894,20.34659 -13.68325,6.34185 -27.61422,12.15281 -41.17803,18.74619 -11.32494,5.50507 -22.3065,11.69019 -33.45974,17.53528 -9.09307,6.62672 -18.14587,13.30903 -27.2792,19.88014 -16.34101,11.75679 -19.5234,11.85078 -31.4714,26.1834 -2.27716,2.73165 -3.8463,5.98293 -5.76945,8.9744 -0.51244,2.75917 0.0511,5.96392 -1.53731,8.27752 -4.81496,7.01352 -11.42156,12.61116 -17.13235,18.91673 -72.33679,-23.77306 -18.46141,3.57048 -46.78145,-28.74641 -2.12609,-2.42615 0.61473,6.82787 2.69237,9.29564 4.37425,5.19568 9.09021,12.64377 15.88098,12.76549 13.92624,0.24962 34.1394,0.82849 40.09583,-11.76212 6.71206,-14.1879 -8.76035,-30.14383 -13.1405,-45.21574 -4.63609,-1.12218 -9.18221,-4.01255 -13.90822,-3.36656 -1.72374,0.23562 -0.37148,3.83379 0.74816,5.16539 2.18683,2.60078 5.02568,5.67531 8.42301,5.74187 3.44281,0.0675 6.07293,-3.30709 8.80406,-5.40438 8.5044,-6.53073 10.48737,-12.28496 6.66226,-3.84814 -0.8976,2.73521 -3.24564,11.03078 -2.69285,8.20562 1.044,-5.33551 2.55119,-10.57803 4.17246,-15.76735 0.63658,-2.03758 3.08734,-7.9341 2.58434,-5.85951 -2.08023,8.57944 -8.50466,16.6983 -7.33399,25.44836 3.65805,27.34121 11.46556,20.93738 24.63578,16.77974 -8.82951,-7.13875 -2.8416,-3.90331 -17.43615,-5.95024 -12.12447,-1.70049 -18.78049,-3.93872 -31.16738,-1.90719 -5.51879,0.90512 -10.56799,3.83568 -16.07741,4.79624 -5.05825,0.88189 -10.25879,0.45981 -15.38822,0.68971 -6.88342,0.97868 -13.85517,4.40755 -20.65033,2.93602 -7.17627,-1.55405 -14.33494,-5.65051 -18.80034,-11.47924 -2.45242,-3.20116 -4.91053,-23.25568 -0.62997,-28.95285 0.96353,-1.2824 2.68414,-1.75703 4.02624,-2.63555 1.13152,-4.81814 1.59256,-9.84492 3.39461,-14.45442 5.38308,-13.76947 4.7371,-6.12681 13.77211,-14.71687 3.03546,-2.88596 5.07752,-6.67899 7.92226,-9.75311 5.90431,-6.38037 13.64338,-10.91718 19.18028,-17.67052 7.82241,21.53532 18.35703,42.2711 23.46722,64.60597 0.68982,3.01499 -6.02919,-1.44342 -9.10005,-1.81202 -2.88137,-0.34586 -5.84594,0.20038 -8.70011,-0.32457 -4.33186,-0.79673 -8.31427,-3.33453 -12.70997,-3.61325 -37.44757,-2.37448 22.37065,9.15213 -19.66968,-0.0863 -4.22352,0.0193 -8.64709,-1.22678 -12.67056,0.0578 -11.16824,3.5657 -26.04206,30.52885 -41.54296,2.84265 -5.55483,-9.92146 -12.59518,-50.48162 10.00426,-51.44369 3.93221,-0.1674 7.67244,1.75908 11.50866,2.63861 6.54802,-0.97175 27.01891,-3.72482 31.82091,-5.8861 5.66044,-2.54764 9.76397,-7.69481 14.9665,-11.08082 10.39294,-6.76415 21.99923,-11.00375 32.92972,-16.71735 3.57204,0.66166 7.10039,2.33687 10.7161,1.98497 3.24631,-0.31594 5.99067,-2.58204 8.97364,-3.90127 27.94569,-12.35907 -14.63683,7.15889 22.22997,-14.20719 3.4357,-1.99114 7.44498,-2.77637 11.23516,-3.96093 4.28549,-1.33935 8.65196,-2.40431 12.97795,-3.60646 19.56157,1.83922 1.26135,0.80503 21.89046,-0.18247 14.50962,-0.69456 12.91513,1.43885 28.68165,-1.8753 3.46586,-0.72853 6.6198,-2.53314 10.00096,-3.58704 2.34352,-0.73047 4.76734,-1.17279 7.151,-1.75919 1.67047,0.56474 5.82959,2.618 7.51544,0.24295 0.57102,-0.80445 -1.45836,-3.21063 -1.85391,-2.3069 -3.89133,8.89035 -3.70909,14.58246 0.45077,22.88576 1.37401,2.74261 3.69938,4.89426 5.54905,7.34139 3.34915,-0.22932 6.76527,0.0169 10.04742,-0.68796 0.5923,-0.12719 1.12908,-1.13902 0.78632,-1.63852 -3.16103,-4.60609 -6.34344,-9.41923 -10.74008,-12.86564 -5.96878,-4.67879 -12.76347,-8.41956 -19.85237,-11.11497 -27.99009,-10.64263 -37.8161,-7.84811 -68.97248,-8.55004 -16.38554,1.03556 -32.85429,1.15943 -49.15665,3.10669 -16.17342,1.93187 -32.22268,4.95587 -48.11805,8.51247 -32.5692,7.28738 -54.15065,14.21068 -83.56671,30.04412 -7.29144,3.92468 -33.93498,23.22801 -43.10113,29.78763 -32.49742,8.86293 -45.0315,-37.09536 -12.53408,-45.95829 z"
       inkscape:connector-curvature="0" />
  </g>
</svg>
