<?xml version="1.0" encoding="UTF-8" standalone="no"?>
<!-- Created with Inkscape (http://www.inkscape.org/) -->

<svg
   xmlns:dc="http://purl.org/dc/elements/1.1/"
   xmlns:cc="http://creativecommons.org/ns#"
   xmlns:rdf="http://www.w3.org/1999/02/22-rdf-syntax-ns#"
   xmlns:svg="http://www.w3.org/2000/svg"
   xmlns="http://www.w3.org/2000/svg"
   xmlns:sodipodi="http://sodipodi.sourceforge.net/DTD/sodipodi-0.dtd"
   xmlns:inkscape="http://www.inkscape.org/namespaces/inkscape"
   width="59.394863mm"
   height="17.894802mm"
   viewBox="0 0 59.394863 17.894802"
   version="1.1"
   id="svg8"
   inkscape:version="0.92.4 (5da689c313, 2019-01-14)"
   sodipodi:docname="menu_tail.svg">
  <defs
     id="defs2" />
  <sodipodi:namedview
     id="base"
     pagecolor="#ffffff"
     bordercolor="#666666"
     borderopacity="1.0"
     inkscape:pageopacity="0.0"
     inkscape:pageshadow="2"
     inkscape:zoom="0.7"
     inkscape:cx="86.960332"
     inkscape:cy="-3.8047745"
     inkscape:document-units="mm"
     inkscape:current-layer="layer1"
     showgrid="false"
     fit-margin-top="0"
     fit-margin-left="0"
     fit-margin-right="0"
     fit-margin-bottom="0"
     inkscape:window-width="1600"
     inkscape:window-height="847"
     inkscape:window-x="-8"
     inkscape:window-y="22"
     inkscape:window-maximized="1" />
  <metadata
     id="metadata5">
    <rdf:RDF>
      <cc:Work
         rdf:about="">
        <dc:format>image/svg+xml</dc:format>
        <dc:type
           rdf:resource="http://purl.org/dc/dcmitype/StillImage" />
        <dc:title></dc:title>
      </cc:Work>
    </rdf:RDF>
  </metadata>
  <g
     inkscape:label="Layer 1"
     inkscape:groupmode="layer"
     id="layer1"
     transform="translate(-46.754667,-114.09748)">
    <path
       style="fill:#000000;stroke-width:0.04819734"
       d="m 52.804893,131.92306 c -1.863567,-0.25114 -3.474837,-1.18054 -4.585618,-2.64505 -0.648915,-0.85556 -1.126297,-1.94141 -1.351297,-3.07365 -0.140881,-0.70894 -0.152223,-1.99153 -0.02375,-2.68593 0.406498,-2.19717 1.819306,-4.02927 3.864083,-5.01087 0.265085,-0.12725 0.663077,-0.2919 0.884426,-0.36587 0.375527,-0.12551 0.436795,-0.16635 0.91575,-0.61051 0.282313,-0.2618 0.903695,-0.77063 1.380848,-1.13073 0.588167,-0.44387 1.056887,-0.84687 1.455478,-1.25138 0.561908,-0.57027 0.6099,-0.60674 1.084441,-0.8243 0.452004,-0.20722 0.528918,-0.22759 0.857994,-0.22729 0.691792,6.2e-4 1.535279,0.3852 3.397912,1.54921 0.914957,0.57179 1.650214,1.00974 2.323031,1.38371 0.421106,0.23406 0.561227,0.28565 0.977983,0.36006 l 0.486451,0.0869 0.395641,-0.22698 c 0.347509,-0.19938 0.441544,-0.23091 0.772947,-0.25922 0.544602,-0.0465 1.16471,-0.22115 2.260752,-0.63665 0.858672,-0.32552 0.986551,-0.38833 1.163511,-0.57145 0.221348,-0.22907 0.400032,-0.28587 1.076906,-0.34231 0.288871,-0.0241 0.471098,-0.0107 0.75071,0.0552 l 0.369241,0.0871 0.40273,-0.20803 c 0.365028,-0.18855 0.423776,-0.20487 0.627556,-0.17431 0.13159,0.0197 0.496719,0.17366 0.880461,0.37117 0.735062,0.37833 0.523653,0.33206 2.718342,0.59487 1.502795,0.17996 2.122236,0.19332 4.651043,0.1003 l 2.265275,-0.0833 2.289374,0.12397 c 1.851061,0.10023 2.529292,0.15661 3.542504,0.29444 2.453257,0.33374 2.909969,0.4341 4.506452,0.99026 2.148681,0.74854 2.778114,0.87017 5.470395,1.05707 2.185115,0.1517 3.148385,0.2842 4.217265,0.58008 1.25392,0.34711 2.0885,0.62381 2.34312,0.77686 0.90118,0.54169 1.2209,1.60541 0.7694,2.5598 -0.43135,0.91179 -1.41261,1.32748 -2.41968,1.02505 -0.11298,-0.0339 -0.69561,-0.4118 -1.34953,-0.87526 -0.91572,-0.649 -1.33667,-0.91183 -2.06132,-1.28701 -1.273285,-0.65922 -2.317185,-1.25228 -3.226818,-1.83322 -1.432575,-0.91491 -2.104401,-1.24543 -3.501845,-1.72277 -1.307458,-0.4466 -2.100601,-0.60629 -4.602847,-0.9267 -2.170422,-0.27792 -4.081887,-0.39232 -6.554838,-0.39232 -1.851026,0 -2.485282,0.0411 -3.43646,0.22284 -0.822388,0.15712 -1.985741,0.62174 -1.985741,0.79307 0,0.0962 0.06672,0.22535 0.276929,0.53606 0.151634,0.22412 0.16712,0.27615 0.146401,0.49178 -0.01845,0.192 -0.251104,0.7541 -0.458803,1.10848 -0.0063,0.0107 -0.05663,-0.0381 -0.111942,-0.10844 -0.09924,-0.12617 -0.205736,-0.15577 -0.354715,-0.0986 -0.125089,0.048 -0.08816,0.19509 0.06489,0.25849 0.09463,0.0392 0.168525,0.12449 0.224291,0.25888 l 0.08317,0.20043 0.03521,-0.15909 c 0.05876,-0.2655 0.09458,-0.2346 0.09458,0.0816 0,0.18777 -0.01804,0.28892 -0.0482,0.27028 -0.02651,-0.0164 -0.0482,-0.061 -0.0482,-0.0992 0,-0.0899 -0.06854,-0.0888 -0.144082,0.002 -0.08467,0.10202 -0.02372,0.23136 0.09176,0.19471 0.06642,-0.0211 0.101609,-10e-4 0.123979,0.069 0.01718,0.0541 0.04789,0.0984 0.06824,0.0984 0.07647,0 0.496358,0.45695 0.747981,0.814 0.423223,0.60056 0.878731,0.97379 1.785608,1.46308 0.239382,0.12916 0.391863,0.22355 0.338846,0.20975 -0.566524,-0.1474 -1.858169,-0.16155 -2.626755,-0.0288 -0.619289,0.10699 -1.032637,0.11972 -1.488088,0.0458 -0.249299,-0.0404 -0.322027,-0.037 -0.385579,0.0184 -0.04308,0.0375 -0.156335,0.0932 -0.251679,0.12382 -0.227953,0.0731 -0.582796,0.30009 -0.911086,0.58282 -0.305464,0.26307 -0.536453,0.38918 -0.941299,0.51391 -0.254906,0.0785 -0.435201,0.087 -1.580289,0.074 l -1.292556,-0.0147 -0.489498,0.15208 c -0.652121,0.20259 -0.942586,0.35591 -1.48396,0.78327 -0.49533,0.39101 -1.141064,0.82075 -1.527614,1.01663 -0.3109,0.15754 -0.764188,0.27896 -1.64949,0.44182 -0.92414,0.17001 -1.158213,0.15212 -1.6906,-0.12919 l -0.398895,-0.21077 -0.419979,-0.63835 c -0.230988,-0.35109 -0.434148,-0.6948 -0.451467,-0.76381 -0.04069,-0.16211 -0.128867,-0.14237 -0.784992,0.17566 -0.632315,0.3065 -1.00281,0.6673 -1.711658,1.66685 -0.28455,0.40125 -0.59559,0.82418 -0.691201,0.93985 -0.413529,0.50028 -1.585791,1.68835 -1.807889,1.83226 -0.206826,0.13402 -0.336821,0.2999 -0.884696,1.12891 l -0.642246,0.9718 -0.210465,0.0306 c -0.957696,0.13904 -1.806929,0.15492 -2.596234,0.0486 z m 13.716545,-7.732 c 0.131984,-0.0639 0.230513,-0.15539 0.280302,-0.26032 0.100307,-0.21138 0.101801,-0.20682 -0.07986,-0.24339 -0.08615,-0.0173 -0.197877,-0.0433 -0.248277,-0.0576 -0.06856,-0.0195 -0.08436,-0.007 -0.06273,0.0493 0.0159,0.0414 -0.02446,0.17572 -0.08969,0.2984 -0.106519,0.20034 -0.118485,0.31215 -0.03341,0.31215 0.01657,0 0.121722,-0.0443 0.233662,-0.0985 z m 3.024086,-0.30569 c 0.457863,-0.15488 0.487861,-0.17411 0.879602,-0.56381 0.223065,-0.22191 0.405573,-0.43912 0.405573,-0.48269 0,-0.13156 0.472917,-0.82346 0.726478,-1.06288 0.231918,-0.21898 0.237469,-0.23082 0.237469,-0.50639 0,-0.15519 0.02017,-0.35251 0.04483,-0.43849 0.02466,-0.086 0.03677,-0.15632 0.02692,-0.15632 -0.0099,0 -0.447538,0.14252 -0.972632,0.3167 -0.873835,0.28988 -1.814429,0.7095 -1.946173,0.86824 -0.03422,0.0412 -0.01998,0.17383 0.04657,0.43364 0.06599,0.2576 0.08156,0.40097 0.04996,0.46002 -0.12625,0.2359 -0.851661,0.70935 -1.322153,0.86292 l -0.192789,0.0629 0.168691,0.072 c 0.838484,0.35775 1.12512,0.37856 1.847652,0.13416 z M 58.77863,120.30564 c 0.209915,-0.1046 0.311305,-0.20352 0.551684,-0.53825 0.360751,-0.50234 0.68499,-0.86415 0.847255,-0.94545 0.06711,-0.0336 0.566631,-0.12069 1.110056,-0.19348 1.077969,-0.14441 1.108992,-0.15016 1.107569,-0.20539 -0.0023,-0.0881 -0.64818,-0.93096 -0.938098,-1.22418 -0.366311,-0.37047 -0.697555,-0.55901 -1.302108,-0.74111 -0.238577,-0.0719 -0.628059,-0.23146 -0.865517,-0.35465 -0.541856,-0.2811 -0.766401,-0.29511 -1.231068,-0.0768 -0.305635,0.14361 -0.321749,0.14591 -0.660103,0.094 -0.339107,-0.0521 -0.357215,-0.0494 -0.814113,0.11789 l -0.467292,0.17111 -0.06403,0.25121 c -0.116635,0.45757 -0.439877,1.02324 -0.792728,1.38727 -0.395949,0.40849 -0.649226,0.81539 -0.720126,1.15692 -0.10326,0.4974 -0.01437,0.57586 0.710875,0.62752 0.562712,0.0401 0.854769,0.0982 1.457996,0.29035 0.81315,0.25899 1.013744,0.30219 1.424408,0.30683 0.328988,0.004 0.427371,-0.0152 0.645344,-0.12378 z m 24.414687,5.37888 c -0.07953,-0.0233 -0.300822,-0.13589 -0.49177,-0.25028 -0.294527,-0.17645 -0.405208,-0.2845 -0.729827,-0.71247 -0.404547,-0.53335 -0.824174,-0.96778 -1.13475,-1.17478 l -0.187465,-0.12495 h 0.214866 c 0.293338,0 0.693988,-0.12597 0.940825,-0.29579 0.112805,-0.0776 0.357563,-0.32365 0.543908,-0.54676 0.310015,-0.37117 0.342198,-0.43043 0.378704,-0.69736 0.02194,-0.16045 0.05474,-0.30657 0.07288,-0.32471 0.01814,-0.0181 0.162551,-0.0483 0.320907,-0.0669 0.31994,-0.0377 0.557992,-0.20215 0.757026,-0.52288 0.06985,-0.11255 0.107461,-0.14307 0.108444,-0.088 0.0021,0.1181 0.05268,0.10645 0.295506,-0.0681 0.448808,-0.32253 0.959129,-0.83583 0.959129,-0.96472 0,-0.0218 -0.07591,-0.0396 -0.168691,-0.0396 -0.09278,0 -0.168691,-0.0203 -0.168691,-0.0452 0,-0.0508 0.692579,-0.51657 0.988046,-0.66443 0.465356,-0.23289 1.490642,-0.4945 1.939943,-0.49501 0.165678,-1.9e-4 0.301233,-0.0119 0.301233,-0.0261 0,-0.0142 -0.03503,-0.0793 -0.07784,-0.14459 -0.09218,-0.14069 -0.104934,-0.13909 0.33341,-0.0418 0.571615,0.12684 1.020817,0.36983 1.408062,0.76165 0.395045,0.39972 0.567408,0.699 0.69909,1.21388 0.24214,0.94675 -0.02415,1.95912 -0.694189,2.63912 -0.503681,0.51118 -1.232992,0.80004 -2.02496,0.80203 -0.280397,7.1e-4 -0.365112,-0.0199 -0.542134,-0.1317 -0.115393,-0.0729 -0.209845,-0.1554 -0.209892,-0.18334 -4.8e-5,-0.0279 0.07841,-0.12553 0.174351,-0.21689 0.223873,-0.21316 0.328528,-0.44649 0.25875,-0.57687 -0.02805,-0.0524 -0.08819,-0.0949 -0.13365,-0.0945 -0.16409,0.002 -0.468098,0.21668 -0.554037,0.39201 -0.0472,0.0963 -0.23155,0.31423 -0.409678,0.48431 -0.178127,0.17008 -0.448535,0.45982 -0.600905,0.64386 -0.571032,0.68973 -0.99865,1.14586 -1.20103,1.2811 -0.400568,0.26768 -0.992395,0.38893 -1.365576,0.27977 z"
       id="path826"
       inkscape:connector-curvature="0"
       sodipodi:nodetypes="ccscccccccccccccccccccccccccccccccccccccsscscccccccccscscccsccccccccccccccccccccccccccccccccccsccccscscsccccccccccccccccccccccccccccccccccsccccccccsssccsccccccccccccccccc" />
  </g>
</svg>
